<svg width="150" height="150" viewBox="0 0 150 150" fill="none" xmlns="http://www.w3.org/2000/svg">
<path fill-rule="evenodd" clip-rule="evenodd" d="M102.843 46.5941C104.155 45.2935 105.926 44.5615 107.774 44.5564C109.621 44.5513 111.396 45.2735 112.715 46.5668C114.035 47.8601 114.792 49.6207 114.823 51.4678C114.855 53.315 114.158 55.1003 112.884 56.4378L75.4586 103.219C74.8154 103.912 74.0391 104.468 73.1761 104.854C72.3131 105.24 71.3811 105.448 70.4359 105.465C69.4908 105.483 68.5518 105.309 67.6751 104.956C66.7984 104.602 66.002 104.075 65.3336 103.407L40.5367 78.6003C39.8459 77.9566 39.2918 77.1804 38.9075 76.3179C38.5232 75.4554 38.3166 74.5243 38.2999 73.5802C38.2833 72.6361 38.4569 71.6983 38.8106 70.8228C39.1642 69.9473 39.6906 69.152 40.3582 68.4843C41.0259 67.8167 41.8212 67.2903 42.6967 66.9367C43.5723 66.583 44.51 66.4094 45.4541 66.426C46.3982 66.4427 47.3293 66.6493 48.1918 67.0336C49.0543 67.4179 49.8305 67.972 50.4742 68.6628L70.1055 88.2847L102.665 46.8003C102.723 46.7277 102.786 46.6588 102.852 46.5941H102.843Z" fill="white"/>
</svg>
