<svg width="25" height="25" viewBox="0 0 25 25" fill="none" xmlns="http://www.w3.org/2000/svg">
<path d="M5.0002 2.70453L12.5002 10.2045L20.0002 2.72726C20.1479 2.57701 20.3251 2.45903 20.5207 2.38079C20.7163 2.30255 20.926 2.26575 21.1366 2.27271C21.5497 2.29945 21.939 2.47565 22.2318 2.7684C22.5245 3.06116 22.7007 3.45046 22.7275 3.86362C22.7295 4.06676 22.6903 4.2682 22.6122 4.45573C22.534 4.64325 22.4186 4.81295 22.2729 4.95453L14.7502 12.5L22.2729 20.0454C22.5684 20.3318 22.732 20.7273 22.7275 21.1363C22.7007 21.5495 22.5245 21.9388 22.2318 22.2316C21.939 22.5243 21.5497 22.7005 21.1366 22.7273C20.926 22.7342 20.7163 22.6974 20.5207 22.6192C20.3251 22.5409 20.1479 22.423 20.0002 22.2727L12.5002 14.7954L5.02293 22.2727C4.87526 22.423 4.69802 22.5409 4.50242 22.6192C4.30682 22.6974 4.09711 22.7342 3.88656 22.7273C3.4657 22.7053 3.06787 22.5283 2.76987 22.2303C2.47187 21.9323 2.29483 21.5345 2.27293 21.1136C2.27087 20.9105 2.3101 20.709 2.38823 20.5215C2.46637 20.334 2.58178 20.1643 2.72747 20.0227L10.2502 12.5L2.70474 4.95453C2.56316 4.81104 2.45194 4.64048 2.37775 4.45304C2.30356 4.26561 2.26791 4.06514 2.27293 3.86362C2.29966 3.45046 2.47586 3.06116 2.76862 2.7684C3.06138 2.47565 3.45068 2.29945 3.86384 2.27271C4.07275 2.26279 4.28147 2.29601 4.47698 2.3703C4.67249 2.4446 4.8506 2.55837 5.0002 2.70453Z" fill="black"/>
</svg>
