<?xml version="1.0" encoding="utf-8"?>
<!-- Generator: Adobe Illustrator 24.2.0, SVG Export Plug-In . SVG Version: 6.00 Build 0)  -->
<svg version="1.1" id="Layer_1" xmlns="http://www.w3.org/2000/svg" xmlns:xlink="http://www.w3.org/1999/xlink" x="0px" y="0px"
	 viewBox="0 0 2880 1800" style="enable-background:new 0 0 2880 1800;" xml:space="preserve">
<style type="text/css">
	.st0{opacity:0.18;fill:#7931CD;}
	.st1{fill:#8B36D6;}
	.st2{fill:#FFFFFF;}
	.st3{fill:#7931CD;}
	.st4{fill:#582296;}
</style>
<g>
	<path id="Tracé_191_6_" class="st0" d="M1874.3,799.4c4.8-11.2,8.3-20.7,9.4-35.6c4.9-62.7-20.1-84.8-100.5-85.1
		c-89.1-0.4-227.7,129.8-331.9-6.8s-415.4,273.8-136.9,324.3C1577.4,1043.8,1838.1,884.6,1874.3,799.4z"/>
	<path class="st1" d="M1781.1,1252.4h-602.6c-49.8,0-90.2-40.4-90.2-90.2v0c0-49.8,40.4-90.2,90.2-90.2h602.6
		c49.8,0,90.2,40.4,90.2,90.2v0C1871.4,1212,1831,1252.4,1781.1,1252.4z"/>
	<g>
		<g>
			<path class="st2" d="M1263.7,1197.8c-1.7-1.7-2.5-3.9-2.5-6.7v-65.9c0-2.7,0.8-4.9,2.2-6.4c1.5-1.5,3.6-2.2,6.4-2.2h40.5
				c3,0,5.2,0.6,6.6,1.8c1.4,1.2,2.1,3,2.1,5.5c0,2.4-0.7,4.2-2.1,5.4c-1.4,1.2-3.6,1.8-6.6,1.8h-31v19.1h28.6c3,0,5.2,0.6,6.6,1.8
				c1.4,1.2,2.1,3,2.1,5.5c0,2.4-0.7,4.2-2.1,5.4c-1.4,1.2-3.6,1.8-6.6,1.8h-28.6v26.5c0,2.8-0.8,5.1-2.4,6.7
				c-1.6,1.6-3.8,2.5-6.5,2.5C1267.6,1200.3,1265.4,1199.5,1263.7,1197.8z"/>
			<path class="st2" d="M1366,1142.2c1.4,1.2,2.1,3,2.1,5.5c0,2.6-0.6,4.5-1.9,5.8c-1.2,1.3-3.5,2-6.7,2.4l-3.5,0.4
				c-4.3,0.5-7.4,1.9-9.4,4.2c-1.9,2.4-2.9,5.4-2.9,9.1v22.5c0,2.8-0.8,4.8-2.5,6.2c-1.7,1.4-3.8,2.1-6.3,2.1
				c-2.6,0-4.7-0.7-6.4-2.1c-1.7-1.4-2.5-3.5-2.5-6.2v-43.2c0-2.6,0.9-4.6,2.6-6c1.7-1.4,3.8-2.1,6.2-2.1c2.4,0,4.3,0.7,5.9,2.1
				c1.6,1.4,2.4,3.3,2.4,5.7v3.2c1.4-3.4,3.5-6,6.4-7.8c2.9-1.8,6-2.8,9.4-3.1l1.6-0.1C1362.7,1140.5,1364.6,1141,1366,1142.2z"/>
			<path class="st2" d="M1417.9,1146.6c4.1,4.1,6.1,10.4,6.1,18.9v26.6c0,2.6-0.8,4.6-2.2,6.1c-1.5,1.5-3.6,2.2-6.2,2.2
				c-2.5,0-4.5-0.8-6.1-2.3c-1.5-1.5-2.3-3.5-2.3-5.9v-0.8c-1.2,2.9-3.1,5.2-5.9,6.8c-2.8,1.6-6,2.5-9.7,2.5
				c-3.9,0-7.5-0.8-10.6-2.4c-3.2-1.6-5.7-3.8-7.5-6.6c-1.8-2.8-2.8-6-2.8-9.4c0-4.2,1.1-7.6,3.2-10c2.2-2.4,5.6-4.2,10.4-5.3
				c4.8-1.1,11.3-1.6,19.7-1.6h3.1v-2.1c0-3.3-0.7-5.7-2.2-7.2c-1.5-1.5-3.9-2.2-7.2-2.2c-3.4,0-8.2,1.2-14.6,3.5
				c-1.8,0.9-3.3,1.3-4.6,1.3c-1.7,0-3.1-0.6-4.1-1.8c-1-1.2-1.5-2.8-1.5-4.8c0-1.6,0.4-2.9,1.1-3.9c0.7-1,1.8-2,3.4-2.8
				c2.7-1.5,6.1-2.7,10.1-3.5c4-0.9,7.9-1.3,11.7-1.3C1407.6,1140.4,1413.9,1142.5,1417.9,1146.6z M1403.9,1184.8
				c2.1-2.3,3.2-5.3,3.2-9v-2h-2c-6.4,0-10.8,0.5-13.4,1.5c-2.6,1-3.8,2.9-3.8,5.5c0,2.2,0.7,4,2.2,5.4c1.4,1.4,3.3,2.1,5.5,2.1
				C1399,1188.3,1401.8,1187.2,1403.9,1184.8z"/>
			<path class="st2" d="M1489,1146.5c3.4,4,5.1,10.1,5.1,18.3v27.2c0,2.6-0.8,4.6-2.4,6.1c-1.6,1.5-3.8,2.2-6.5,2.2
				s-4.9-0.7-6.5-2.2c-1.6-1.5-2.4-3.5-2.4-6.1v-26.4c0-3.9-0.7-6.8-2.2-8.6c-1.5-1.8-3.7-2.7-6.8-2.7c-3.7,0-6.6,1.2-8.9,3.5
				c-2.2,2.4-3.4,5.5-3.4,9.4v24.7c0,2.6-0.8,4.6-2.4,6.1c-1.6,1.5-3.7,2.2-6.5,2.2s-4.9-0.7-6.5-2.2c-1.6-1.5-2.4-3.5-2.4-6.1
				v-43.2c0-2.4,0.8-4.4,2.5-5.9c1.7-1.5,3.9-2.2,6.5-2.2c2.4,0,4.4,0.7,5.9,2.2c1.5,1.5,2.3,3.3,2.3,5.6v1.6c2-3.1,4.7-5.5,8-7.2
				c3.3-1.6,6.9-2.5,11-2.5C1480.5,1140.4,1485.7,1142.4,1489,1146.5z"/>
			<path class="st2" d="M1555.4,1184.1c1,1.3,1.5,3,1.5,5.1c0,2.9-1.2,5.1-3.6,6.5c-4.2,2.7-9.5,4.4-15.7,4.8l-0.5,4.1
				c1.2-0.2,2.1-0.2,2.6-0.2c2.4,0,4.5,0.7,6.2,2.2c1.7,1.5,2.5,3.5,2.5,5.9c0,3.1-1.4,5.6-4.1,7.5c-2.8,1.9-6.7,2.9-11.8,2.9
				c-3.3,0-6.1-0.4-8.4-1.2c-1.6-0.6-2.4-1.7-2.4-3.5c0-1.1,0.4-2,1.1-2.8c0.7-0.8,1.6-1,2.6-0.7c2.7,0.6,4.9,0.9,6.6,0.9
				c3.6,0,5.4-1,5.4-3.1c0-0.7-0.2-1.3-0.8-1.6c-0.5-0.4-1.2-0.6-2.1-0.6c-0.7,0-1.6,0.1-2.7,0.4c-1.1,0.2-1.9,0.4-2.5,0.4
				c-0.8,0-1.4-0.2-1.8-0.6c-0.4-0.4-0.6-1-0.5-1.8l1.1-8.4c-7.3-1.1-13-4.3-17.3-9.5c-4.2-5.2-6.3-11.8-6.3-19.8
				c0-6,1.3-11.4,3.8-15.9c2.5-4.6,6.1-8.1,10.8-10.6c4.6-2.5,10-3.8,16-3.8c3.1,0,6.3,0.4,9.5,1.3c3.2,0.9,6,2.1,8.5,3.6
				c2.4,1.5,3.6,3.7,3.6,6.6c0,2-0.5,3.7-1.4,5s-2.2,1.9-3.8,1.9c-1,0-2-0.2-2.9-0.5c-0.9-0.4-2.1-0.9-3.6-1.6
				c-1.6-0.9-3.1-1.5-4.4-2c-1.3-0.5-2.8-0.7-4.4-0.7c-4.4,0-7.8,1.4-10.1,4.2c-2.3,2.8-3.5,6.8-3.5,12.2c0,5.3,1.1,9.4,3.5,12.2
				c2.3,2.8,5.7,4.2,10.1,4.2c1.6,0,3.1-0.2,4.4-0.6c1.3-0.4,2.8-1.1,4.6-2.1c1.5-0.7,2.7-1.2,3.5-1.6c0.9-0.4,1.8-0.5,2.8-0.5
				C1553.2,1182.1,1554.4,1182.7,1555.4,1184.1z"/>
			<path class="st2" d="M1610.4,1146.6c4.1,4.1,6.1,10.4,6.1,18.9v26.6c0,2.6-0.8,4.6-2.2,6.1c-1.5,1.5-3.6,2.2-6.2,2.2
				c-2.5,0-4.5-0.8-6.1-2.3c-1.5-1.5-2.3-3.5-2.3-5.9v-0.8c-1.2,2.9-3.1,5.2-5.9,6.8c-2.8,1.6-6,2.5-9.7,2.5
				c-3.9,0-7.5-0.8-10.6-2.4c-3.2-1.6-5.7-3.8-7.5-6.6c-1.8-2.8-2.8-6-2.8-9.4c0-4.2,1.1-7.6,3.2-10c2.2-2.4,5.6-4.2,10.4-5.3
				c4.8-1.1,11.3-1.6,19.7-1.6h3.1v-2.1c0-3.3-0.7-5.7-2.2-7.2c-1.5-1.5-3.9-2.2-7.2-2.2c-3.4,0-8.2,1.2-14.6,3.5
				c-1.8,0.9-3.3,1.3-4.6,1.3c-1.7,0-3.1-0.6-4.1-1.8c-1-1.2-1.5-2.8-1.5-4.8c0-1.6,0.4-2.9,1.1-3.9c0.7-1,1.8-2,3.4-2.8
				c2.7-1.5,6.1-2.7,10.1-3.5c4-0.9,7.9-1.3,11.7-1.3C1600,1140.4,1606.3,1142.5,1610.4,1146.6z M1596.4,1184.8
				c2.1-2.3,3.2-5.3,3.2-9v-2h-2c-6.4,0-10.8,0.5-13.4,1.5c-2.6,1-3.8,2.9-3.8,5.5c0,2.2,0.7,4,2.2,5.4c1.4,1.4,3.3,2.1,5.5,2.1
				C1591.5,1188.3,1594.3,1187.2,1596.4,1184.8z"/>
			<path class="st2" d="M1631.3,1128.8c-1.8-1.6-2.7-3.8-2.7-6.5c0-2.7,0.9-4.9,2.7-6.5c1.8-1.6,4.3-2.4,7.4-2.4
				c3.1,0,5.5,0.8,7.4,2.4c1.9,1.6,2.8,3.8,2.8,6.4c0,2.8-0.9,4.9-2.7,6.5c-1.8,1.6-4.3,2.4-7.4,2.4
				C1635.6,1131.2,1633.1,1130.4,1631.3,1128.8z M1632.3,1198.2c-1.7-1.4-2.5-3.5-2.5-6.2v-43c0-2.7,0.9-4.8,2.6-6.2
				c1.7-1.4,3.8-2.1,6.4-2.1c2.5,0,4.6,0.7,6.3,2.1c1.7,1.4,2.5,3.5,2.5,6.2v43c0,2.8-0.8,4.8-2.5,6.2c-1.7,1.4-3.8,2.1-6.3,2.1
				C1636.2,1200.3,1634,1199.6,1632.3,1198.2z"/>
			<path class="st2" d="M1670.7,1199.4c-3.5-0.8-6.6-2-9.3-3.8c-1.2-0.7-2.1-1.6-2.7-2.8c-0.6-1.2-0.9-2.5-0.9-4
				c0-1.8,0.5-3.3,1.5-4.5c1-1.2,2.3-1.8,3.8-1.8c1,0,2,0.2,3.1,0.5c1,0.4,2.1,0.8,3.2,1.2c2.2,1,4.4,1.8,6.5,2.4
				c2.1,0.6,4.8,0.9,7.9,0.9c2.7,0,4.9-0.4,6.4-1.3c1.5-0.9,2.3-2,2.3-3.5c0-1.1-0.3-2-1-2.6c-0.7-0.7-1.9-1.3-3.7-1.8
				c-1.8-0.6-4.7-1.2-8.6-2c-7-1.3-12-3.3-15.1-6c-3.1-2.7-4.6-6.4-4.6-11.2c0-3.5,1.1-6.7,3.2-9.5c2.2-2.8,5.1-5,8.9-6.7
				c3.8-1.6,8-2.4,12.7-2.4c3.4,0,6.7,0.4,9.9,1.3c3.2,0.9,6.1,2.1,8.6,3.6c2.4,1.5,3.6,3.7,3.6,6.6c0,1.9-0.5,3.5-1.5,4.7
				c-1,1.3-2.3,1.9-3.8,1.9c-1.8,0-4-0.7-6.5-2.1c-2-1-3.8-1.8-5.4-2.3c-1.6-0.5-3.5-0.8-5.7-0.8c-2.4,0-4.4,0.5-5.8,1.4
				s-2.1,2.1-2.1,3.7c0,1.6,0.8,2.9,2.5,3.8c1.6,0.9,4.8,1.7,9.5,2.6c5.3,1,9.4,2.3,12.4,3.7c3,1.4,5.1,3.3,6.5,5.5
				c1.3,2.2,2,5,2,8.4c0,5.6-2.3,10-6.9,13.3s-10.7,4.9-18.4,4.9C1678.4,1200.6,1674.2,1200.2,1670.7,1199.4z"/>
		</g>
	</g>
	<g>
		<path class="st3" d="M1614.7,1395c-0.5-19.5-14.9-35.4-34.2-37.9c-2.1-0.3-4.2-0.4-6.2-0.3c-3.9,0.1-7.7,0.8-11.4,2
			c-16.6,5.5-27.4,20.9-26.9,38.4c0.3,10.5,4.6,20.3,12.3,27.5c7.4,7,16.9,10.8,27,10.8c0.4,0,0.7,0,1.1,0
			c13.7-0.4,25.9-7.6,32.9-19.4c3-5.2,4.8-10.9,5.3-16.8C1614.7,1397.8,1614.7,1396.4,1614.7,1395 M1599.8,1395.4
			c0.2,6-1.9,11.8-5.7,16.4c-4.5,5.4-11.1,8.6-18.1,8.8c-13.4,0.4-24.8-10.3-25.1-23.8c-0.3-9.3,4.7-17.8,13-22.3
			c3.4-1.8,7-2.8,10.8-2.9c0.2,0,0.4,0,0.6,0c2.4,0,4.8,0.4,7.1,1.1c9.5,2.9,16.5,11.5,17.3,21.4l0,0.4
			C1599.8,1394.8,1599.8,1395.1,1599.8,1395.4"/>
		<path class="st3" d="M1678.5,1395c-0.5-19.5-14.9-35.4-34.2-37.9c-2.1-0.3-4.2-0.4-6.2-0.3c-3.9,0.1-7.7,0.8-11.4,2
			c-16.6,5.5-27.4,20.9-26.9,38.4c0.3,10.5,4.6,20.3,12.3,27.5c7.4,7,16.9,10.8,27,10.8c0.4,0,0.7,0,1.1,0
			c13.7-0.4,25.9-7.6,32.9-19.4c3-5.2,4.8-10.9,5.3-16.8C1678.5,1397.8,1678.6,1396.4,1678.5,1395 M1663.7,1395.4
			c0.2,6-1.9,11.8-5.7,16.4c-4.5,5.4-11.1,8.6-18.1,8.8c-13.4,0.4-24.8-10.3-25.1-23.8c-0.3-9.3,4.7-17.8,13-22.3
			c3.4-1.8,7-2.8,10.8-2.9c0.2,0,0.4,0,0.6,0c2.4,0,4.8,0.4,7.1,1.1c9.5,2.9,16.5,11.5,17.3,21.4l0,0.4
			C1663.6,1394.8,1663.7,1395.1,1663.7,1395.4"/>
		<path class="st3" d="M1324.3,1422.4c0.6-3.1,0.1-6-1.5-8c-1.5-1.9-4-2.9-7-3h0c0,0-0.1,0-0.1,0c-3.3,0-6.4,1.9-8.3,5.1
			c-0.5,0.9-3,2.7-5.4,3c-6.4,0.6-12-0.6-16.6-3.4l-0.2-0.1l0,0c-5.5-3.6-9.1-9.7-9.9-16.7c-0.1-0.7-0.1-1.4-0.2-2.1l0-0.3
			c0-0.2,0-0.4,0-0.6c0-0.2,0-0.4,0-0.6l0-0.3c0-0.7,0.1-1.4,0.2-2.1c0.9-7,4.5-13.1,9.9-16.7l0,0l0.2-0.2c4.6-2.9,10.2-4,16.6-3.4
			c2.4,0.2,4.9,2.1,5.4,3c1.9,3.2,5,5.1,8.3,5.1h0.1c3.1,0,5.5-1.1,7-3c1.6-2,2.2-4.9,1.5-8c-0.4-1.7-1.4-3.4-3-4.7
			c-6.1-5.2-14.2-8-22.9-8c-2.3,0-4.6,0.2-6.9,0.6c-11.8,2-22.2,8.7-27.7,18.1c-3.9,6-5.9,13-5.8,20.3c-0.1,7.3,1.9,14.3,5.8,20.3
			c5.6,9.4,15.9,16.1,27.7,18.1c11.2,1.9,22.1-0.9,29.7-7.4C1323,1425.8,1324,1424.2,1324.3,1422.4"/>
		<path class="st3" d="M1405.8,1435.1c3.1,0.1,5.5-0.7,7.1-2.3c1.5-1.4,2.2-3.5,2.2-5.9c0-2.8-1.3-5.1-4.1-7.3
			c-4.1-2.5-4.8-4.1-4.8-11.5v-43.6c0-3.5-2.7-7.3-7.6-7.3c-4.9,0-6.7,3.8-6.7,7.3v1.5l-0.4-0.3c-5.6-4.5-12.4-7.4-19.6-8.4
			c-1.7-0.2-3.4-0.3-5.1-0.3c-0.4,0-0.7,0-1.1,0c-3.9,0.1-7.6,0.8-11.3,2c-16.5,5.5-27.2,20.8-26.7,38.2
			c0.3,10.4,4.6,20.2,12.2,27.3c7.3,6.9,16.8,10.7,26.9,10.7c0.4,0,0.7,0,1.1,0c9.2-0.3,18-3.7,24.9-9.8l0.3-0.2l0.1,0.3
			C1395.4,1431.4,1399.8,1434.8,1405.8,1435.1 M1385.4,1411.7c-4.5,5.3-10.9,8.5-17.8,8.6c-0.2,0-0.4,0-0.6,0
			c-13,0-23.8-10.4-24.1-23.5c-0.3-9.2,4.7-17.6,12.8-21.9c3.3-1.8,6.9-2.7,10.7-2.8c0.2,0,0.4,0,0.6,0c2.3,0,4.7,0.4,7,1
			c9.4,2.8,16.2,11.3,17.1,21l0,0.4c0,0.3,0.1,0.7,0.1,1C1391.3,1401.4,1389.2,1407.2,1385.4,1411.7"/>
		<path class="st3" d="M1438.5,1392l0,25.1v10.8v0.1c0,3.9-3,7.5-7.6,7.4c-1.9,0-3.5-0.7-4.8-2.1c-1.6-1.6-2.4-3.6-2.4-5.9l0-0.5
			l0.1-0.1l-0.1,0v-5.1v-11v-26.7l0,0c0-7.3-0.7-8.9-4.8-11.5c-2.8-2.2-4.1-4.5-4.1-7.3c0-2.4,0.8-4.4,2.2-5.9
			c1.6-1.6,4-2.4,7.1-2.3c1.3,0.1,2.6,0.3,3.7,0.7c4.1,1.3,7.1,4.3,8.8,8.8l0.1,0.3l0.3-0.2c0,0,0.9-0.7,1.9-1.4
			c0.6-0.5,1.3-0.9,1.9-1.3c0,0,0,0,0,0c0.3-0.2,0.6-0.4,0.8-0.5l-0.1,0.1c12.5-7.6,20.9-6.6,20.9-6.6c5.5,0,10.4,1.4,14.4,4
			c4,2.7,7.2,6.4,9.3,11c2.1,4.6,3.2,9.6,3.2,15.1v28.2h0l0,1.4h0v4.7v6.2v0.1c0,0.5-0.1,1-0.2,1.6c-0.6,3.3-3.4,6.2-7.4,6.1
			c0,0-0.1,0-0.1,0c0,0-0.1,0-0.1,0c-2,0-3.6-0.7-5-2.2c-1.6-1.6-2.4-3.7-2.4-6.1l0-1.4l0,0v0l0,0v-4v-11.3l0,0v-12v-9.7
			c0-10.7-6.6-15.6-15.8-15.6C1458.6,1372.8,1438.5,1373.2,1438.5,1392"/>
		<path class="st3" d="M1608.6,1313.1c-0.2-0.9-0.6-1.6-1.3-2.2c-1.9-1.6-4.4-1.7-6.2-0.2c-16,13.3-50.2,21-69.2,24.3l-7.4,1.3
			l1.3-7.8c0.5-3,1-6.4-1.3-8.4c-1.1-1-2.7-1.7-4.4-1.9l-0.4-0.1c-2.7-0.4-5.4,0.4-7.4,2.4c-1.2,1.2-2.2,3.6-2.5,5.2l-2.1,13
			l-0.5,0.1c-3,0.4-4.7,0.6-4.7,0.6c-7.2,0.7-12.7,0.1-16.8-0.3c-2.8-0.3-4.8-0.5-5.7,0c-1.9,0.9-2.4,1.5-3,3.2
			c-0.6,1.9-0.3,4.2,1,6.7c2.6,4.7,8,6.1,10.9,6.5c0.1,0,6.7,0.6,14.1-1.2c0.1,0,0.1,0,0.2,0c0.2,0,0.4,0.1,0.5,0.2
			c0.2,0.2,0.3,0.4,0.2,0.7l-0.9,5.4l-1.4,9.9l-0.5,6.1c-0.3,4.8-0.5,11.4-0.5,15.8c0,6,0.5,11.5,1.4,16.4
			c1.1,5.7,2.8,10.5,5.1,14.4c5.2,8.9,13.9,13.4,25.6,13.4c6.3,0,17.5-3.5,22.9-6.6c-0.4-0.3-0.9-0.5-1.4-0.7
			c-0.7-0.3-1.2-1-1.7-1.4c-2.5-2.1-6.8-5.8-8.2-9.9c-2.3,2.7-7.6,2.8-8.2,2.8c-6.3,0-11.6-2.6-14.2-6.9c-2.7-4.5-4-12.3-4-23.2
			c0-3.1,0.1-9.1,0.3-14.2c0.3-8.4,1.9-19,2.7-23.2l0-0.2l0.2,0c15.3-2.4,34.2-6.9,51.9-12.5c15.2-4.8,26.9-9.4,29.6-11.9
			C1607.7,1324.4,1609.8,1318.8,1608.6,1313.1"/>
		<g>
			<path class="st3" d="M1478.8,1502.6c-1.5-1.1-2.2-2.4-2.2-4.1c0-2,1.3-3.3,3.5-3.2c3.6,0.6,6.9,3.8,13.3,3.8
				c4.9,0,7.9-1.5,7.9-4.5c0-3.5-4.4-4.6-9.8-5.8c-6.8-1.5-13.9-4.1-13.9-12.2c0-6.9,5.9-11.4,15.8-11.4c4.7,0,9.1,1.2,11.7,2.9
				c1.6,0.9,2.5,2.2,2.5,3.6c0,3.1-2.5,3.9-5.2,3.2c-2.1-0.5-5-2.5-9.4-2.5c-4.1,0-6.8,0.8-6.8,4c0,3.4,4.2,4.2,10.1,5.5
				c6.4,1.4,13.6,3.5,13.6,11.9c0,6.2-4,12.3-16.7,12.3C1487.3,1506.2,1481.7,1504.8,1478.8,1502.6"/>
			<path class="st3" d="M1513.7,1485.7c0-11.9,7.7-20.4,20.7-20.4c4.5,0,8.5,1.1,10.8,2.8c1.3,1,2.2,2.3,2.2,4.1
				c0,1.8-1.3,3.5-3.6,3.5c-2.8,0-4.2-2.3-9.4-2.3c-7.3,0-11.6,5.4-11.6,12.5s4.2,12.5,11.8,12.5c5.2,0,6.7-2.3,9.4-2.3
				c2.3,0,3.6,1.6,3.6,3.5c0,1.7-0.9,3-2.3,3.9c-2.5,1.8-6.6,2.9-11.2,2.9C1521.4,1506.2,1513.7,1497.6,1513.7,1485.7"/>
			<path class="st3" d="M1553.3,1500.9v-31.1c0-2,1.2-3.9,3.6-3.9c2.5,0,3.5,1.3,3.5,3.1v3.4h0.2c2.1-3.8,6.2-6.9,10.8-7.1
				c2.8,0,4.1,1.9,4.1,4c0,2-1.2,4-4.1,4c-5.5,0.2-9.3,3.8-9.3,10.2l-0.1,17.3c0,2.5-1.3,4.7-4.3,4.7
				C1554.7,1505.6,1553.3,1503.4,1553.3,1500.9"/>
			<path class="st3" d="M1579.8,1500.9v-30.3c0-2.5,1.3-4.7,4.3-4.7c3.1,0,4.4,2.2,4.4,4.7v30.3c0,2.5-1.3,4.7-4.4,4.7
				C1581.1,1505.6,1579.8,1503.4,1579.8,1500.9"/>
			<path class="st3" d="M1604.9,1498.8h-0.2v3.2c0,1.8-1,3.6-3.5,3.6c-2.4,0-3.5-1.8-3.5-3.9v-50.6c0-2.5,1.4-4.6,4.4-4.6
				s4.3,2.2,4.3,4.6v19.6h0.2c2.2-2.9,7.2-5.4,12.3-5.4c11.1,0,18.2,8.2,18.2,20.3c0,11.8-6.9,20.7-18.3,20.7
				C1613,1506.2,1607.4,1503.5,1604.9,1498.8 M1628.1,1485.8c0-7.8-4.6-12.5-11-12.5c-6.9,0-11.2,4.6-11.2,12.3s4.2,12.6,11.1,12.6
				C1623.6,1498.3,1628.1,1493.4,1628.1,1485.8"/>
			<path class="st3" d="M1641.3,1485.6c0-12.3,8-20.3,19.2-20.3c11.6,0,18,7.3,18,17.9c0,3.6-1.2,5.5-4.9,5.5h-23.3
				c0,5.1,4,9.7,12.7,9.7c5.9,0,7.5-2.2,10.2-2.2c2.4,0,3.7,1.6,3.7,3.5c0,1.7-0.9,3-2.4,4c-2.5,1.6-6.9,2.6-11.4,2.6
				C1648.8,1506.2,1641.3,1498.1,1641.3,1485.6 M1669.6,1482.6c0.1-0.4,0.1-1.1,0.1-1.4c0-4.8-2.9-8.6-9.3-8.6
				c-5.8,0-10.1,4.4-10.1,9.9H1669.6z"/>
			<path class="st3" d="M1579.5,1458.6c0-2.8,1.9-4.4,4.7-4.4c2.7,0,4.6,1.7,4.6,4.4c0,2.7-1.8,4.6-4.6,4.6
				C1581.4,1463.2,1579.5,1461.3,1579.5,1458.6"/>
		</g>
	</g>
	<path class="st1" d="M1696.7,512.4c-51.3-3.9-143.6-19.1-195.7-25c-19.6-2.2-37,9.9-38.4,26.7c-6.3,79.8-9.9,159.9-13.3,240
		c16.2,6.9,33,12.4,50.5,14.4c8.4,1,18.4,2,22.6,9.4c3,5.3,1.7,12.3-1.9,17.2c-3.5,5-8.9,8.3-14.2,11.3c-12.1,6.7-25.1,12.1-38.8,14
		c-7,1-14.1,1.1-21.1,0c-0.8,18.6-1.7,37.1-2.6,55.6c-0.8,16.1,13.4,30.2,32.1,31.8c57.6,4.9,115.2,9.9,172.8,14.8
		c18.7,1.6,35.1-9.8,37.1-25.8l43.2-351C1731.2,529.2,1716.5,513.9,1696.7,512.4z"/>
	<g>
		<path class="st2" d="M1611.4,609c-0.2,0.5-0.4,1-0.7,1.4c-1.8,3-5.4,3.9-7.9,2.1c-13.8-9.6-25.9-12.6-35.9-9
			c-11.3,4-16.5,15.5-16.6,15.6c-1.4,3.2-4.8,4.7-7.6,3.5c-2.8-1.3-4-4.9-2.6-8.1c0.3-0.7,7.5-16.9,24-22.8
			c13.4-4.8,28.7-1.4,45.3,10.2C1611.6,603.4,1612.3,606.3,1611.4,609z"/>
	</g>
	<g>
		
			<ellipse id="Ellipse_21_2_" transform="matrix(0.9712 -0.2384 0.2384 0.9712 -102.3289 319.1482)" class="st4" cx="1268.4" cy="582.7" rx="104.2" ry="106.7"/>
		<g>
			<title>text size increase_2</title>
			<path class="st2" d="M1304.2,561.4c4.1-0.6,6.9-4.4,6.3-8.6l-2.2-14.9c-0.6-4.1-4.4-6.9-8.6-6.3l-74.3,11.2
				c-4.1,0.6-6.9,4.4-6.3,8.6l2.2,14.9c0.6,4.1,4.4,6.9,8.6,6.3s6.9-4.4,6.3-8.6l-1.1-7.4l22.3-3.4l10.8,71.2l-7.4,1.1
				c-4.1,0.6-6.9,4.4-6.3,8.6c0.6,4.1,4.4,6.9,8.6,6.3l29.7-4.5c4.1-0.6,6.9-4.4,6.3-8.6c-0.6-4.1-4.4-6.9-8.6-6.3l-7.4,1.1
				l-10.8-71.2l22.3-3.4l1.1,7.4C1296.3,559.2,1300.1,562,1304.2,561.4z"/>
		</g>
	</g>
	<path class="st4" d="M1354.1,402.2c-4.1,2.1-6.9,5.6-8.4,10.2s-1.3,8.9,0.7,13c1.9,3.7,4.9,6.5,9.1,8.2c4,1.8,8.7,0.4,12.2-1.4
		c1.9,5.2,2,11.9,0.9,16.8c-0.1,0.8-0.2,1.6-0.6,2.4c-0.4,1.2,0.4,2.4,1.5,2.9l8.9,3.2c1.2,0.4,2.7-0.3,3.1-1.6
		c1.1-3.9,1.8-8.1,2.2-12.7c1.1-11.9-0.8-22.3-5.5-31.2c-2.7-5.3-6.6-8.8-11.3-10.5C1362.7,399.9,1358.2,400.1,1354.1,402.2z"/>
	<path class="st4" d="M1408.3,387.3c-4.4,1.4-7.7,4.4-10,8.7c-2.2,4.3-2.8,8.6-1.4,13c1.3,3.9,3.8,7.2,7.7,9.6
		c3.7,2.4,8.5,1.8,12.3,0.7c1,5.5,0,12-1.9,16.7c-0.2,0.8-0.5,1.6-1,2.2c-0.6,1.2,0,2.4,1,3.1l8.2,4.6c1.2,0.6,2.7,0.1,3.3-1
		c1.7-3.7,3.1-7.7,4.3-12.2c3-11.6,2.8-22.1-0.3-31.7c-1.8-5.7-5-9.7-9.4-12.2C1417.2,386.4,1412.7,385.9,1408.3,387.3z"/>
	<g>
		<path class="st4" d="M1138.5,476.7l1.3-0.5l-0.1-0.3c-0.1-0.2-0.1-0.3-0.2-0.4c-0.1-0.2-0.3-0.4-0.5-0.7c-0.3-0.3-0.6-0.5-1-0.7
			l-0.3-0.3l-0.3,0c-0.2-0.1-0.5-0.1-0.9-0.2c-0.3,0-0.5,0-0.7,0l-0.3,0c-49,8.8-67.2,26.6-73.8,37.9l-2.3-5l-3.7,1.9
			c-12.2,6.1-16,21.6-16.2,22.2c-0.5,2.1,0.8,4.3,2.9,4.8c0.5,0.1,1,0.1,1.4,0.1c1.6-0.2,3-1.4,3.3-3c0-0.1,2.3-9.2,8.6-14.6
			l1.6,3.6c0.8,1.8,2.6,2.9,4.5,2.7c2-0.1,3.6-1.4,4.2-3.3c1.4-4.7,8.2-19.7,39.1-31.1c-32,22.8-46.1,55-52.2,79
			c-1.8,6.9-3.1,14-4.1,21.3c-6.1-5.8-13.9-16.6-11.9-33l8.5,8l5.7-5.1l-0.8-1c0-0.1-4.7-6.4-4.5-18.9c0-2.2-1.7-4-3.9-4
			c-1.1,0-2.1,0.4-2.8,1.1c-0.8,0.7-1.2,1.7-1.2,2.8c0,2.6,0.1,5.1,0.4,7.5l-5.9-5.6l-1.7,6.4c-8,29.3,10.3,46.1,17.1,51.2
			c-1.7,19-0.1,32.4,0.1,33.9c0.3,2.1,2.1,3.6,4.2,3.4l0.2,0c0.3,0,0.5-0.1,0.7-0.2c1.8-0.6,2.9-2.3,2.7-4.2c0-0.3-3.5-29,5-61.8
			c4.5-17.6,11.5-32.9,20.7-46l18.7,3.6l-4.7,14.7l-19.7,12.8c-1.6,1-2.3,3-1.8,4.8c0.5,1.8,2.1,3.2,4,3.3l12,0.7
			c-6.5,23-26.2,29.6-27.1,29.8c-2,0.7-3.2,2.9-2.6,4.9c0.6,1.8,2.4,3,4.3,2.7c0.2,0,0.4-0.1,0.7-0.1c0,0,0.1,0,0.2-0.1
			c2.5-0.8,27.6-9.8,33.4-40.2l0.8-4.4l-10.5-0.6l13.1-8.6l8.3-25.9l-3.2-0.6l4.7-1.8l0.6-1.7c0.7-2.1,3.1-8.6,4.9-11.3
			c1.2-1.8,0.6-4.3-1.2-5.5c-1.8-1.2-4.3-0.6-5.4,1.2l0,0c-1.9,2.9-3.9,8.1-5,11.2l-22.4,8.6c8.5-11.5,18.9-21.3,31.1-29.2
			c0,0.1-0.1,0.1-0.1,0.2c-0.9,2,0,4.3,2,5.2c0.7,0.3,1.4,0.4,2.1,0.3c1.4-0.2,2.5-1,3.1-2.2c0-0.1,3.6-7.1,16.7-15.5l0,0
			c0,0,0.1,0,0.1-0.1l0.3-0.2l0-0.1c0.1-0.1,0.2-0.1,0.3-0.2l0.3-0.3c0.3-0.4,0.6-0.9,0.7-1.3l0.1-0.4c0.1-0.2,0.1-0.5,0.1-0.7
			l-1.4,0l0,0l0,0l1.4-0.1c0-0.2,0-0.4-0.1-0.7c0-0.1-0.1-0.2-0.1-0.3L1138.5,476.7L1138.5,476.7z"/>
		<path class="st4" d="M1052.8,647.7c-1.7,2.4-4.5,4-7.3,4.4c-2.9,0.4-6-0.4-8.3-2.2c-0.8-0.6-1.6-1.4-2.3-2.1
			c-1.8-1.8-3.8-3.8-6.7-5c-4-1.6-8.8-1.3-13.3,1c-3.5,1.8-6.3,4.4-8.8,6.8c-1.8,1.7-1.9,4.7-0.2,6.5c1.7,1.8,4.7,1.9,6.5,0.2
			c2.1-2,4.3-4.1,6.6-5.3c2-1,4.2-1.3,5.6-0.7c1.2,0.5,2.4,1.7,3.8,3c1,1,2,2,3.1,2.8c4.3,3.3,9.8,4.8,15.2,4c0.2,0,0.5-0.1,0.7-0.1
			c5.1-0.9,9.7-3.8,12.8-8c1.5-2.1,1-4.9-1-6.4C1057.2,645.1,1054.3,645.6,1052.8,647.7z"/>
	</g>
	<path id="Tracé_309_3_" class="st1" d="M1359.7,728.7c-3.3,3.6-5.2,8.4-5.2,13.2c0,9.3,3.2,17.5,7.9,25.3c0.6,1.1-0.5,2.2-1.6,1.6
		c-15.9-9.3-31.8-15.7-50.1-19.4c-11.3-2.3-24.8-2.7-32.4,5.9c-5.5,7.2-4.6,9.2-0.7,17.3c4,7.9,11.7,13.6,18.9,18.6
		c18.4,14.4,41.7,24.6,64.7,20.7c23.9-3.6,37.7-15.8,37.1-39.9C1397.3,755.4,1384.1,702.2,1359.7,728.7z"/>
	<g>
		<path class="st4" d="M1108.6,396.6l16.5-85.6l-16.4,84.7C1108.6,396,1108.6,396.3,1108.6,396.6z"/>
		<polygon class="st4" points="1264.4,396.9 1278.4,326.6 1278,326.5 		"/>
		<path class="st4" d="M1107.9,400.5c0.1,1.9,1.8,3.7,4.1,4.2l31,6c13.6,2.6,25.6,9.9,33.1,20c1.5,2,4.5,2.7,6.8,1.7
			c0.2-0.1,0.3-0.2,0.5-0.2c10.7-6.6,24.6-8.9,38.2-6.2l30.9,6c2.7,0.5,5.2-0.9,5.7-3.1l4.5-23l11.2-57.9l0.3,0.1l1.6-8l-0.3-0.1
			l2.2-11.4l0.2-4.1c-0.6-1.5-2-2.7-3.9-3l-16-3.1l2.1-10.6c0.4-2.2-1.4-4.4-4.1-4.9l-10.6-2.1c-19.1-3.8-38,3-46.8,16.8
			c-8.9-8.7-20.9-14.9-34-17.4l-30.9-6c-2.7-0.5-5.2,0.9-5.7,3.1l-0.8,3.9l-1.9,9.6l0,0l-3.8,19.2L1107.9,400.5z M1240.8,407
			l15.7-80.7l11.2,2.1l-18.3,94.6l-26.1-5.1c-11.7-2.3-23.7-1.5-34.4,2.1c7.2-10,21.4-14.8,35.7-11.9l10.6,2.1
			C1237.8,410.6,1240.4,409.2,1240.8,407z M1205.3,325.7c0.4-1,0.9-2.1,1.4-3.1c6.6-11.3,21.7-17,37-14l5.8,1.1l-17.7,91.2l-5.8-1.1
			c-13-2.6-26.3-0.3-36.4,6.3L1205.3,325.7z M1136.8,303.1l26.1,5.1c13,2.5,24.5,9.3,32.1,18.7l-17.8,91.9
			c-8.8-8-20.2-13.7-32.6-16.1l-26.1-5.1L1136.8,303.1z"/>
		<path class="st4" d="M1145.9,336.1L1145.9,336.1l8,1.6c7.1,1.4,13.8,4.4,19.6,8.8c2.2,1.7,5.3,1.3,7-0.9c1.7-2.2,1.3-5.3-0.9-7
			c-7-5.3-15.1-9-23.7-10.7l-8.1-1.6c-2.7-0.5-5.3,1.2-5.8,3.9C1141.4,332.9,1143.2,335.6,1145.9,336.1z"/>
		<path class="st4" d="M1141.7,357.5L1141.7,357.5l8,1.6c7.1,1.4,13.8,4.4,19.6,8.8c2.2,1.7,5.3,1.3,7-0.9c1.7-2.2,1.3-5.3-0.9-7
			c-7-5.3-15.1-9-23.7-10.7l-8.1-1.6c-2.7-0.5-5.3,1.2-5.8,3.9C1137.3,354.4,1139,357,1141.7,357.5z"/>
		<path class="st4" d="M1137.6,378.9L1137.6,378.9l8,1.6c7.1,1.4,13.8,4.4,19.6,8.8c2.2,1.7,5.3,1.3,7-0.9c1.7-2.2,1.3-5.3-0.9-7
			c-7-5.3-15.1-9-23.7-10.7l-8.1-1.6c-2.7-0.5-5.3,1.2-5.8,3.9C1133.1,375.8,1134.9,378.4,1137.6,378.9z"/>
	</g>
</g>
</svg>
