<?xml version="1.0" encoding="utf-8"?>
<!-- Generator: Adobe Illustrator 24.2.0, SVG Export Plug-In . SVG Version: 6.00 Build 0)  -->
<svg version="1.1" id="Layer_1" xmlns="http://www.w3.org/2000/svg" xmlns:xlink="http://www.w3.org/1999/xlink" x="0px" y="0px"
	 viewBox="0 0 2880 1800" style="enable-background:new 0 0 2880 1800;" xml:space="preserve">
<style type="text/css">
	.st0{opacity:0.19;fill:#E31963;}
	.st1{fill:#E31963;}
	.st2{fill:#FFFFFF;}
	.st3{fill-rule:evenodd;clip-rule:evenodd;fill:#A6145F;}
	.st4{fill:#A6145F;}
	.st5{fill:#A6145F;stroke:#A6145F;stroke-width:5.1668;stroke-miterlimit:10;}
</style>
<g>
	<path id="Tracé_191_1_" class="st0" d="M1784.9,901.7c7-9,12.4-16.8,17-30c19.2-55.7,1.8-81.6-71-100.9
		c-80.6-21.4-237,64-299.2-84.4c-62.2-148.3-441,150.1-200.5,261.5C1458.2,1053.1,1732,970.4,1784.9,901.7z"/>
	<g>
		<path class="st1" d="M1580.5,1371.6c-0.5-18.8-14.4-34.2-33-36.6c-2-0.3-4-0.4-6-0.3c-3.7,0.1-7.4,0.8-11,1.9
			c-16,5.3-26.4,20.2-26,37.1c0.3,10.1,4.5,19.6,11.9,26.6c7.1,6.7,16.3,10.4,26.1,10.4c0.4,0,0.7,0,1.1,0
			c13.2-0.4,25.1-7.4,31.7-18.8c2.9-5,4.7-10.5,5.1-16.3C1580.5,1374.3,1580.5,1372.9,1580.5,1371.6 M1566.1,1372
			c0.2,5.8-1.8,11.4-5.5,15.8c-4.4,5.2-10.7,8.3-17.4,8.5c-13,0.3-23.9-10-24.3-23c-0.2-9,4.6-17.2,12.5-21.5
			c3.3-1.8,6.8-2.7,10.4-2.8c0.2,0,0.4,0,0.6,0c2.3,0,4.6,0.3,6.8,1c9.2,2.8,15.9,11.1,16.7,20.6l0,0.4
			C1566.1,1371.3,1566.1,1371.7,1566.1,1372"/>
		<path class="st1" d="M1642.1,1371.6c-0.5-18.8-14.4-34.2-33-36.6c-2-0.3-4-0.4-6-0.3c-3.7,0.1-7.4,0.8-11,1.9
			c-16,5.3-26.4,20.2-26,37.1c0.3,10.1,4.5,19.6,11.9,26.6c7.1,6.7,16.3,10.4,26.1,10.4c0.4,0,0.7,0,1.1,0
			c13.2-0.4,25-7.4,31.7-18.8c2.9-5,4.7-10.5,5.1-16.3C1642.1,1374.3,1642.1,1372.9,1642.1,1371.6 M1627.8,1372
			c0.2,5.8-1.8,11.4-5.5,15.8c-4.4,5.2-10.7,8.3-17.4,8.5c-13,0.3-23.9-10-24.3-23c-0.2-9,4.6-17.2,12.5-21.5
			c3.3-1.8,6.8-2.7,10.4-2.8c0.2,0,0.4,0,0.6,0c2.3,0,4.6,0.3,6.8,1c9.2,2.8,15.9,11.1,16.7,20.6l0,0.4
			C1627.7,1371.3,1627.8,1371.7,1627.8,1372"/>
		<path class="st1" d="M1300.1,1398c0.6-3,0.1-5.8-1.5-7.8c-1.5-1.8-3.8-2.8-6.8-2.9h0c0,0-0.1,0-0.1,0c-3.2,0-6.2,1.8-8,5
			c-0.5,0.9-2.9,2.6-5.3,2.9c-6.2,0.6-11.6-0.6-16-3.3l-0.2-0.1l0,0c-5.3-3.5-8.8-9.3-9.6-16.1c-0.1-0.7-0.1-1.4-0.1-2l0-0.3
			c0-0.2,0-0.4,0-0.6c0-0.2,0-0.4,0-0.6l0-0.3c0-0.6,0.1-1.3,0.1-2c0.8-6.8,4.3-12.6,9.6-16.1l0,0l0.2-0.2c4.4-2.8,9.8-3.9,16-3.3
			c2.3,0.2,4.8,2,5.3,2.9c1.8,3.1,4.8,5,8,5h0.1c3,0,5.3-1,6.8-2.9c1.5-1.9,2.1-4.8,1.5-7.8c-0.4-1.7-1.3-3.3-2.9-4.6
			c-5.9-5-13.7-7.7-22.1-7.7c-2.2,0-4.4,0.2-6.6,0.6c-11.4,1.9-21.4,8.4-26.8,17.5c-3.8,5.8-5.7,12.5-5.6,19.6
			c-0.1,7,1.8,13.8,5.6,19.6c5.4,9.1,15.4,15.6,26.8,17.5c10.8,1.8,21.3-0.8,28.7-7.2C1298.7,1401.3,1299.7,1399.7,1300.1,1398"/>
		<path class="st1" d="M1378.7,1410.3c3,0.1,5.3-0.7,6.9-2.2c1.4-1.4,2.2-3.3,2.2-5.7c0-2.7-1.3-4.9-4-7.1c-4-2.4-4.6-4-4.6-11.1
			v-42.1c0-3.4-2.6-7-7.3-7c-4.7,0-6.4,3.6-6.4,7v1.5l-0.4-0.3c-5.4-4.4-11.9-7.2-18.9-8.1c-1.6-0.2-3.3-0.3-4.9-0.3
			c-0.3,0-0.7,0-1,0c-3.7,0.1-7.4,0.7-10.9,1.9c-15.9,5.3-26.3,20.1-25.8,36.9c0.3,10.1,4.5,19.5,11.8,26.4
			c7,6.7,16.3,10.3,25.9,10.3c0.4,0,0.7,0,1.1,0c8.9-0.2,17.4-3.6,24-9.5l0.3-0.2l0.1,0.3C1368.7,1406.7,1373,1410,1378.7,1410.3
			 M1359.1,1387.7c-4.3,5.1-10.6,8.2-17.2,8.3c-0.2,0-0.4,0-0.6,0c-12.6,0-23-10-23.3-22.7c-0.2-8.9,4.5-17,12.4-21.2
			c3.2-1.7,6.7-2.6,10.3-2.7c0.2,0,0.4,0,0.6,0c2.3,0,4.5,0.3,6.7,1c9.1,2.7,15.7,10.9,16.5,20.3l0,0.4c0,0.3,0.1,0.6,0.1,1
			C1364.7,1377.8,1362.7,1383.3,1359.1,1387.7"/>
		<path class="st1" d="M1410.3,1368.7l0,24.2v10.4v0.1c0,3.7-2.9,7.3-7.3,7.2c-1.9,0-3.3-0.7-4.7-2.1c-1.5-1.5-2.3-3.5-2.3-5.7
			l0-0.5l0.1-0.1l-0.1,0v-4.9v-10.6V1361l0,0c0-7.1-0.6-8.6-4.6-11.1c-2.7-2.1-4-4.4-4-7.1c0-2.3,0.7-4.3,2.1-5.7
			c1.6-1.5,3.9-2.3,6.9-2.2c1.3,0.1,2.5,0.3,3.6,0.7c3.9,1.2,6.9,4.1,8.5,8.5l0.1,0.3l0.3-0.2c0,0,0.8-0.6,1.8-1.4
			c0.6-0.4,1.2-0.9,1.9-1.3c0,0,0,0,0,0c0.3-0.2,0.5-0.3,0.8-0.5l0,0.1c12-7.3,20.2-6.4,20.2-6.4c5.3,0,10,1.3,13.9,3.9
			c3.9,2.6,6.9,6.2,9,10.6c2,4.4,3.1,9.3,3.1,14.6v27.2h0l0,1.3h0v4.5v5.9v0.1c0,0.5-0.1,1-0.2,1.5c-0.6,3.2-3.3,6-7.2,5.9
			c0,0-0.1,0-0.1,0c0,0-0.1,0-0.1,0c-1.9,0-3.4-0.7-4.8-2.1c-1.6-1.6-2.3-3.6-2.3-5.9l0-1.4l0,0v0l0,0v-3.9v-10.9l0,0v-11.6v-9.3
			c0-10.3-6.4-15.1-15.3-15.1C1429.7,1350.1,1410.3,1350.5,1410.3,1368.7"/>
		<path class="st1" d="M1574.6,1292.5c-0.2-0.8-0.6-1.6-1.3-2.1c-1.8-1.6-4.2-1.6-6-0.2c-15.5,12.9-48.5,20.2-66.8,23.5l-7.1,1.3
			l1.2-7.5c0.5-2.9,1-6.2-1.2-8.1c-1.1-0.9-2.6-1.6-4.3-1.9l-0.4-0.1c-2.6-0.4-5.2,0.4-7.2,2.3c-1.2,1.1-2.2,3.5-2.4,5.1l-2,12.5
			l-0.5,0.1c-2.9,0.4-4.5,0.6-4.5,0.6c-7,0.7-12.3,0.1-16.2-0.2c-2.7-0.3-4.6-0.5-5.5,0c-1.8,0.9-2.3,1.4-2.9,3.1
			c-0.6,1.9-0.3,4,1,6.5c2.5,4.5,7.7,5.9,10.5,6.3c0.1,0,6.5,0.6,13.7-1.1c0.1,0,0.1,0,0.2,0c0.2,0,0.4,0.1,0.5,0.2
			c0.2,0.2,0.3,0.4,0.2,0.6l-0.8,5.2l-1.4,9.5l-0.5,5.8c-0.3,4.7-0.5,11-0.5,15.3c0,5.8,0.4,11.1,1.3,15.8c1,5.5,2.7,10.2,4.9,13.9
			c5.1,8.6,13.4,13,24.7,13c6.1,0,16.9-3.4,22.1-6.4c-0.4-0.3-0.9-0.5-1.4-0.7c-0.6-0.3-1.2-1-1.6-1.4c-2.4-2.1-6.6-5.6-7.9-9.6
			c-2.2,2.6-7.3,2.7-7.9,2.7c-6.1,0-11.2-2.5-13.7-6.7c-2.6-4.3-3.9-11.9-3.9-22.4c0-3,0.1-8.8,0.3-13.7c0.2-8.1,1.9-18.4,2.6-22.4
			l0-0.2l0.2,0c14.7-2.3,33-6.7,50.2-12c14.7-4.6,25.9-9.1,28.6-11.5C1573.7,1303.4,1575.7,1298,1574.6,1292.5"/>
		<g>
			<path class="st1" d="M1449.2,1475.5c-1.4-1-2.2-2.3-2.2-3.9c0-1.9,1.3-3.2,3.4-3.1c3.5,0.6,6.6,3.6,12.8,3.6
				c4.7,0,7.7-1.4,7.7-4.3c0-3.4-4.2-4.5-9.5-5.6c-6.5-1.4-13.4-3.9-13.4-11.8c0-6.7,5.7-11,15.3-11c4.5,0,8.8,1.2,11.3,2.8
				c1.6,0.9,2.5,2.2,2.5,3.5c0,3-2.4,3.8-5.1,3.1c-2-0.5-4.8-2.4-9.1-2.4c-3.9,0-6.5,0.8-6.5,3.9c0,3.3,4,4.1,9.7,5.3
				c6.2,1.3,13.1,3.4,13.1,11.5c0,6-3.9,11.9-16.1,11.9C1457.4,1479,1452,1477.6,1449.2,1475.5"/>
			<path class="st1" d="M1482.9,1459.2c0-11.5,7.4-19.7,20-19.7c4.3,0,8.2,1,10.4,2.7c1.3,1,2.1,2.2,2.1,3.9c0,1.8-1.3,3.3-3.5,3.3
				c-2.7,0-4.1-2.2-9.1-2.2c-7.1,0-11.2,5.2-11.2,12.1c0,6.8,4,12.1,11.4,12.1c5,0,6.5-2.2,9.1-2.2c2.2,0,3.5,1.6,3.5,3.3
				c0,1.6-0.8,2.9-2.2,3.8c-2.4,1.7-6.4,2.8-10.8,2.8C1490.4,1479,1482.9,1470.6,1482.9,1459.2"/>
			<path class="st1" d="M1521.2,1473.8v-30.1c0-1.9,1.1-3.7,3.5-3.7c2.4,0,3.4,1.3,3.4,3v3.3h0.2c2-3.6,6-6.7,10.4-6.8
				c2.7,0,3.9,1.9,3.9,3.9c0,1.9-1.2,3.9-3.9,3.9c-5.4,0.2-9,3.6-9,9.9l-0.1,16.7c0,2.4-1.3,4.5-4.2,4.5
				C1522.5,1478.4,1521.2,1476.2,1521.2,1473.8"/>
			<path class="st1" d="M1546.7,1473.8v-29.2c0-2.4,1.3-4.5,4.2-4.5c3,0,4.2,2.2,4.2,4.5v29.2c0,2.4-1.3,4.5-4.2,4.5
				C1548,1478.4,1546.7,1476.2,1546.7,1473.8"/>
			<path class="st1" d="M1571,1471.8h-0.1v3.1c0,1.7-1,3.5-3.4,3.5c-2.3,0-3.4-1.8-3.4-3.7v-48.9c0-2.4,1.3-4.5,4.2-4.5
				c2.9,0,4.2,2.1,4.2,4.5v18.9h0.1c2.2-2.8,6.9-5.2,11.9-5.2c10.7,0,17.6,8,17.6,19.6c0,11.4-6.7,19.9-17.6,19.9
				C1578.8,1479,1573.4,1476.4,1571,1471.8 M1593.4,1459.2c0-7.5-4.5-12.1-10.6-12.1c-6.7,0-10.9,4.5-10.9,11.9s4,12.2,10.7,12.2
				C1589.1,1471.3,1593.4,1466.6,1593.4,1459.2"/>
			<path class="st1" d="M1606.2,1459c0-11.8,7.7-19.6,18.5-19.6c11.2,0,17.4,7.1,17.4,17.3c0,3.5-1.2,5.3-4.8,5.3h-22.5
				c0,4.9,3.9,9.4,12.3,9.4c5.7,0,7.2-2.2,9.8-2.2c2.3,0,3.6,1.6,3.6,3.3c0,1.6-0.9,2.9-2.3,3.9c-2.4,1.6-6.6,2.5-11,2.5
				C1613.4,1479,1606.2,1471.1,1606.2,1459 M1633.5,1456.2c0.1-0.4,0.1-1,0.1-1.3c0-4.6-2.8-8.3-9-8.3c-5.6,0-9.7,4.2-9.7,9.6
				H1633.5z"/>
			<path class="st1" d="M1546.5,1433c0-2.7,1.8-4.3,4.5-4.3c2.6,0,4.4,1.6,4.4,4.3c0,2.6-1.7,4.4-4.4,4.4
				C1548.3,1437.4,1546.5,1435.6,1546.5,1433"/>
		</g>
	</g>
	<g id="Groupe_163_2_" transform="matrix(0.998, -0.07, 0.07, 0.998, -529.649, -81.47)">
		<path id="Tracé_294_2_" class="st1" d="M1995.5,974.2c-5.3-4.3-10.1-9.2-14.3-14.7c-3.7-4.3-5.2-10.1-3.9-15.6
			c2.1-4.5,8.3-5.9,14.7-5.2c6.7,1.1,13.4,2.5,20,4.3c12.2,3,24.9,2.6,36.9-1.2c5.9-2.6,11.2-6.5,15.4-11.4
			c6.9-42.9,7.1-82.9,1.2-111.3c-15.5-75.4-72.3-121.5-148.3-114.9c-58.1,5-126.2,41.8-182.6,97.6c-20.9,20.7-28.4,71.1-2.4,84.8
			c30.6,16.2,68.8,54,48.6,131.8c-33.2,127.5,98.1,119.7,162.4,104.5c29.7-6.9,55.5-25.1,71.9-50.7c11.9-20.2,21.7-41.5,29.4-63.7
			C2027.1,998.9,2010.6,987.4,1995.5,974.2z"/>
		<g id="Groupe_162_2_" transform="translate(584.482 151.699)">
			<path id="Tracé_295_2_" class="st2" d="M1308.2,728.9c0.4,0.3,0.8,0.6,1.2,0.8c2.6,1.5,5.9,0.7,7.5-1.9c0-0.1,0.1-0.2,0.1-0.2
				c6.9-14.6,15.5-22.9,25.6-24.9c7.4-1.1,15,0.6,21.2,4.7c2.4,2,6,1.6,8-0.9c0,0,0,0,0,0c1.7-2.6,1-6.2-1.7-7.9c0,0,0,0,0,0
				c-9-6.1-20-8.6-30.8-6.9c-13.5,2.6-24.5,12.9-32.8,30.4C1305.5,724.5,1306.1,727.3,1308.2,728.9z"/>
		</g>
	</g>
	<path class="st3" d="M1960.7,642.4l6.6-14.4l-0.2,0.1c0.5-0.5,0.9-1,1.2-1.6c2.8-5.6,5.6-10.5,8.3-15.8c1.1-2.1,3-4,5.4-4.3
		c5.8-0.8,9.5-10.1,3.8-14.1c-6.3-5-14.6,4.5-10,11.4c-20.4,23.4-36.4,9.4-34.4-13.3c0.2-2.7,2-4.7,4.3-6.1c5.1-3.1,6-12.2-0.5-14.4
		c-6.4-2.2-11.6,6.1-8.7,11.7c1.2,2.4,0.7,5.4-0.8,7.6c-11.9,18-31.2,19.7-34.9-7c-0.3-2.2,0.9-4.2,2.5-5.6c4.8-4.3,3.2-13.5-4-13.5
		c-6.8-0.2-9.7,9.4-5.6,13.5c1.8,1.8,2.2,4.5,1.8,6.9l-1.9,11.6l-4.3,23.2l0,0c-0.7,3.6,1.3,7.1,4.8,8.3l57.9,19.5
		C1955.4,647.3,1959.1,645.7,1960.7,642.4z M1960.8,630.2c0.1,0,0.3,0.1,0.4,0.1l-0.2,0.1L1960.8,630.2z"/>
	<g>
		
			<ellipse id="Ellipse_21_1_" transform="matrix(0.9712 -0.2384 0.2384 0.9712 -94.0093 432.1161)" class="st4" cx="1739.6" cy="604.8" rx="99.3" ry="101.7"/>
		<g>
			<g>
				<path class="st2" d="M1793.3,564.9l-58.5-26.8c-3.3-1.5-7.3-0.1-8.8,3.2l-4.8,10.4c-1.5,3.3-0.1,7.2,3.2,8.7l-2.8,6.2
					c-1.8,3.9-1.7,8.3,0.2,12.1l11.7,23.2l-24.5,5.7c-4.2,1-7.7,3.8-9.5,7.7l-3.2,6.9l-0.2-0.1c-3.3-1.5-7.3-0.1-8.8,3.2l-4.8,10.4
					c-1.5,3.3,0,7.3,3.3,8.8l58.4,26.8c3.3,1.5,7.3,0.1,8.8-3.2l4.8-10.4c1.5-3.2,0-7-3-8.6l3.2-6.9c1.8-3.9,1.7-8.6-0.4-12.4
					l-12-22.4l25.1-6.3c4.1-1,7.5-3.8,9.3-7.7l2.8-6.2c3.3,1.5,7.2,0,8.7-3.2l4.8-10.4C1798.1,570.3,1796.6,566.4,1793.3,564.9z
					 M1748.5,637.8c0.7,1.8,0.5,4-0.4,5.9l-4.1,8.4l-43.1-20.8l4.1-8.5c0.9-1.9,2.6-3.4,4.4-4l28.4-9.2L1748.5,637.8z M1774.8,585.5
					c-0.9,1.9-2.4,3.4-4.2,4l-28.8,10.4l-10.9-28.6c-0.7-1.8-0.6-3.9,0.3-5.8l3.5-7.6l43.5,19.9L1774.8,585.5z"/>
			</g>
		</g>
	</g>
	<g>
		<path class="st4" d="M1230.1,329.6v2.4"/>
	</g>
	<g>
		<path class="st5" d="M1694.2,377.6c2.6-1.1,3.9-4.1,2.8-6.7l-3.8-9.3c-1.3-3.1-4.8-4.6-8-3.4l-46.6,19c-2.1,0.9-3.5,2.7-3.6,4.9
			c-0.1,2.2,1.1,4.2,3.1,5.2l33.6,17.8l-12.6,33.1c-0.8,2.2-0.4,4.5,1.2,6c1.6,1.6,3.9,2,6.1,1.1l46.6-19c3.1-1.3,4.6-4.8,3.4-8
			l-4.5-11.1c-1.1-2.6-4.1-3.9-6.7-2.8c-2.6,1.1-3.9,4.1-2.8,6.7l2.9,7.2l-32.6,13.3l10-26.3c1.1-2.9-0.1-6.2-2.9-7.7l-27.9-14.8
			l33.4-13.6l2.2,5.4C1688.6,377.4,1691.6,378.6,1694.2,377.6z"/>
	</g>
	<path class="st1" d="M1805.2,1252.8H1073c-48.1,0-87.1-39-87.1-87.1v0c0-48.1,39-87.1,87.1-87.1h732.2c48.1,0,87.1,39,87.1,87.1v0
		C1892.3,1213.7,1853.3,1252.8,1805.2,1252.8z"/>
	<g>
		<g>
			<path class="st2" d="M1154.2,1123.5c1.6,1.6,2.4,3.7,2.4,6.4v63.8c0,2.7-0.8,4.8-2.4,6.4c-1.6,1.6-3.7,2.4-6.4,2.4
				s-4.8-0.8-6.3-2.4c-1.5-1.6-2.3-3.8-2.3-6.5v-25.5h-36.9v25.5c0,2.7-0.8,4.8-2.4,6.4c-1.6,1.6-3.7,2.4-6.3,2.4
				c-2.6,0-4.8-0.8-6.4-2.4c-1.6-1.6-2.4-3.8-2.4-6.5v-63.8c0-2.6,0.8-4.8,2.4-6.4s3.7-2.4,6.4-2.4c2.7,0,4.8,0.8,6.3,2.4
				c1.6,1.6,2.3,3.7,2.3,6.4v24.2h36.9v-24.2c0-2.6,0.8-4.8,2.3-6.4c1.6-1.6,3.7-2.4,6.3-2.4S1152.6,1121.9,1154.2,1123.5z"/>
			<path class="st2" d="M1172.6,1133.4c-1.7-1.6-2.6-3.7-2.6-6.3c0-2.7,0.9-4.7,2.6-6.3c1.7-1.5,4.1-2.3,7.2-2.3
				c3,0,5.3,0.8,7.1,2.3c1.8,1.6,2.7,3.6,2.7,6.2c0,2.6-0.9,4.8-2.6,6.3c-1.7,1.5-4.1,2.3-7.2,2.3
				C1176.8,1135.7,1174.4,1135,1172.6,1133.4z M1173.6,1200.4c-1.6-1.4-2.4-3.4-2.4-6v-41.5c0-2.7,0.8-4.7,2.5-6
				c1.7-1.4,3.7-2,6.1-2c2.4,0,4.4,0.7,6.1,2c1.6,1.4,2.4,3.4,2.4,6v41.5c0,2.7-0.8,4.7-2.4,6c-1.6,1.4-3.7,2-6.1,2
				C1177.3,1202.5,1175.2,1201.8,1173.6,1200.4z"/>
			<path class="st2" d="M1210.6,1201.6c-3.4-0.8-6.4-2-9-3.6c-1.1-0.7-2-1.6-2.6-2.7c-0.6-1.1-0.9-2.4-0.9-3.9
				c0-1.7,0.5-3.2,1.5-4.4s2.2-1.8,3.6-1.8c1,0,2,0.2,3,0.5c1,0.3,2,0.7,3.1,1.2c2.1,1,4.2,1.8,6.3,2.3c2.1,0.6,4.6,0.9,7.6,0.9
				c2.7,0,4.7-0.4,6.2-1.3c1.5-0.8,2.2-2,2.2-3.4c0-1.1-0.3-1.9-1-2.6c-0.6-0.6-1.8-1.2-3.6-1.8s-4.5-1.2-8.3-1.9
				c-6.7-1.3-11.6-3.2-14.6-5.8c-3-2.6-4.4-6.2-4.4-10.8c0-3.4,1-6.5,3.1-9.2c2.1-2.7,4.9-4.9,8.6-6.4c3.6-1.5,7.7-2.3,12.3-2.3
				c3.3,0,6.4,0.4,9.5,1.3c3.1,0.8,5.9,2,8.3,3.5c2.3,1.4,3.5,3.6,3.5,6.4c0,1.8-0.5,3.3-1.5,4.5c-1,1.2-2.2,1.8-3.6,1.8
				c-1.7,0-3.8-0.7-6.3-2c-1.9-1-3.6-1.7-5.2-2.2c-1.6-0.5-3.4-0.7-5.5-0.7c-2.3,0-4.2,0.4-5.6,1.3c-1.4,0.9-2,2.1-2,3.6
				c0,1.6,0.8,2.8,2.4,3.6c1.6,0.8,4.7,1.7,9.2,2.5c5.1,1,9.1,2.2,11.9,3.6c2.9,1.4,5,3.2,6.3,5.3c1.3,2.1,1.9,4.8,1.9,8.1
				c0,5.4-2.2,9.7-6.7,12.9c-4.4,3.2-10.4,4.8-17.8,4.8C1218,1202.7,1214,1202.3,1210.6,1201.6z"/>
			<path class="st2" d="M1292.3,1191.7c1.1,1,1.6,2.4,1.6,4.3c0,2.2-0.9,3.9-2.6,5c-1.7,1.1-4.2,1.6-7.5,1.4l-3.2-0.2
				c-13.3-1.1-19.9-8-19.9-20.8v-22.5h-4.5c-2.5,0-4.4-0.5-5.7-1.7c-1.3-1.1-1.9-2.7-1.9-4.7c0-2.1,0.6-3.7,1.9-4.8
				c1.3-1.1,3.2-1.6,5.7-1.6h4.5v-8.9c0-2.5,0.8-4.5,2.3-5.9c1.6-1.4,3.7-2.2,6.3-2.2c2.7,0,4.7,0.7,6.3,2.2
				c1.5,1.4,2.3,3.4,2.3,5.9v8.9h8c5.2,0,7.7,2.2,7.7,6.5c0,2-0.6,3.6-1.9,4.7c-1.3,1.1-3.2,1.7-5.8,1.7h-8v23.7
				c0,2.3,0.5,4,1.6,5.2c1.1,1.2,2.6,1.8,4.7,2l3.2,0.2C1289.6,1190.1,1291.3,1190.7,1292.3,1191.7z"/>
			<path class="st2" d="M1311.5,1199.1c-4.5-2.4-7.9-5.8-10.3-10.1c-2.4-4.4-3.6-9.5-3.6-15.4c0-5.9,1.2-11,3.6-15.4
				c2.4-4.4,5.9-7.7,10.3-10.1c4.5-2.3,9.7-3.5,15.6-3.5s11.1,1.2,15.6,3.5c4.5,2.3,7.9,5.7,10.3,10.1c2.4,4.4,3.6,9.5,3.6,15.4
				c0,5.9-1.2,11.1-3.6,15.4c-2.4,4.4-5.9,7.7-10.3,10.1c-4.5,2.4-9.7,3.6-15.6,3.6S1316,1201.5,1311.5,1199.1z M1339.6,1173.6
				c0-5.4-1.1-9.4-3.2-12c-2.2-2.6-5.2-4-9.3-4c-8.3,0-12.5,5.3-12.5,16c0,10.7,4.2,16,12.5,16
				C1335.4,1189.6,1339.6,1184.3,1339.6,1173.6z"/>
			<path class="st2" d="M1368.6,1133.4c-1.7-1.6-2.6-3.7-2.6-6.3c0-2.7,0.9-4.7,2.6-6.3c1.7-1.5,4.1-2.3,7.2-2.3
				c3,0,5.3,0.8,7.1,2.3c1.8,1.6,2.7,3.6,2.7,6.2c0,2.6-0.9,4.8-2.6,6.3c-1.7,1.5-4.1,2.3-7.2,2.3S1370.3,1135,1368.6,1133.4z
				 M1369.6,1200.4c-1.6-1.4-2.4-3.4-2.4-6v-41.5c0-2.7,0.8-4.7,2.5-6c1.7-1.4,3.7-2,6.1-2c2.4,0,4.5,0.7,6.1,2
				c1.6,1.4,2.4,3.4,2.4,6v41.5c0,2.7-0.8,4.7-2.4,6c-1.6,1.4-3.7,2-6.1,2C1373.3,1202.5,1371.2,1201.8,1369.6,1200.4z"/>
			<path class="st2" d="M1436.2,1146.4c1.3,1.2,2,2.9,2,5.3c0,2.5-0.6,4.4-1.8,5.6c-1.2,1.2-3.4,2-6.5,2.3l-3.4,0.3
				c-4.2,0.4-7.2,1.8-9,4.1c-1.9,2.3-2.8,5.2-2.8,8.7v21.7c0,2.7-0.8,4.7-2.4,6c-1.6,1.4-3.7,2-6.1,2c-2.5,0-4.6-0.7-6.2-2
				c-1.6-1.4-2.4-3.4-2.4-6v-41.7c0-2.5,0.8-4.4,2.5-5.8c1.7-1.4,3.7-2,6-2c2.3,0,4.2,0.7,5.7,2c1.5,1.3,2.3,3.2,2.3,5.5v3.1
				c1.4-3.3,3.4-5.8,6.2-7.5c2.8-1.7,5.8-2.7,9-3l1.6-0.1C1433,1144.7,1434.8,1145.2,1436.2,1146.4z"/>
			<path class="st2" d="M1490.4,1187c1,1.2,1.4,2.8,1.4,4.7c0,1.3-0.4,2.5-1.1,3.6c-0.8,1.1-1.8,2-3.2,2.8c-2.6,1.4-5.6,2.5-9,3.4
				c-3.4,0.9-6.6,1.3-9.4,1.3c-6.1,0-11.3-1.2-15.9-3.5s-8-5.7-10.4-10.1c-2.4-4.4-3.6-9.5-3.6-15.4c0-5.7,1.2-10.7,3.5-15.1
				c2.3-4.4,5.6-7.8,9.8-10.3c4.2-2.5,8.9-3.7,14.2-3.7c5.1,0,9.5,1.1,13.4,3.3c3.8,2.2,6.8,5.4,8.9,9.5c2.1,4.1,3.2,9,3.2,14.5
				c0,1.7-0.4,2.9-1.2,3.8c-0.8,0.9-1.9,1.3-3.3,1.3h-31.8c0.5,4.5,1.9,7.7,4.1,9.7c2.2,2,5.3,3,9.4,3c2.2,0,4.2-0.3,5.9-0.8
				c1.7-0.5,3.7-1.3,5.8-2.2c1.1-0.4,2.1-0.9,3.1-1.2c1-0.3,1.9-0.5,2.6-0.5C1488.2,1185.2,1489.4,1185.8,1490.4,1187z
				 M1459.3,1159.6c-2,2.1-3.1,5.1-3.5,9h21.9c-0.2-4-1.2-7-3-9.1c-1.8-2.1-4.3-3.1-7.6-3.1
				C1463.9,1156.4,1461.3,1157.5,1459.3,1159.6z"/>
			<path class="st2" d="M1519.4,1171.3c0-4.5,2.7-6.7,8.1-6.7h22.3c5.4,0,8.1,2.2,8.1,6.7c0,4.5-2.7,6.7-8.1,6.7h-22.3
				C1522.1,1178,1519.4,1175.8,1519.4,1171.3z"/>
			<path class="st2" d="M1654.3,1159.3c1.3,1.2,1.9,2.8,1.9,4.8v22.2c0,3-0.2,5.4-0.7,7c-0.5,1.7-1.3,3-2.6,4c-1.2,1-3,1.8-5.5,2.5
				c-3,0.9-6.4,1.6-10.2,2.2c-3.8,0.5-7.5,0.8-10.9,0.8c-8.5,0-15.8-1.6-22.1-4.9c-6.2-3.3-11-8-14.3-14.2c-3.3-6.2-5-13.5-5-22
				c0-8.3,1.6-15.6,4.9-21.8c3.3-6.2,8-10.9,14.1-14.3c6.1-3.3,13.3-5,21.5-5c10.5,0,19.2,2.7,26.1,8.2c1.1,0.9,1.9,1.8,2.4,2.7
				c0.4,0.9,0.7,2,0.7,3.4c0,2-0.5,3.7-1.6,5.1c-1.1,1.4-2.4,2.1-3.9,2.1c-1,0-1.9-0.2-2.7-0.4c-0.8-0.3-1.8-0.8-2.9-1.5
				c-3.2-2-6.1-3.4-8.8-4.2c-2.6-0.8-5.6-1.3-8.7-1.3c-15.5,0-23.2,9-23.2,26.9c0,9.2,2,16.1,6,20.7c4,4.5,10.1,6.8,18.2,6.8
				c4.4,0,8.8-0.6,13.1-1.7v-17.6h-10.5c-2.2,0-3.9-0.5-5.1-1.6c-1.2-1.1-1.8-2.6-1.8-4.5c0-2,0.6-3.5,1.8-4.5
				c1.2-1.1,2.9-1.6,5.1-1.6h19.4C1651.4,1157.6,1653.1,1158.2,1654.3,1159.3z"/>
			<path class="st2" d="M1718.3,1187c0.9,1.2,1.4,2.8,1.4,4.7c0,1.3-0.4,2.5-1.1,3.6c-0.8,1.1-1.8,2-3.2,2.8c-2.6,1.4-5.6,2.5-9,3.4
				c-3.4,0.9-6.6,1.3-9.4,1.3c-6.1,0-11.4-1.2-15.9-3.5c-4.5-2.3-8-5.7-10.4-10.1c-2.4-4.4-3.6-9.5-3.6-15.4
				c0-5.7,1.2-10.7,3.5-15.1c2.3-4.4,5.6-7.8,9.8-10.3c4.2-2.5,8.9-3.7,14.2-3.7c5.1,0,9.5,1.1,13.4,3.3c3.8,2.2,6.8,5.4,8.9,9.5
				c2.1,4.1,3.2,9,3.2,14.5c0,1.7-0.4,2.9-1.2,3.8c-0.8,0.9-1.9,1.3-3.4,1.3h-31.8c0.5,4.5,1.9,7.7,4.1,9.7c2.2,2,5.3,3,9.4,3
				c2.2,0,4.2-0.3,5.9-0.8s3.7-1.3,5.8-2.2c1.1-0.4,2.1-0.9,3.1-1.2c1-0.3,1.9-0.5,2.6-0.5C1716.1,1185.2,1717.3,1185.8,1718.3,1187
				z M1687.2,1159.6c-2,2.1-3.1,5.1-3.5,9h21.9c-0.2-4-1.2-7-3-9.1c-1.8-2.1-4.3-3.1-7.6-3.1
				C1691.8,1156.4,1689.2,1157.5,1687.2,1159.6z M1694.9,1139.3c-1.2,0-2.2-0.4-3.1-1.3c-0.8-0.8-1.3-1.8-1.3-3c0-1,0.3-2,1-3
				l9.8-13.1c1.9-2.6,4.2-3.9,6.8-3.9c1.9,0,3.6,0.7,5,2.1c1.4,1.4,2.2,3,2.2,4.8c0,2.3-1.2,4.3-3.6,6.1l-13.9,10.1
				C1697,1138.9,1696,1139.3,1694.9,1139.3z"/>
			<path class="st2" d="M1741.6,1199.1c-4.5-2.4-7.9-5.8-10.3-10.1c-2.4-4.4-3.6-9.5-3.6-15.4c0-5.9,1.2-11,3.6-15.4
				c2.4-4.4,5.9-7.7,10.3-10.1c4.5-2.3,9.7-3.5,15.6-3.5c5.9,0,11.1,1.2,15.6,3.5c4.5,2.3,7.9,5.7,10.3,10.1
				c2.4,4.4,3.6,9.5,3.6,15.4c0,5.9-1.2,11.1-3.6,15.4c-2.4,4.4-5.9,7.7-10.3,10.1c-4.5,2.4-9.7,3.6-15.6,3.6
				C1751.3,1202.7,1746.1,1201.5,1741.6,1199.1z M1769.7,1173.6c0-5.4-1.1-9.4-3.2-12c-2.2-2.6-5.3-4-9.3-4c-8.3,0-12.5,5.3-12.5,16
				c0,10.7,4.2,16,12.5,16C1765.6,1189.6,1769.7,1184.3,1769.7,1173.6z"/>
		</g>
	</g>
	<path id="Tracé_309_4_" class="st1" d="M1669.4,746.9c4,2.4,7.1,6.3,8.4,10.8c2.6,8.6,1.9,17.1-0.3,25.6c-0.3,1.2,1.1,1.9,1.9,1
		c12.1-13,25.1-23.3,41-31.7c9.8-5.2,22.2-9.4,31.6-3.5c7,5.1,6.8,7.3,5.4,15.9c-1.5,8.4-7.1,15.8-12.4,22.5
		c-13,18.3-31.8,34.2-54.2,37c-23.1,3.2-39.3-4.2-45.3-26.8C1642,781.9,1639.6,729.1,1669.4,746.9z"/>
	<g>
		<title>School</title>
		<g>
			<path class="st4" d="M1826.5,466.2c0.1,0,0.1,0,0.2,0c5,1.2,10.1,1.8,15.3,1.7l1.1,11.2c-2.3,0.1-4.6,0.1-7,0
				c-2.1-0.1-3.8,1.4-4,3.5c-0.1,2.1,1.4,3.8,3.5,4c2.7,0.2,5.4,0.2,8.2,0l0.7,7.4c0.2,2.1,2,3.6,4.1,3.4c0,0,0,0,0,0
				c0.7-0.1,1.3-0.3,1.8-0.7c1.1-0.8,1.7-2.1,1.6-3.4l-0.7-7.5c10.5-1.6,20.6-5.4,29.6-11.1l4.9,6.9l-14.3,16.9
				c-3.3,3.9-3.6,9.6-0.6,13.8l1,1.3c3.6,5,10.7,6.2,15.7,2.6l36.6-26.2c5-3.6,6.2-10.7,2.6-15.7l-1-1.3c-3-4.2-8.5-5.8-13.3-3.9
				l-20.6,8.2l-5-6.9c32.4-25.7,37.8-72.9,12.1-105.3c-15-18.9-38.2-29.4-62.3-28.3l-0.7-7.4c-0.2-2.1-2-3.6-4.1-3.4
				c-2.1,0.2-3.6,2-3.4,4.1l0,0l0.7,7.4c-2.4,0.4-4.8,0.8-7.2,1.4c-2,0.5-3.2,2.5-2.7,4.5c0.5,2,2.5,3.2,4.5,2.7c0,0,0,0,0,0
				c2-0.5,4.1-0.9,6.1-1.2l1.1,11.3c-8.5,1.4-16.6,4.7-23.6,9.7l0,0l0,0c-24,17.2-30.5,50.1-15.1,75.2l0,0l0,0
				c0.7,1.1,1.3,2.2,2.1,3.3C1802.3,455.3,1813.6,463,1826.5,466.2z M1852.7,364.6c0.3,2,0.2,4.1-0.3,6.1c-3.4,2.4-2.8,6.5-2.4,8.9
				c0.1,0.6,0.2,1.3,0.2,1.9c-2.5,1.7-4.1,2.6-9.2-0.1c-3.1-1.8-6.7-2.4-10.2-1.7c-1.9,0.5-3.9,0.1-5.5-0.9
				c-3.9-2.3-7.3-5.3-10.2-8.8C1826.4,363.2,1840,361.2,1852.7,364.6z M1809,374.3c3.6,4.4,7.9,8.2,12.8,11.1
				c3.1,1.8,6.7,2.4,10.2,1.7c1.9-0.5,3.9-0.1,5.5,0.9c8.7,4.6,13.2,2.3,17.5-0.7c3.4-2.4,2.8-6.5,2.4-8.9c-0.1-0.6-0.2-1.3-0.2-1.9
				c2.3-2.5,3.4-5.8,3.2-9.1c24.5,11.1,35.4,39.9,24.4,64.4c-9,19.9-30.1,31.4-51.6,28.1c0.4-1.1,0.6-2.3,0.8-3.5
				c0.5-2.6,0.7-3.8,2.5-5c2.6-1.8,4.8-4.3,6.1-7.2c0.8-1.9,2.2-3.5,3.9-4.6c8-5.7,8.9-13.3,5.6-17.9s-10.7-6.1-18.8-0.4
				c-1.7,1.2-3.3,2.6-4.8,4c-4.8,4.2-9.7,8.6-15.9,7.6c-5.2-0.9-10.5-0.5-15.5,1.3C1786.5,413.9,1791.5,389,1809,374.3z
				 M1845.9,426.1c1.1,1.5,0,4.6-3.9,7.4c-2.6,1.8-4.8,4.3-6.1,7.2c-0.8,1.9-2.2,3.5-3.9,4.6c-3.2,2.3-5.2,5.9-5.5,9.8
				c-0.1,1.1-0.4,2.1-0.8,3.1c-9.8-3-18.5-9.1-24.6-17.4c3.3-0.9,6.8-1.1,10.2-0.5c9.8,1.6,16.9-4.8,22.1-9.4
				c1.5-1.3,2.9-2.6,4.2-3.5C1841.6,424.6,1844.9,424.6,1845.9,426.1z M1919.6,477.4l1,1.3c1.2,1.7,0.8,4-0.9,5.2l-36.6,26.2
				c-1.7,1.2-4,0.8-5.2-0.9l-1-1.3c-1-1.4-0.9-3.3,0.2-4.6l15.6-18.4l22.4-8.9C1916.8,475.5,1918.6,476,1919.6,477.4L1919.6,477.4z
				 M1837.4,344.3c37.2-1.6,68.7,27.2,70.4,64.5c1.5,34.4-23.2,64.5-57.3,69.7l-1.1-11.2c30.6-5,51.4-33.8,46.4-64.4
				c-3.4-21-18.4-38.3-38.7-44.6c0,0-0.1,0-0.1,0c-6-1.9-12.2-2.8-18.5-2.6L1837.4,344.3z"/>
			<path class="st4" d="M1821.5,411.3c4.8-3.8,5.9-10.6,2.6-15.7c-8.1-11.3-13.3-13.5-20.1-8.7c-9.1,6.6-4.5,13-0.4,18.8
				C1810.8,415.8,1817.3,414.3,1821.5,411.3z M1818,400c0.9,1.7,0.6,3.9-0.9,5.2c-1.3,0.9-3,2.2-7.4-3.9c-4.4-6.1-4.4-6.1-1.3-8.3
				C1810,391.9,1811.4,390.8,1818,400z"/>
			<path class="st4" d="M1861.5,425.6c0.4,3.9,1.1,9.7,6.9,10.7c2.3,0.4,4.6-0.1,6.5-1.5c3.6-3.4,6.3-7.8,7.6-12.7l-3.5-1.3
				l-3.5-1.3c-0.9,2.4-3.7,9.8-5.7,9.5c-0.5-1.4-0.8-2.8-0.8-4.2c-0.1-3.1-1-6.1-2.5-8.7c-1.3-1.6-1.6-3.9-0.6-5.8
				c0.2-0.3,0.4-0.6,0.7-0.8c0.3-0.2,0.6-0.3,1-0.3c1.8,0.3,6.7,1.1,8.3,3.8c0.8,2.1,0.7,4.4-0.3,6.4l3.5,1.3l3.5,1.3
				c1.9-4.1,1.8-8.8-0.2-12.8c-3.4-5.8-10.8-7-13.6-7.5c-3.7-0.6-7.4,1.2-9.3,4.5c-2.6,4.4-2.3,10,0.8,14.1
				C1861.1,422,1861.5,423.8,1861.5,425.6z"/>
		</g>
	</g>
</g>
</svg>
