<?xml version="1.0" encoding="utf-8"?>
<!-- Generator: Adobe Illustrator 24.2.0, SVG Export Plug-In . SVG Version: 6.00 Build 0)  -->
<svg version="1.1" id="Layer_1" xmlns="http://www.w3.org/2000/svg" xmlns:xlink="http://www.w3.org/1999/xlink" x="0px" y="0px"
	 viewBox="0 0 2880 1800" style="enable-background:new 0 0 2880 1800;" xml:space="preserve">
<style type="text/css">
	.st0{fill:#0A2FCC;stroke:#0A2FCC;stroke-width:1.4311;stroke-miterlimit:10;}
	.st1{opacity:0.21;fill:#2B75FF;}
	.st2{fill:#2B75FF;}
	.st3{fill:#FFFFFF;}
	.st4{fill:#0A2FCC;}
</style>
<g>
	<path class="st0" d="M1349.8,490l-25.4-12.8l-1.6-0.8c0,0,7.7-1,12.6-10.7c2.2-4.5,2.6-8.3,2.6-8.3l2.2,1.1l7.2,3.6
		c0.9,0.5,1.8,0,2.2-0.8l3.5-6.9c0.5-0.9,0-1.9-0.7-2.2l-13-6.5l-1.1-0.5l0-1.4c0.2-3.6,0.9-6.3,2.1-8.7c3.8-7.6,10.3-7.9,15-5.5
		c4.3,2.2,6.2,6.1,5.4,10.9c-0.2,0.8,0.2,1.5,0.9,1.8l9.4,4.7c0.5,0.3,1,0.3,1.5,0.1s0.8-0.7,1-1.1c1.7-7.5,2.5-21.1-11.8-28.3
		c-22.6-11.3-32.9,8.4-33.3,9.1c-1.5,3-2.2,5.7-2.2,8.9l0,3.2l-2.9-1.5l-1.6-0.8c-0.9-0.5-1.8,0-2.2,0.8l-3.5,6.9
		c-0.5,0.9,0,1.9,0.7,2.2l9.2,4.6l1.3,0.6l-0.3,1.5c-0.3,2.4-1.2,4.5-2.3,6.8c-3.6,7.1-13.1,9-18.5,7.5c-0.2-0.1-0.2-0.1-0.4-0.2
		c-0.8-0.2-1.6,0.1-2,0.9l-3.6,7.1c-0.5,0.9,0,1.9,0.7,2.2l44.4,22.3c0.9,0.5,1.8,0,2.2-0.8l3.3-6.5
		C1350.8,491.5,1350.7,490.5,1349.8,490z"/>
	<path id="Tracé_191_2_" class="st1" d="M1850.6,818.9c4.4-10.5,7.7-19.3,8.8-33.2c4.5-58.5-18.8-79.1-93.8-79.5
		c-83.1-0.4-212.5,121.2-309.7-6.3c-97.2-127.5-387.6,255.5-127.8,302.6C1573.5,1047,1816.8,898.4,1850.6,818.9z"/>
	<path class="st2" d="M1922.1,1248.6h-893.3c-48,0-86.8-38.9-86.8-86.8v0c0-48,38.9-86.8,86.8-86.8h893.3c48,0,86.8,38.9,86.8,86.8
		v0C2009,1209.7,1970.1,1248.6,1922.1,1248.6z"/>
	<g>
		<g>
			<path class="st3" d="M1028.2,1195.6c-1.4-1.4-2.2-3.5-2.2-6.1v-63.4c0-2.6,0.8-4.8,2.4-6.3c1.6-1.6,3.7-2.4,6.5-2.4
				c2.7,0,4.9,0.8,6.5,2.4c1.6,1.6,2.4,3.7,2.4,6.3v57.3h29c5.5,0,8.3,2.4,8.3,7.2c0,4.8-2.8,7.1-8.3,7.1h-38.4
				C1031.7,1197.8,1029.7,1197.1,1028.2,1195.6z"/>
			<path class="st3" d="M1131.7,1146.8c3.9,4,5.9,10,5.9,18.2v25.6c0,2.5-0.7,4.4-2.2,5.8c-1.4,1.4-3.4,2.1-6,2.1
				c-2.4,0-4.4-0.7-5.8-2.2c-1.5-1.5-2.2-3.4-2.2-5.7v-0.8c-1.1,2.8-3,5-5.7,6.6c-2.6,1.6-5.7,2.4-9.3,2.4c-3.8,0-7.2-0.8-10.3-2.3
				c-3.1-1.5-5.5-3.6-7.3-6.3c-1.8-2.7-2.7-5.7-2.7-9.1c0-4.1,1-7.3,3.1-9.6c2.1-2.3,5.4-4,10-5.1c4.6-1.1,10.9-1.6,18.9-1.6h3v-2
				c0-3.2-0.7-5.5-2.1-6.9c-1.4-1.4-3.7-2.2-7-2.2c-3.2,0-7.9,1.1-14.1,3.4c-1.7,0.8-3.2,1.2-4.4,1.2c-1.7,0-3-0.6-4-1.8
				c-1-1.2-1.5-2.7-1.5-4.6c0-1.5,0.3-2.8,1-3.7c0.7-1,1.8-1.9,3.3-2.7c2.6-1.4,5.9-2.6,9.7-3.4c3.8-0.8,7.6-1.2,11.3-1.2
				C1121.7,1140.8,1127.7,1142.8,1131.7,1146.8z M1118.2,1183.6c2-2.2,3.1-5.1,3.1-8.7v-1.9h-1.9c-6.1,0-10.4,0.5-12.9,1.5
				c-2.5,1-3.7,2.8-3.7,5.3c0,2.1,0.7,3.8,2.1,5.2c1.4,1.3,3.1,2,5.3,2C1113.5,1186.9,1116.1,1185.8,1118.2,1183.6z"/>
			<path class="st3" d="M1200.1,1146.6c3.3,3.9,4.9,9.8,4.9,17.6v26.2c0,2.5-0.8,4.5-2.3,5.9c-1.6,1.4-3.7,2.2-6.3,2.2
				c-2.6,0-4.7-0.7-6.2-2.2c-1.5-1.4-2.3-3.4-2.3-5.9V1165c0-3.8-0.7-6.5-2.1-8.3c-1.4-1.7-3.6-2.6-6.5-2.6c-3.6,0-6.4,1.1-8.6,3.4
				c-2.2,2.3-3.2,5.3-3.2,9.1v23.8c0,2.5-0.8,4.5-2.3,5.9c-1.5,1.4-3.6,2.2-6.2,2.2c-2.6,0-4.7-0.7-6.3-2.2
				c-1.6-1.4-2.3-3.4-2.3-5.9v-41.6c0-2.3,0.8-4.2,2.4-5.7c1.6-1.4,3.7-2.1,6.3-2.1c2.3,0,4.3,0.7,5.7,2.1c1.5,1.4,2.2,3.2,2.2,5.4
				v1.6c2-3,4.5-5.3,7.6-6.9c3.1-1.6,6.7-2.4,10.6-2.4C1191.9,1140.8,1196.8,1142.8,1200.1,1146.6z"/>
			<path class="st3" d="M1272.2,1143.2c1.5,1.5,2.3,3.4,2.3,5.8v42.7c0,9-2.6,15.8-7.8,20.4c-5.2,4.6-12.9,6.9-22.9,6.9
				c-8.5,0-15.4-1.5-20.8-4.5c-1.4-0.8-2.4-1.7-3.2-2.8c-0.8-1.1-1.1-2.3-1.1-3.7c0-1.9,0.4-3.4,1.4-4.6c0.9-1.2,2.1-1.8,3.6-1.8
				c0.8,0,1.8,0.2,3,0.5c1.1,0.3,2.3,0.7,3.5,1.2c2.4,0.9,4.6,1.6,6.7,2.1c2,0.5,4.2,0.8,6.6,0.8c4.8,0,8.4-1.1,10.8-3.3
				c2.3-2.2,3.5-5.5,3.5-10v-6.1c-1.6,2.9-4,5.1-7.1,6.8c-3.2,1.7-6.7,2.5-10.6,2.5c-4.8,0-9.1-1.1-12.9-3.4
				c-3.7-2.3-6.7-5.5-8.8-9.7c-2.1-4.2-3.2-9-3.2-14.6s1.1-10.4,3.2-14.6c2.1-4.2,5-7.4,8.8-9.7c3.7-2.3,8-3.5,12.9-3.5
				c3.8,0,7.3,0.8,10.5,2.4c3.1,1.6,5.5,3.9,7.2,6.7v-1.1c0-2.4,0.8-4.3,2.3-5.7c1.5-1.4,3.6-2.1,6.2-2.1
				C1268.6,1141,1270.6,1141.8,1272.2,1143.2z M1254.2,1179.3c2.2-2.6,3.3-6.2,3.3-10.8c0-4.6-1.1-8.2-3.3-10.8
				c-2.2-2.6-5.3-3.9-9.4-3.9s-7.1,1.3-9.4,3.9c-2.3,2.6-3.4,6.2-3.4,10.8c0,4.6,1.1,8.2,3.4,10.8c2.3,2.6,5.4,3.8,9.4,3.8
				S1252,1181.9,1254.2,1179.3z"/>
			<path class="st3" d="M1338.9,1143.2c1.5,1.4,2.3,3.4,2.3,5.9v41.6c0,2.4-0.8,4.2-2.4,5.7c-1.6,1.4-3.7,2.2-6.3,2.2
				c-2.4,0-4.4-0.7-5.8-2c-1.4-1.4-2.1-3.2-2.1-5.4v-1.1c-1.7,2.9-4,5.1-6.9,6.6c-2.8,1.5-6,2.3-9.6,2.3c-7,0-12.3-1.9-15.7-5.8
				c-3.4-3.9-5.2-9.8-5.2-17.6v-26.2c0-2.5,0.8-4.5,2.3-5.9c1.5-1.4,3.6-2.1,6.3-2.1c2.6,0,4.7,0.7,6.2,2.1c1.5,1.4,2.3,3.4,2.3,5.9
				v26.5c0,3.3,0.7,5.8,2.1,7.4c1.4,1.6,3.5,2.4,6.4,2.4c3.3,0,6-1.1,8.1-3.4c2.1-2.3,3.1-5.2,3.1-8.9v-23.9c0-2.5,0.8-4.5,2.3-5.9
				c1.5-1.4,3.6-2.1,6.2-2.1C1335.3,1141,1337.4,1141.7,1338.9,1143.2z"/>
			<path class="st3" d="M1402.7,1183.1c0.9,1.2,1.4,2.8,1.4,4.6c0,1.3-0.4,2.5-1.1,3.6c-0.8,1.1-1.8,2-3.2,2.8
				c-2.6,1.4-5.5,2.5-8.9,3.3c-3.4,0.9-6.5,1.3-9.4,1.3c-6,0-11.3-1.2-15.8-3.5c-4.5-2.3-7.9-5.7-10.4-10s-3.6-9.5-3.6-15.3
				c0-5.7,1.2-10.7,3.5-15.1c2.3-4.4,5.6-7.8,9.7-10.3c4.2-2.4,8.9-3.7,14.2-3.7c5.1,0,9.5,1.1,13.3,3.3c3.8,2.2,6.8,5.4,8.9,9.5
				c2.1,4.1,3.2,8.9,3.2,14.4c0,1.7-0.4,2.9-1.2,3.8c-0.8,0.9-1.9,1.3-3.3,1.3h-31.7c0.5,4.5,1.9,7.7,4.1,9.7c2.2,2,5.3,3,9.4,3
				c2.2,0,4.2-0.3,5.9-0.8c1.7-0.5,3.7-1.2,5.8-2.2c1.1-0.4,2.1-0.9,3.1-1.2c1-0.3,1.8-0.5,2.6-0.5
				C1400.5,1181.3,1401.8,1181.9,1402.7,1183.1z M1371.7,1155.7c-2,2.1-3.1,5.1-3.5,9h21.9c-0.2-4-1.2-7-3-9.1
				c-1.8-2-4.3-3.1-7.5-3.1C1376.3,1152.6,1373.7,1153.6,1371.7,1155.7z"/>
			<path class="st3" d="M1423.8,1197.6c-3.4-0.8-6.4-2-8.9-3.6c-1.1-0.7-2-1.6-2.6-2.7c-0.6-1.1-0.9-2.4-0.9-3.8
				c0-1.7,0.5-3.2,1.5-4.4c1-1.2,2.2-1.7,3.6-1.7c1,0,2,0.2,2.9,0.5c1,0.3,2,0.7,3.1,1.2c2.1,1,4.2,1.8,6.2,2.3
				c2,0.6,4.6,0.9,7.6,0.9c2.6,0,4.7-0.4,6.2-1.2c1.5-0.8,2.2-2,2.2-3.4c0-1.1-0.3-1.9-1-2.5c-0.6-0.6-1.8-1.2-3.6-1.8
				s-4.5-1.2-8.3-1.9c-6.7-1.3-11.6-3.2-14.5-5.8c-2.9-2.6-4.4-6.1-4.4-10.8c0-3.4,1-6.5,3.1-9.2c2.1-2.7,4.9-4.8,8.6-6.4
				c3.6-1.5,7.7-2.3,12.2-2.3c3.2,0,6.4,0.4,9.5,1.2c3.1,0.8,5.9,2,8.3,3.5c2.3,1.4,3.5,3.6,3.5,6.3c0,1.8-0.5,3.3-1.5,4.5
				c-1,1.2-2.2,1.8-3.6,1.8c-1.7,0-3.8-0.7-6.2-2c-1.9-1-3.6-1.7-5.2-2.2c-1.6-0.5-3.4-0.7-5.5-0.7c-2.3,0-4.2,0.4-5.5,1.3
				c-1.4,0.9-2,2.1-2,3.6c0,1.6,0.8,2.8,2.4,3.6c1.6,0.8,4.6,1.7,9.2,2.5c5.1,1,9,2.2,11.9,3.6c2.9,1.4,4.9,3.2,6.2,5.3
				c1.3,2.1,1.9,4.8,1.9,8c0,5.4-2.2,9.6-6.6,12.8c-4.4,3.2-10.3,4.8-17.7,4.8C1431.2,1198.7,1427.2,1198.3,1423.8,1197.6z"/>
			<path class="st3" d="M1542.5,1142.3c1.2-0.8,2.6-1.2,4-1.2c2.1,0,4,0.7,5.7,2.1c1.7,1.4,2.5,3.1,2.5,5c0,1.1-0.3,2.2-0.8,3.3
				l-20.4,41.8c-0.8,1.7-1.9,2.9-3.4,3.8c-1.5,0.9-3.1,1.3-4.9,1.3c-1.7,0-3.4-0.4-4.9-1.3c-1.5-0.9-2.7-2.1-3.5-3.8l-20.4-41.8
				c-0.5-1.1-0.7-2.1-0.7-3.1c0-2,0.9-3.8,2.7-5.2c1.8-1.4,3.8-2.2,5.9-2.2c1.6,0,3,0.4,4.3,1.2c1.3,0.8,2.3,2,3.1,3.6l13.9,30.5
				l13.8-30.5C1540.3,1144.3,1541.2,1143.1,1542.5,1142.3z"/>
			<path class="st3" d="M1565.8,1129.7c-1.7-1.6-2.6-3.7-2.6-6.3c0-2.6,0.9-4.7,2.6-6.2c1.7-1.5,4.1-2.3,7.1-2.3
				c2.9,0,5.3,0.8,7.1,2.3c1.8,1.6,2.7,3.6,2.7,6.2c0,2.6-0.9,4.7-2.6,6.3c-1.7,1.5-4.1,2.3-7.1,2.3S1567.5,1131.2,1565.8,1129.7z
				 M1566.7,1196.4c-1.6-1.4-2.4-3.4-2.4-6v-41.4c0-2.6,0.8-4.6,2.5-6c1.7-1.4,3.7-2,6.1-2s4.4,0.7,6.1,2c1.6,1.4,2.4,3.4,2.4,6
				v41.4c0,2.6-0.8,4.6-2.4,6c-1.6,1.4-3.6,2-6.1,2C1570.4,1198.5,1568.4,1197.8,1566.7,1196.4z"/>
			<path class="st3" d="M1635.5,1142.3c1.2-0.8,2.6-1.2,4-1.2c2.1,0,4,0.7,5.7,2.1c1.7,1.4,2.5,3.1,2.5,5c0,1.1-0.3,2.2-0.8,3.3
				l-20.4,41.8c-0.8,1.7-1.9,2.9-3.4,3.8c-1.5,0.9-3.1,1.3-4.9,1.3c-1.7,0-3.4-0.4-4.9-1.3c-1.5-0.9-2.7-2.1-3.5-3.8l-20.4-41.8
				c-0.5-1.1-0.7-2.1-0.7-3.1c0-2,0.9-3.8,2.7-5.2c1.8-1.4,3.8-2.2,5.9-2.2c1.6,0,3,0.4,4.3,1.2c1.3,0.8,2.3,2,3.1,3.6l13.9,30.5
				l13.8-30.5C1633.3,1144.3,1634.3,1143.1,1635.5,1142.3z"/>
			<path class="st3" d="M1697.6,1146.8c3.9,4,5.9,10,5.9,18.2v25.6c0,2.5-0.7,4.4-2.2,5.8c-1.4,1.4-3.4,2.1-6,2.1
				c-2.4,0-4.4-0.7-5.8-2.2c-1.5-1.5-2.2-3.4-2.2-5.7v-0.8c-1.1,2.8-3,5-5.7,6.6c-2.6,1.6-5.7,2.4-9.3,2.4c-3.8,0-7.2-0.8-10.2-2.3
				s-5.5-3.6-7.3-6.3c-1.8-2.7-2.7-5.7-2.7-9.1c0-4.1,1-7.3,3.1-9.6c2.1-2.3,5.4-4,10-5.1c4.6-1.1,10.9-1.6,18.9-1.6h2.9v-2
				c0-3.2-0.7-5.5-2.1-6.9c-1.4-1.4-3.7-2.2-7-2.2c-3.2,0-7.9,1.1-14.1,3.4c-1.7,0.8-3.2,1.2-4.4,1.2c-1.7,0-3-0.6-4-1.8
				c-1-1.2-1.5-2.7-1.5-4.6c0-1.5,0.3-2.8,1-3.7c0.7-1,1.8-1.9,3.3-2.7c2.6-1.4,5.9-2.6,9.7-3.4c3.8-0.8,7.6-1.2,11.3-1.2
				C1687.7,1140.8,1693.7,1142.8,1697.6,1146.8z M1684.2,1183.6c2-2.2,3.1-5.1,3.1-8.7v-1.9h-1.9c-6.1,0-10.4,0.5-12.9,1.5
				c-2.5,1-3.7,2.8-3.7,5.3c0,2.1,0.7,3.8,2.1,5.2c1.4,1.3,3.1,2,5.3,2C1679.4,1186.9,1682.1,1185.8,1684.2,1183.6z"/>
			<path class="st3" d="M1766.1,1146.6c3.2,3.9,4.9,9.8,4.9,17.6v26.2c0,2.5-0.8,4.5-2.3,5.9c-1.6,1.4-3.6,2.2-6.3,2.2
				c-2.6,0-4.7-0.7-6.2-2.2c-1.5-1.4-2.3-3.4-2.3-5.9V1165c0-3.8-0.7-6.5-2.1-8.3c-1.4-1.7-3.6-2.6-6.5-2.6c-3.6,0-6.4,1.1-8.6,3.4
				c-2.2,2.3-3.2,5.3-3.2,9.1v23.8c0,2.5-0.8,4.5-2.3,5.9c-1.5,1.4-3.6,2.2-6.2,2.2c-2.6,0-4.7-0.7-6.3-2.2
				c-1.5-1.4-2.3-3.4-2.3-5.9v-41.6c0-2.3,0.8-4.2,2.4-5.7c1.6-1.4,3.7-2.1,6.3-2.1c2.3,0,4.3,0.7,5.7,2.1c1.5,1.4,2.2,3.2,2.2,5.4
				v1.6c2-3,4.5-5.3,7.7-6.9c3.1-1.6,6.7-2.4,10.6-2.4C1757.9,1140.8,1762.8,1142.8,1766.1,1146.6z"/>
			<path class="st3" d="M1819.6,1187.7c1.1,1,1.6,2.4,1.6,4.3c0,2.2-0.9,3.8-2.6,5c-1.7,1.1-4.2,1.6-7.5,1.4l-3.2-0.2
				c-13.2-1.1-19.8-8-19.8-20.7V1155h-4.5c-2.5,0-4.4-0.5-5.7-1.7c-1.3-1.1-1.9-2.7-1.9-4.7c0-2.1,0.6-3.7,1.9-4.8
				c1.3-1.1,3.2-1.6,5.7-1.6h4.5v-8.8c0-2.5,0.8-4.5,2.3-5.9c1.6-1.4,3.6-2.2,6.3-2.2s4.7,0.7,6.2,2.2c1.5,1.4,2.3,3.4,2.3,5.9v8.8
				h7.9c5.1,0,7.7,2.2,7.7,6.5c0,2-0.6,3.6-1.9,4.7c-1.3,1.1-3.2,1.7-5.8,1.7h-7.9v23.7c0,2.3,0.5,4,1.6,5.2c1,1.2,2.6,1.8,4.6,2
				l3.2,0.2C1816.9,1186.2,1818.6,1186.7,1819.6,1187.7z"/>
			<path class="st3" d="M1875.9,1183.1c0.9,1.2,1.4,2.8,1.4,4.6c0,1.3-0.4,2.5-1.1,3.6c-0.8,1.1-1.8,2-3.2,2.8
				c-2.6,1.4-5.5,2.5-8.9,3.3c-3.4,0.9-6.5,1.3-9.4,1.3c-6,0-11.3-1.2-15.8-3.5c-4.5-2.3-7.9-5.7-10.4-10s-3.6-9.5-3.6-15.3
				c0-5.7,1.2-10.7,3.5-15.1c2.3-4.4,5.6-7.8,9.7-10.3c4.2-2.4,8.9-3.7,14.2-3.7c5.1,0,9.5,1.1,13.3,3.3c3.8,2.2,6.8,5.4,8.9,9.5
				c2.1,4.1,3.2,8.9,3.2,14.4c0,1.7-0.4,2.9-1.2,3.8c-0.8,0.9-1.9,1.3-3.3,1.3h-31.7c0.5,4.5,1.9,7.7,4.1,9.7c2.2,2,5.3,3,9.4,3
				c2.2,0,4.2-0.3,5.9-0.8c1.7-0.5,3.7-1.2,5.8-2.2c1.1-0.4,2.1-0.9,3.1-1.2c1-0.3,1.8-0.5,2.6-0.5
				C1873.7,1181.3,1875,1181.9,1875.9,1183.1z M1844.9,1155.7c-2,2.1-3.1,5.1-3.5,9h21.9c-0.2-4-1.2-7-3-9.1c-1.8-2-4.3-3.1-7.5-3.1
				C1849.5,1152.6,1846.9,1153.6,1844.9,1155.7z"/>
			<path class="st3" d="M1897,1197.6c-3.4-0.8-6.4-2-8.9-3.6c-1.1-0.7-2-1.6-2.6-2.7c-0.6-1.1-0.9-2.4-0.9-3.8
				c0-1.7,0.5-3.2,1.5-4.4c1-1.2,2.2-1.7,3.6-1.7c1,0,2,0.2,2.9,0.5c1,0.3,2,0.7,3.1,1.2c2.1,1,4.2,1.8,6.2,2.3
				c2,0.6,4.6,0.9,7.6,0.9c2.6,0,4.7-0.4,6.2-1.2c1.5-0.8,2.2-2,2.2-3.4c0-1.1-0.3-1.9-1-2.5c-0.6-0.6-1.8-1.2-3.6-1.8
				s-4.5-1.2-8.3-1.9c-6.7-1.3-11.6-3.2-14.5-5.8c-2.9-2.6-4.4-6.1-4.4-10.8c0-3.4,1-6.5,3.1-9.2c2.1-2.7,4.9-4.8,8.6-6.4
				c3.6-1.5,7.7-2.3,12.2-2.3c3.2,0,6.4,0.4,9.5,1.2c3.1,0.8,5.9,2,8.3,3.5c2.3,1.4,3.5,3.6,3.5,6.3c0,1.8-0.5,3.3-1.5,4.5
				c-1,1.2-2.2,1.8-3.6,1.8c-1.7,0-3.8-0.7-6.2-2c-1.9-1-3.6-1.7-5.2-2.2c-1.6-0.5-3.4-0.7-5.5-0.7c-2.3,0-4.2,0.4-5.5,1.3
				c-1.4,0.9-2,2.1-2,3.6c0,1.6,0.8,2.8,2.4,3.6c1.6,0.8,4.6,1.7,9.2,2.5c5.1,1,9,2.2,11.9,3.6c2.9,1.4,4.9,3.2,6.2,5.3
				c1.3,2.1,1.9,4.8,1.9,8c0,5.4-2.2,9.6-6.6,12.8c-4.4,3.2-10.3,4.8-17.7,4.8C1904.4,1198.7,1900.4,1198.3,1897,1197.6z"/>
		</g>
	</g>
	<g>
		<path class="st2" d="M1616.3,1385.9c-0.5-18.7-14.4-34.1-32.9-36.5c-2-0.3-4-0.4-6-0.3c-3.7,0.1-7.4,0.7-10.9,1.9
			c-15.9,5.3-26.4,20.2-25.9,37c0.3,10.1,4.5,19.5,11.8,26.5c7.1,6.7,16.3,10.4,26,10.4c0.4,0,0.7,0,1.1,0
			c13.1-0.4,25-7.4,31.6-18.7c2.9-5,4.6-10.4,5.1-16.2C1616.4,1388.5,1616.4,1387.2,1616.3,1385.9 M1602,1386.2
			c0.2,5.7-1.8,11.3-5.5,15.8c-4.4,5.2-10.7,8.3-17.4,8.4c-12.9,0.3-23.8-9.9-24.2-22.9c-0.2-9,4.5-17.2,12.5-21.4
			c3.3-1.7,6.8-2.7,10.4-2.8c0.2,0,0.4,0,0.6,0c2.3,0,4.6,0.3,6.8,1c9.2,2.8,15.9,11,16.7,20.6l0,0.4
			C1602,1385.6,1602,1385.9,1602,1386.2"/>
		<path class="st2" d="M1677.8,1385.9c-0.5-18.7-14.4-34.1-32.9-36.5c-2-0.3-4-0.4-6-0.3c-3.7,0.1-7.4,0.7-10.9,1.9
			c-15.9,5.3-26.4,20.2-25.9,37c0.3,10.1,4.5,19.5,11.8,26.5c7.1,6.7,16.3,10.4,26,10.4c0.4,0,0.7,0,1.1,0
			c13.1-0.4,25-7.4,31.6-18.7c2.9-5,4.6-10.4,5.1-16.2C1677.8,1388.5,1677.8,1387.2,1677.8,1385.9 M1663.5,1386.2
			c0.2,5.7-1.8,11.3-5.5,15.8c-4.4,5.2-10.7,8.3-17.4,8.4c-12.9,0.3-23.8-9.9-24.2-22.9c-0.2-9,4.5-17.2,12.5-21.4
			c3.3-1.7,6.8-2.7,10.4-2.8c0.2,0,0.4,0,0.6,0c2.3,0,4.6,0.3,6.8,1c9.2,2.8,15.9,11,16.7,20.6l0,0.4
			C1663.4,1385.6,1663.5,1385.9,1663.5,1386.2"/>
		<path class="st2" d="M1336.9,1412.2c0.6-3,0.1-5.8-1.5-7.7c-1.5-1.8-3.8-2.8-6.8-2.9h0c0,0-0.1,0-0.1,0c-3.2,0-6.2,1.8-8,4.9
			c-0.5,0.9-2.9,2.6-5.2,2.8c-6.2,0.6-11.6-0.6-16-3.3l-0.2-0.1l0,0c-5.3-3.5-8.8-9.3-9.6-16c-0.1-0.7-0.1-1.4-0.1-2l0-0.3
			c0-0.2,0-0.4,0-0.6c0-0.2,0-0.4,0-0.6l0-0.3c0-0.6,0.1-1.3,0.1-2c0.8-6.8,4.3-12.6,9.6-16l0,0l0.2-0.2c4.4-2.7,9.8-3.9,16-3.3
			c2.3,0.2,4.7,2,5.2,2.8c1.8,3.1,4.8,4.9,8,4.9h0.1c3,0,5.3-1,6.8-2.9c1.5-1.9,2.1-4.7,1.5-7.7c-0.4-1.7-1.3-3.3-2.9-4.6
			c-5.9-5-13.6-7.7-22-7.7c-2.2,0-4.4,0.2-6.6,0.5c-11.4,1.9-21.3,8.4-26.7,17.4c-3.8,5.8-5.7,12.5-5.6,19.5
			c-0.1,7,1.8,13.7,5.6,19.5c5.4,9,15.3,15.5,26.7,17.4c10.8,1.8,21.2-0.8,28.6-7.2C1335.6,1415.5,1336.6,1413.9,1336.9,1412.2"/>
		<path class="st2" d="M1415.3,1424.4c3,0.1,5.3-0.7,6.9-2.2c1.4-1.4,2.1-3.3,2.1-5.6c0-2.7-1.3-4.9-3.9-7c-3.9-2.4-4.6-4-4.6-11
			v-41.9c0-3.4-2.6-7-7.3-7c-4.7,0-6.4,3.6-6.4,7v1.5l-0.4-0.3c-5.4-4.4-11.9-7.2-18.8-8.1c-1.6-0.2-3.3-0.3-4.9-0.3
			c-0.3,0-0.7,0-1,0c-3.7,0.1-7.4,0.7-10.9,1.9c-15.8,5.3-26.2,20-25.7,36.7c0.3,10.1,4.5,19.4,11.7,26.3c7,6.6,16.2,10.3,25.9,10.3
			c0.4,0,0.7,0,1.1,0c8.9-0.2,17.4-3.6,23.9-9.4l0.3-0.2l0.1,0.3C1405.3,1420.9,1409.6,1424.1,1415.3,1424.4 M1395.7,1401.9
			c-4.3,5.1-10.5,8.1-17.1,8.3c-0.2,0-0.4,0-0.6,0c-12.5,0-22.9-10-23.2-22.6c-0.2-8.8,4.5-16.9,12.3-21.1c3.2-1.7,6.7-2.6,10.3-2.7
			c0.2,0,0.4,0,0.6,0c2.3,0,4.5,0.3,6.7,1c9,2.7,15.6,10.9,16.4,20.3l0,0.4c0,0.3,0.1,0.6,0.1,1
			C1401.3,1392,1399.4,1397.5,1395.7,1401.9"/>
		<path class="st2" d="M1446.8,1382.9l0,24.1v10.4v0.1c0,3.7-2.9,7.2-7.3,7.2c-1.9,0-3.3-0.7-4.7-2c-1.5-1.5-2.3-3.5-2.3-5.7l0-0.5
			l0.1-0.1l-0.1,0v-4.9V1401v-25.7l0,0c0-7.1-0.6-8.6-4.6-11c-2.7-2.1-3.9-4.4-3.9-7c0-2.3,0.7-4.3,2.1-5.6c1.6-1.5,3.9-2.3,6.9-2.2
			c1.3,0.1,2.5,0.3,3.6,0.7c3.9,1.2,6.8,4.1,8.4,8.5l0.1,0.3l0.3-0.2c0,0,0.8-0.6,1.8-1.4c0.6-0.4,1.2-0.9,1.8-1.3c0,0,0,0,0,0
			c0.3-0.2,0.5-0.3,0.8-0.5l0,0.1c12-7.3,20.1-6.4,20.1-6.4c5.3,0,10,1.3,13.9,3.9c3.9,2.6,6.9,6.1,9,10.6c2,4.4,3.1,9.3,3.1,14.5
			v27.2h0l0,1.3h0v4.5v5.9v0.1c0,0.5-0.1,1-0.2,1.5c-0.6,3.2-3.3,5.9-7.1,5.9c0,0-0.1,0-0.1,0c0,0-0.1,0-0.1,0
			c-1.9,0-3.4-0.7-4.8-2.1c-1.6-1.6-2.3-3.6-2.3-5.9l0-1.4l0,0v0l0,0v-3.9v-10.9l0,0v-11.5v-9.3c0-10.3-6.3-15-15.2-15
			C1466.1,1364.5,1446.8,1364.8,1446.8,1382.9"/>
		<path class="st2" d="M1610.5,1307c-0.2-0.8-0.6-1.6-1.2-2.1c-1.8-1.6-4.2-1.6-6-0.2c-15.4,12.8-48.3,20.2-66.6,23.4l-7.1,1.3
			l1.2-7.5c0.5-2.9,1-6.1-1.2-8c-1.1-0.9-2.6-1.6-4.3-1.9l-0.4-0.1c-2.6-0.4-5.2,0.4-7.2,2.3c-1.2,1.1-2.1,3.5-2.4,5l-2,12.5
			l-0.5,0.1c-2.9,0.4-4.5,0.6-4.5,0.6c-7,0.7-12.3,0.1-16.1-0.2c-2.7-0.3-4.6-0.5-5.5,0c-1.8,0.9-2.3,1.4-2.9,3.1
			c-0.6,1.8-0.3,4,1,6.5c2.5,4.5,7.7,5.9,10.5,6.2c0.1,0,6.5,0.6,13.6-1.1c0.1,0,0.1,0,0.2,0c0.2,0,0.4,0.1,0.5,0.2
			c0.2,0.2,0.3,0.4,0.2,0.6l-0.8,5.2l-1.4,9.5l-0.5,5.8c-0.3,4.7-0.5,11-0.5,15.2c0,5.7,0.4,11,1.3,15.8c1,5.5,2.7,10.2,4.9,13.9
			c5,8.6,13.3,12.9,24.6,12.9c6.1,0,16.8-3.4,22.1-6.3c-0.4-0.3-0.9-0.5-1.4-0.7c-0.6-0.3-1.2-0.9-1.6-1.4c-2.4-2.1-6.6-5.6-7.9-9.5
			c-2.2,2.6-7.3,2.7-7.9,2.7c-6,0-11.1-2.5-13.6-6.7c-2.6-4.3-3.9-11.8-3.9-22.4c0-3,0.1-8.8,0.3-13.6c0.2-8.1,1.9-18.3,2.6-22.3
			l0-0.2l0.2,0c14.7-2.3,32.9-6.7,50-12c14.7-4.6,25.8-9.1,28.5-11.5C1609.6,1317.8,1611.6,1312.5,1610.5,1307"/>
		<g>
			<path class="st2" d="M1485.5,1489.4c-1.4-1-2.2-2.3-2.2-3.9c0-1.9,1.3-3.2,3.4-3c3.5,0.6,6.6,3.6,12.8,3.6c4.7,0,7.6-1.4,7.6-4.3
				c0-3.4-4.2-4.4-9.4-5.6c-6.5-1.4-13.3-3.9-13.3-11.7c0-6.7,5.6-11,15.2-11c4.5,0,8.8,1.2,11.3,2.7c1.6,0.9,2.4,2.2,2.4,3.5
				c0,3-2.4,3.8-5,3c-2-0.5-4.8-2.4-9-2.4c-3.9,0-6.5,0.8-6.5,3.9c0,3.3,4,4.1,9.7,5.3c6.2,1.3,13.1,3.3,13.1,11.5
				c0,6-3.9,11.9-16.1,11.9C1493.7,1492.9,1488.4,1491.5,1485.5,1489.4"/>
			<path class="st2" d="M1519.1,1473.1c0-11.4,7.4-19.7,19.9-19.7c4.3,0,8.2,1,10.4,2.7c1.3,1,2.1,2.2,2.1,3.9
				c0,1.8-1.3,3.3-3.5,3.3c-2.7,0-4.1-2.2-9-2.2c-7,0-11.2,5.2-11.2,12s4,12,11.3,12c5,0,6.5-2.2,9-2.2c2.2,0,3.5,1.6,3.5,3.3
				c0,1.6-0.8,2.9-2.2,3.8c-2.4,1.7-6.4,2.7-10.8,2.7C1526.6,1492.9,1519.1,1484.6,1519.1,1473.1"/>
			<path class="st2" d="M1557.3,1487.8v-30c0-1.9,1.1-3.7,3.5-3.7c2.4,0,3.4,1.3,3.4,3v3.3h0.1c2-3.6,5.9-6.7,10.4-6.8
				c2.7,0,3.9,1.9,3.9,3.9c0,1.9-1.2,3.9-3.9,3.9c-5.3,0.2-9,3.6-9,9.9l-0.1,16.7c0,2.4-1.3,4.5-4.2,4.5
				C1558.6,1492.3,1557.3,1490.1,1557.3,1487.8"/>
			<path class="st2" d="M1582.7,1487.8v-29.1c0-2.4,1.3-4.5,4.2-4.5c3,0,4.2,2.2,4.2,4.5v29.1c0,2.4-1.3,4.5-4.2,4.5
				C1584,1492.3,1582.7,1490.1,1582.7,1487.8"/>
			<path class="st2" d="M1606.9,1485.8h-0.1v3c0,1.7-1,3.5-3.4,3.5c-2.3,0-3.4-1.8-3.4-3.7v-48.7c0-2.4,1.3-4.4,4.2-4.4
				s4.2,2.1,4.2,4.4v18.8h0.1c2.2-2.8,6.9-5.2,11.9-5.2c10.7,0,17.5,7.9,17.5,19.5c0,11.3-6.7,19.9-17.6,19.9
				C1614.7,1492.9,1609.3,1490.3,1606.9,1485.8 M1629.2,1473.2c0-7.5-4.5-12-10.6-12c-6.7,0-10.8,4.4-10.8,11.9s4,12.2,10.7,12.2
				C1624.9,1485.2,1629.2,1480.6,1629.2,1473.2"/>
			<path class="st2" d="M1642,1473c0-11.8,7.7-19.5,18.5-19.5c11.2,0,17.4,7,17.4,17.2c0,3.5-1.2,5.3-4.7,5.3h-22.5
				c0,4.9,3.9,9.3,12.2,9.3c5.6,0,7.2-2.2,9.8-2.2c2.3,0,3.6,1.6,3.6,3.3c0,1.6-0.9,2.9-2.3,3.9c-2.4,1.6-6.6,2.5-11,2.5
				C1649.2,1492.9,1642,1485,1642,1473 M1669.2,1470.2c0.1-0.4,0.1-1,0.1-1.3c0-4.6-2.7-8.2-9-8.2c-5.6,0-9.7,4.2-9.7,9.6H1669.2z"
				/>
			<path class="st2" d="M1582.5,1447c0-2.7,1.8-4.3,4.5-4.3c2.6,0,4.4,1.6,4.4,4.3c0,2.6-1.7,4.4-4.4,4.4
				C1584.3,1451.4,1582.5,1449.7,1582.5,1447"/>
		</g>
	</g>
	<g id="Groupe_169" transform="matrix(1, 0.017, -0.017, 1, 1090.561, 1592.799)">
		<path id="Tracé_301" class="st2" d="M480.4-705.9c-23.2,6.4-47.3,8.2-71.1,5.5c-41.4-4.7-80.6-21.5-113.4-48.4
			c-10.8-8.9-20.8-18.9-29.8-29.9l0,0c-14.5-17.3-26-37.3-33.7-59c27-6.7,53-17.2,77.5-31.2c7-3.3,13-8.6,17.5-15.2
			c4-6.9,4.1-17-1.8-22c-6.8-5.8-16.8-2.1-25.3,0.7c-13.1,4.2-26.8,5.2-40.2,3c-11.7-1.8-23-5.9-33.3-12.1c-0.4-0.3-0.8-0.6-1.3-0.8
			c10.4-67.1,60.5-128.3,122.3-150.6c78.1-28.1,205-8.1,244,78c10,22.1,16.6,45.8,19.6,70.2l0,0c10.1,82.6-24.8,163.5-100.2,199.7
			 M427.5-860.2L427.5-860.2"/>
		<g id="Groupe_168" transform="translate(29.478 16.024)">
			<path id="Tracé_302" class="st3" d="M342.7-1008.5c0,3.5,2.7,6.3,6,6.2c0.5,0,1-0.1,1.5-0.2c17-5,30.2-4.2,39,2.3
				c6.1,4.8,10.2,12,11.3,20.1c0.3,3.5,3.2,6,6.5,5.6s5.7-3.5,5.4-7c-1.4-11.8-7.3-22.3-16.3-29.2c-11.9-8.7-28.3-10.1-48.9-4
				C344.5-1014,342.6-1011.4,342.7-1008.5z"/>
		</g>
	</g>
	<g>
		<path class="st4" d="M1018.5,526.3l-0.1-0.2c-9.7-18-3.5-40.4,16-50.9c19.5-10.6,41.4-3.6,51.1,14.4l0.1,0.2
			c9.7,18,3.5,40.4-16,50.9C1050.1,551.3,1028.2,544.3,1018.5,526.3z M1071.1,497.8l-0.1-0.2c-5.9-10.8-18.7-15.6-29.9-9.5
			c-11.2,6.1-14.2,19.1-8.3,30l0.1,0.2c5.9,10.8,18.7,15.6,29.9,9.5C1074,521.7,1077,508.7,1071.1,497.8z M1012.3,478.5
			c-2.4,1.3-5.5,0.4-6.6-1.6c-0.4-0.7-0.8-2-0.9-2.9c-0.9-6.9-0.2-12.4,5.8-15.7c6.1-3.3,13.3-2.2,16.9-4.2c2.4-1.3,3-2.8,3.1-5.4
			c0.1-1.7,0.8-3.4,2.6-4.4c2.4-1.3,5.5-0.4,6.6,1.6c0.4,0.7,0.8,2,0.9,2.9c0.9,6.9,0.2,12.4-5.8,15.6c-6.1,3.3-13.3,2.2-16.9,4.2
			c-2.4,1.3-3,2.8-3.1,5.4C1014.9,475.9,1014.1,477.6,1012.3,478.5z"/>
	</g>
	<g>
		<circle id="Ellipse_18_1_" class="st4" cx="1200.5" cy="602.1" r="101.2"/>
		<path class="st3" d="M1139.4,602.1c0,33.7,27.4,61.1,61.1,61.1s61.1-27.4,61.1-61.1s-27.4-61.1-61.1-61.1
			C1166.8,541.1,1139.4,568.4,1139.4,602.1z M1172.9,561.8c-5.3,10.7-8.3,22.3-8.7,34.2h-12C1153.9,582.2,1161.5,569.7,1172.9,561.8
			z M1224.6,596h-18v-40.8C1215.3,560.3,1223.2,575.4,1224.6,596z M1224.6,608.3c-1.4,20.6-9.3,35.8-18,40.8v-40.8H1224.6z
			 M1176.4,608.3h18V649C1185.7,644,1177.8,628.9,1176.4,608.3z M1176.4,596c1.4-20.6,9.3-35.8,18-40.8V596H1176.4z M1248.8,596h-12
			c-0.5-11.9-3.5-23.5-8.7-34.2C1239.5,569.7,1247.1,582.2,1248.8,596z M1228.1,642.5c5.3-10.7,8.3-22.3,8.7-34.2h12
			C1247.1,622.1,1239.5,634.5,1228.1,642.5z M1152.2,608.3h12c0.5,11.9,3.5,23.5,8.7,34.2C1161.5,634.5,1153.9,622.1,1152.2,608.3z"
			/>
	</g>
	<path id="Tracé_309_5_" class="st2" d="M1249.2,726.8c-3.7,3.3-6.2,8-6.7,13c-1,9.5,1.4,18.2,5.4,26.7c0.5,1.2-0.8,2.2-1.8,1.4
		c-15.2-11.1-30.8-19.3-49.1-25.1c-11.3-3.5-25-5.4-33.7,2.6c-6.3,6.7-3.7,8-0.6,16.7c3.2,8.5,8.5,16,15.4,22
		c17.2,16.6,40,29.5,63.8,28c24.8-1.2,40.2-12.1,42-36.9C1284.8,758,1276.9,702.3,1249.2,726.8z"/>
	<g>
		<path class="st4" d="M1219.3,379.5c-1.9-3.2-7.5-2.4-8.5,1.2l-10.2,39.3c-0.7,2.6,0.9,5,3.3,5.7c2.6,0.7,5-0.9,5.7-3.3l1.6-6
			l17.9-2.6l3.2,5.3c1.1,1.7,2.8,2.5,4.6,2.2c0.6-0.1,1.2-0.4,1.8-0.7c2.3-1.4,2.9-4.1,1.6-6.4L1219.3,379.5z M1213.7,406.6
			l3.3-12.8l6.8,11.4L1213.7,406.6z"/>
		<path class="st4" d="M1248.3,351.9l-63.5,9l-1.8-12.9c-1.4-10.1-10.9-17.2-20.9-15.7l-72.9,10.4c-10.1,1.4-17.2,10.9-15.7,20.9
			l7.5,52.4c1.4,10.1,10.9,17.2,20.9,15.7l14.9-2.1c0.4,4.1,0.3,9.2-1,14.9c-0.9,3.8,0.7,7.7,4.1,9.7c1.8,1.2,3.9,1.7,6.2,1.4
			c1.4-0.2,3-0.8,4.3-1.8c10.6-8.1,18.7-20.1,23.9-29.5l11.1-1.6l1.8,12.9c1.4,10.1,10.9,17.2,20.9,15.7l20.7-3
			c7.7,7.5,18.8,16.8,31.2,21.6c1.5,0.6,3,0.8,4.6,0.6c2-0.3,3.9-1.4,5.5-3c2.6-3,3.1-7,1.2-10.4c-2.8-5.2-4.3-10.1-5.1-14.1
			l14.9-2.1c10.1-1.4,17.2-10.9,15.7-20.9l-7.5-52.4C1267.8,357.6,1258.4,350.5,1248.3,351.9z M1150.5,415.6c-1.4,0.2-2.7,1-3.4,2.3
			c-3.9,7.1-12.1,20.6-22.2,28.9c2.1-9.6,1.4-17.9,0.4-23.1c-0.5-2.4-2.8-4.1-5.3-3.8l-19.5,2.8c-5,0.7-9.8-2.7-10.6-7.9l-7.5-52.4
			c-0.7-5,2.7-9.8,7.9-10.6l72.9-10.4c5-0.7,9.8,2.7,10.6,7.9l7.5,52.4c0.7,5-2.7,9.8-7.9,10.6L1150.5,415.6z M1267.4,421.4
			c0.7,5-2.7,9.8-7.9,10.6l-19.5,2.8c-2.4,0.3-4.1,2.6-4,5.1c0.6,5.5,2.2,13.7,7.2,21.8c-12.4-4.8-24-15.3-29.7-21.2
			c-1-1.1-2.5-1.5-3.9-1.3l-22.8,3.2c-5,0.7-9.8-2.7-10.6-7.9l-1.8-12.9l0.4-0.1c10.1-1.4,17.2-10.9,15.7-20.9l-4.3-30.2l63.3-9
			c5-0.7,9.8,2.7,10.6,7.9L1267.4,421.4z"/>
		<path class="st4" d="M1148,366.2l-7.3,1l0,0l-6,0.9l-0.9-6.2c-0.4-2.6-2.7-4.3-5.3-4c-2.6,0.4-4.3,2.7-4,5.3l0.9,6.2l-13.3,1.9
			c-2.6,0.4-4.3,2.7-4,5.3c0.4,2.6,2.7,4.3,5.3,4l20.1-2.9c-6.3,10.8-18.1,19.9-18.1,19.9c-2,1.5-2.4,4.5-0.9,6.5
			c1,1.5,2.8,2.1,4.4,1.8c0.8-0.1,1.4-0.4,2.1-0.9c0.4-0.3,5.9-4.5,11.8-10.9l11.7,7c0.9,0.5,2,0.7,3,0.6c1.4-0.2,2.5-1,3.4-2.1
			c1.3-2.2,0.7-5-1.5-6.4l-10.6-6.3c2.4-3.4,4.5-7,5.8-10.9l4.8-0.7c2.6-0.4,4.3-2.7,4-5.3C1153.1,367.4,1150.6,365.9,1148,366.2z"
			/>
	</g>
</g>
</svg>
