<?xml version="1.0" encoding="utf-8"?>
<!-- Generator: Adobe Illustrator 24.2.0, SVG Export Plug-In . SVG Version: 6.00 Build 0)  -->
<svg version="1.1" id="Layer_1" xmlns="http://www.w3.org/2000/svg" xmlns:xlink="http://www.w3.org/1999/xlink" x="0px" y="0px"
	 viewBox="0 0 2880 1800" style="enable-background:new 0 0 2880 1800;" xml:space="preserve">
<style type="text/css">
	.st0{opacity:0.2;fill:#13C6EA;}
	.st1{fill:#13C6EA;}
	.st2{opacity:0.974;enable-background:new    ;}
	.st3{fill:#126CE3;stroke:#126CE3;stroke-width:2.2332;stroke-miterlimit:10;}
	.st4{enable-background:new    ;}
	.st5{fill:#126CE3;stroke:#126CE3;stroke-width:1.8974;stroke-miterlimit:10;}
	.st6{fill:#126CE3;stroke:#126CE3;stroke-width:1.8974;stroke-miterlimit:10;enable-background:new    ;}
	.st7{fill:#FFFFFF;}
	.st8{fill:#126CE3;enable-background:new    ;}
</style>
<path id="Tracé_191" class="st0" d="M1876.1,771.9c4.2-11.7,7.3-21.5,7.5-36.7c0.9-63.8-26.7-84.6-110.8-79.7
	c-93.1,5.4-229.4,146.3-347.4,14.7c-118.1-131.6-415.9,304.2-121.4,337.3C1582,1038.7,1843.9,860.6,1876.1,771.9z"/>
<path id="Tracé_304" class="st1" d="M1667.2,649l3.3-34.8c1.6-16.9,2.3-36.3-9.8-48.2c-8.2-8-20.3-10.4-31.7-12.3l-92.7-16v0
	l-72.1-12.5c-35.7-6.2-114.4-40.6-120.3,14.8c-6.7,63.7-13.5,127.5-20.2,191.2c18.6,0.9,123.3,6.7,97.5,25.1
	c-31.4,20.7-67,34-104.3,39.1l-5.5,52.3c-1.1,10.1-1.7,21.6,5.2,29c6,5.1,13.5,8.1,21.4,8.6l119.1,19.5l148.3,24.3
	c17.9,2.9,34.9-9.2,37.8-27.2c0.1-0.7,0.2-1.5,0.3-2.2c2.3-24.3,4.6-48.7,6.9-73C1656,767.3,1661.6,708.1,1667.2,649"/>
<path class="st1" d="M1883.4,1252.8H996.3c-49.8,0-90.1-40.3-90.1-90.1v0c0-49.8,40.3-90.1,90.1-90.1h887.2
	c49.8,0,90.1,40.3,90.1,90.1v0C1973.6,1212.5,1933.2,1252.8,1883.4,1252.8z"/>
<g class="st2">
	<path class="st3" d="M1289.1,468.1c-1.7-1.1-3.3-3.3-3.6-5.7c-0.5-4.4,2.8-8.6,7.2-9.1c2.4-0.3,4.2,0.5,5.6,1.4
		c4.9,3.2,9.7,4.6,15.8,3.9c6.4-0.8,10.5-4.9,9.8-10.7l0-0.2c-0.8-6.3-6.8-9.1-16.3-8l-2.6,0.3c-4,0.5-7.7-2.4-8.1-6.4
		c-0.3-2.3,0.5-4.4,2.8-7.4l13.2-16.9l-23.7,2.8c-4,0.5-7.7-2.4-8.1-6.4c-0.5-4,2.4-7.7,6.4-8.1l37.6-4.5c5-0.6,8.9,1.8,9.5,6.5
		c0.5,4.2-1.2,6.7-3.9,10.1l-13.4,16.2c10.7,0.5,21.6,4.8,23.3,19.1l0,0.2c1.7,14.5-7.5,26.5-24.7,28.6
		C1304.7,475.1,1296,472.7,1289.1,468.1z"/>
</g>
<g class="st4">
	<path class="st5" d="M1068.3,487.9c-0.2,1.8-1.1,3-2.5,3.6c-1.5,0.7-3.5,0.8-6,0.3l-2.9-0.6c-5.9-1.1-10.1-3.5-12.6-7
		c-2.5-3.5-3.4-8.2-2.7-14.1l2.8-23l-11-1.3c-1,7.2-2.3,13.9-4,20c-1.6,6.1-3.8,11.9-6.4,17.2c-0.7,1.4-1.7,2.4-3,3.1
		c-1.3,0.6-2.7,0.8-4.1,0.7c-1.8-0.2-3.3-0.9-4.6-2.2c-1.2-1.2-1.7-2.7-1.5-4.6c0.1-0.7,0.3-1.4,0.6-2.1c4.7-10.3,8-21.6,9.9-33.8
		l-5.9-0.7c-3.9-0.5-5.7-2.4-5.3-5.7c0.4-3.3,2.6-4.7,6.5-4.2l49.9,6.1c3.9,0.5,5.6,2.4,5.2,5.7c-0.4,3.3-2.5,4.7-6.4,4.3l-6.8-0.8
		l-2.9,23.9c-0.6,5.2,1.4,8.3,6.1,9.2l2.9,0.6C1067.1,483.2,1068.6,485,1068.3,487.9z"/>
</g>
<path class="st6" d="M1202.6,294l-93.1,82l132.7,78.6L1202.6,294z M1193.9,411.6l18-11.5c1.7-0.3,3.7-0.4,5.8-0.5l8.1,32.9
	l-32.6-19.3C1193.4,412.7,1193.7,412.2,1193.9,411.6z M1196.5,313.6l19.2,77.8c-17.7,1.4-27.1,9.3-31.2,16.7l-57-33.8L1196.5,313.6z
	"/>
<path id="Tracé_305" class="st1" d="M1462.8,587.5"/>
<path id="Tracé_306" class="st1" d="M1412.5,895c-1,1.5-2,3-3.1,4.4C1410.4,898,1411.5,896.5,1412.5,895"/>
<g id="Groupe_170-2" transform="translate(835.645 145.31)">
	<path id="Tracé_307" class="st7" d="M693,497.4c-1.6,2.8-5.1,3.8-7.9,2.2c-0.4-0.2-0.8-0.5-1.2-0.9c-12.4-11.9-24-17.4-34.5-16.4
		c-7.4,1-14.1,4.8-18.7,10.7c-1.8,2.6-5.4,3.3-8.1,1.5c-2.6-1.8-3.3-5.4-1.5-8.1c6.5-8.7,16.3-14.3,27.1-15.6
		c14.1-1.4,28.8,5.2,43.7,19.6C693.9,492.2,694.3,495.1,693,497.4z"/>
</g>
<path id="Tracé_309" class="st1" d="M1215.7,730.9c-4.2,3-7.1,7.7-8.1,12.8c-1.9,9.7-0.3,18.9,3,28.1c0.4,1.2-1,2.2-2,1.3
	c-14.6-13-30-23-48.3-30.7c-11.3-4.7-25.3-8-35.1-0.6c-7.2,6.4-4.6,7.9-2.2,17.2c2.5,9.1,7.3,17.4,13.8,24.2
	c16.2,18.8,38.4,34.3,63.3,35.1c25.7,1.2,42.7-8.7,47-34C1249.4,766.5,1246.7,708.3,1215.7,730.9z"/>
<g>
	<path class="st7" d="M1095.9,1119.2c1.6,1.7,2.4,3.9,2.4,6.5v66.8c0,2.6-0.7,4.6-2.2,6.1c-1.5,1.5-3.5,2.2-5.9,2.2
		c-2.3,0-4.3-0.7-5.8-2.2c-1.5-1.5-2.2-3.5-2.2-6.1V1151l-16.7,31.4c-1.1,2-2.3,3.5-3.6,4.5c-1.3,0.9-2.8,1.4-4.6,1.4
		c-1.7,0-3.3-0.5-4.6-1.4c-1.3-0.9-2.5-2.4-3.6-4.5l-16.7-30.8v40.9c0,2.5-0.7,4.5-2.2,6.1c-1.5,1.5-3.5,2.3-5.9,2.3
		c-2.3,0-4.3-0.7-5.8-2.2c-1.5-1.5-2.2-3.5-2.2-6.1v-66.8c0-2.7,0.8-4.8,2.4-6.5c1.6-1.7,3.7-2.5,6.3-2.5c3.8,0,6.6,2,8.6,6
		l23.9,45.3l23.8-45.3c2.1-4,4.9-6,8.5-6C1092.2,1116.6,1094.3,1117.5,1095.9,1119.2z"/>
	<path class="st7" d="M1158.4,1147.1c4.1,4.1,6.1,10.4,6.1,18.9v26.6c0,2.6-0.7,4.6-2.2,6.1c-1.5,1.5-3.6,2.2-6.2,2.2
		c-2.5,0-4.5-0.8-6.1-2.3c-1.5-1.5-2.3-3.5-2.3-5.9v-0.8c-1.2,2.9-3.1,5.2-5.9,6.8c-2.7,1.6-6,2.5-9.6,2.5c-3.9,0-7.5-0.8-10.6-2.4
		c-3.2-1.6-5.7-3.8-7.5-6.6c-1.8-2.8-2.8-6-2.8-9.4c0-4.2,1.1-7.6,3.2-10c2.2-2.4,5.6-4.2,10.4-5.3c4.8-1.1,11.3-1.6,19.6-1.6h3.1
		v-2.1c0-3.3-0.7-5.7-2.2-7.2c-1.4-1.5-3.9-2.2-7.2-2.2s-8.2,1.2-14.6,3.5c-1.8,0.9-3.3,1.3-4.6,1.3c-1.7,0-3.1-0.6-4.1-1.8
		c-1-1.2-1.5-2.8-1.5-4.8c0-1.6,0.4-2.9,1.1-3.9c0.7-1,1.8-2,3.4-2.8c2.7-1.5,6.1-2.7,10.1-3.5c4-0.9,7.9-1.3,11.7-1.3
		C1148.1,1141,1154.3,1143,1158.4,1147.1z M1144.4,1185.3c2.1-2.3,3.2-5.3,3.2-9v-2h-2c-6.3,0-10.8,0.5-13.3,1.5
		c-2.5,1-3.8,2.9-3.8,5.5c0,2.2,0.7,4,2.2,5.4c1.4,1.4,3.3,2.1,5.5,2.1C1139.5,1188.8,1142.3,1187.7,1144.4,1185.3z"/>
	<path class="st7" d="M1215.1,1189.6c1.1,1,1.6,2.5,1.6,4.5c0,2.3-0.9,4-2.7,5.2c-1.8,1.2-4.4,1.6-7.8,1.4l-3.3-0.2
		c-13.7-1.1-20.6-8.3-20.6-21.5v-23.3h-4.7c-2.6,0-4.5-0.6-5.9-1.7c-1.3-1.1-2-2.8-2-4.9c0-2.2,0.7-3.9,2-5c1.3-1.1,3.3-1.7,5.9-1.7
		h4.7v-9.2c0-2.6,0.8-4.6,2.4-6.1c1.6-1.5,3.8-2.2,6.5-2.2c2.7,0,4.9,0.7,6.5,2.2c1.6,1.5,2.4,3.5,2.4,6.1v9.2h8.2
		c5.3,0,8,2.2,8,6.7c0,2.1-0.7,3.7-2,4.9c-1.3,1.1-3.3,1.7-6,1.7h-8.2v24.6c0,2.3,0.5,4.1,1.6,5.4c1.1,1.2,2.7,1.9,4.8,2.1l3.3,0.2
		C1212.3,1188,1214,1188.6,1215.1,1189.6z"/>
	<path class="st7" d="M1280,1165.3v27.2c0,2.6-0.8,4.6-2.4,6.1c-1.6,1.5-3.8,2.2-6.5,2.2c-2.7,0-4.9-0.7-6.5-2.2
		c-1.6-1.5-2.3-3.5-2.3-6.1v-27.4c0-3.5-0.7-6-2.2-7.7c-1.4-1.7-3.7-2.5-6.8-2.5c-3.7,0-6.6,1.2-8.9,3.5c-2.2,2.3-3.3,5.5-3.3,9.4
		v24.7c0,2.6-0.8,4.6-2.4,6.1c-1.6,1.5-3.7,2.2-6.5,2.2c-2.7,0-4.9-0.7-6.5-2.2c-1.6-1.5-2.4-3.5-2.4-6.1v-67.7
		c0-2.4,0.8-4.4,2.5-5.9c1.7-1.5,3.9-2.2,6.6-2.2c2.6,0,4.7,0.7,6.2,2.1c1.6,1.4,2.4,3.3,2.4,5.6v25.6c2-3,4.7-5.2,7.9-6.8
		c3.2-1.5,6.9-2.3,10.9-2.3C1273.3,1141,1280,1149.1,1280,1165.3z"/>
	<path class="st7" d="M1343.4,1184.8c1,1.3,1.5,2.9,1.5,4.8c0,1.3-0.4,2.6-1.2,3.7c-0.8,1.1-1.9,2.1-3.3,2.9
		c-2.7,1.4-5.8,2.6-9.3,3.5c-3.5,0.9-6.8,1.4-9.8,1.4c-6.3,0-11.7-1.2-16.4-3.6c-4.7-2.4-8.3-5.9-10.8-10.4
		c-2.5-4.5-3.8-9.8-3.8-15.9c0-5.9,1.2-11.1,3.6-15.6c2.4-4.5,5.8-8.1,10.1-10.6c4.3-2.5,9.2-3.8,14.7-3.8c5.2,0,9.9,1.2,13.8,3.5
		c4,2.3,7,5.6,9.2,9.9s3.3,9.3,3.3,15c0,1.7-0.4,3-1.2,3.9c-0.8,0.9-2,1.4-3.5,1.4h-32.9c0.5,4.6,2,8,4.2,10.1
		c2.3,2.1,5.5,3.1,9.8,3.1c2.3,0,4.3-0.3,6.1-0.8c1.8-0.6,3.8-1.3,6-2.2c1.1-0.5,2.2-0.9,3.2-1.2c1-0.4,1.9-0.5,2.7-0.5
		C1341.2,1182.9,1342.4,1183.6,1343.4,1184.8z M1311.3,1156.4c-2,2.2-3.3,5.3-3.6,9.3h22.7c-0.2-4.2-1.3-7.3-3.1-9.4
		c-1.8-2.1-4.4-3.2-7.8-3.2C1316,1153.2,1313.3,1154.3,1311.3,1156.4z M1319.3,1135.4c-1.3,0-2.3-0.4-3.2-1.3
		c-0.9-0.9-1.3-1.9-1.3-3.1c0-1,0.4-2,1.1-3.1l10.1-13.5c2-2.7,4.3-4,7.1-4c2,0,3.7,0.7,5.2,2.1c1.5,1.4,2.2,3.1,2.2,4.9
		c0,2.3-1.3,4.5-3.8,6.4l-14.3,10.5C1321.4,1135.1,1320.4,1135.4,1319.3,1135.4z"/>
	<path class="st7" d="M1441.5,1146.7c3.4,3.8,5.1,10,5.1,18.6v27.2c0,2.7-0.8,4.8-2.5,6.2c-1.6,1.4-3.8,2.1-6.4,2.1
		c-2.5,0-4.6-0.7-6.4-2.1c-1.7-1.4-2.6-3.5-2.6-6.2v-27.4c0-3.8-0.6-6.4-1.9-7.9c-1.3-1.5-3.3-2.3-5.9-2.3c-3.3,0-5.9,1.1-7.9,3.4
		c-2,2.3-2.9,5.4-2.9,9.5v24.7c0,2.7-0.8,4.8-2.5,6.2c-1.6,1.4-3.8,2.1-6.4,2.1c-2.5,0-4.6-0.7-6.4-2.1c-1.7-1.4-2.6-3.5-2.6-6.2
		v-27.4c0-3.8-0.6-6.4-1.9-7.9c-1.3-1.5-3.3-2.3-5.9-2.3c-3.3,0-5.9,1.1-7.9,3.4c-2,2.3-2.9,5.4-2.9,9.5v24.7c0,2.7-0.8,4.8-2.5,6.2
		c-1.7,1.4-3.8,2.1-6.3,2.1s-4.6-0.7-6.4-2.1c-1.7-1.4-2.6-3.5-2.6-6.2v-43.1c0-2.6,0.9-4.6,2.6-6c1.8-1.4,3.9-2.1,6.4-2.1
		c2.3,0,4.3,0.7,5.9,2.1c1.6,1.4,2.3,3.3,2.3,5.7v1.2c1.9-3,4.3-5.3,7.3-6.8c3-1.6,6.4-2.3,10.3-2.3c4.2,0,7.7,0.8,10.5,2.5
		c2.9,1.7,5.1,4.4,6.6,8.2c1.8-3.3,4.4-5.9,7.7-7.8c3.3-1.9,7.1-2.9,11.3-2.9C1433.3,1141,1438.2,1142.9,1441.5,1146.7z"/>
	<path class="st7" d="M1504.8,1147.1c4.1,4.1,6.1,10.4,6.1,18.9v26.6c0,2.6-0.7,4.6-2.2,6.1c-1.5,1.5-3.6,2.2-6.2,2.2
		c-2.5,0-4.5-0.8-6.1-2.3c-1.5-1.5-2.3-3.5-2.3-5.9v-0.8c-1.2,2.9-3.1,5.2-5.9,6.8c-2.7,1.6-6,2.5-9.6,2.5c-3.9,0-7.5-0.8-10.6-2.4
		c-3.2-1.6-5.7-3.8-7.5-6.6c-1.8-2.8-2.8-6-2.8-9.4c0-4.2,1.1-7.6,3.2-10s5.6-4.2,10.4-5.3c4.8-1.1,11.3-1.6,19.6-1.6h3.1v-2.1
		c0-3.3-0.7-5.7-2.2-7.2c-1.4-1.5-3.9-2.2-7.2-2.2c-3.4,0-8.2,1.2-14.6,3.5c-1.8,0.9-3.3,1.3-4.6,1.3c-1.7,0-3.1-0.6-4.1-1.8
		c-1-1.2-1.5-2.8-1.5-4.8c0-1.6,0.4-2.9,1.1-3.9c0.7-1,1.8-2,3.4-2.8c2.7-1.5,6.1-2.7,10.1-3.5c4-0.9,7.9-1.3,11.7-1.3
		C1494.4,1141,1500.7,1143,1504.8,1147.1z M1490.8,1185.3c2.1-2.3,3.2-5.3,3.2-9v-2h-2c-6.3,0-10.8,0.5-13.3,1.5
		c-2.5,1-3.8,2.9-3.8,5.5c0,2.2,0.7,4,2.2,5.4c1.4,1.4,3.3,2.1,5.5,2.1C1485.9,1188.8,1488.7,1187.7,1490.8,1185.3z"/>
	<path class="st7" d="M1561.5,1189.6c1.1,1,1.6,2.5,1.6,4.5c0,2.3-0.9,4-2.7,5.2s-4.4,1.6-7.8,1.4l-3.3-0.2
		c-13.7-1.1-20.6-8.3-20.6-21.5v-23.3h-4.7c-2.6,0-4.5-0.6-5.9-1.7c-1.3-1.1-2-2.8-2-4.9c0-2.2,0.7-3.9,2-5c1.3-1.1,3.3-1.7,5.9-1.7
		h4.7v-9.2c0-2.6,0.8-4.6,2.4-6.1c1.6-1.5,3.8-2.2,6.5-2.2c2.7,0,4.9,0.7,6.5,2.2c1.6,1.5,2.4,3.5,2.4,6.1v9.2h8.2
		c5.3,0,8,2.2,8,6.7c0,2.1-0.7,3.7-2,4.9c-1.3,1.1-3.3,1.7-6,1.7h-8.2v24.6c0,2.3,0.5,4.1,1.6,5.4c1.1,1.2,2.7,1.9,4.8,2.1l3.3,0.2
		C1558.6,1188,1560.4,1188.6,1561.5,1189.6z"/>
	<path class="st7" d="M1571.2,1129.4c-1.8-1.6-2.7-3.8-2.7-6.5c0-2.7,0.9-4.9,2.7-6.5c1.8-1.6,4.3-2.3,7.4-2.3
		c3.1,0,5.5,0.8,7.3,2.4c1.8,1.6,2.8,3.7,2.8,6.4c0,2.7-0.9,4.9-2.7,6.5c-1.8,1.6-4.3,2.4-7.4,2.4
		C1575.5,1131.8,1573,1131,1571.2,1129.4z M1572.2,1198.7c-1.7-1.4-2.5-3.5-2.5-6.2v-42.9c0-2.7,0.9-4.8,2.6-6.2
		c1.7-1.4,3.8-2.1,6.4-2.1s4.6,0.7,6.3,2.1c1.7,1.4,2.5,3.5,2.5,6.2v42.9c0,2.7-0.8,4.8-2.5,6.2c-1.7,1.4-3.8,2.1-6.3,2.1
		C1576,1200.8,1573.9,1200.1,1572.2,1198.7z"/>
	<path class="st7" d="M1657.1,1143.5c1.6,1.5,2.4,3.5,2.4,6.1v64.2c0,2.4-0.8,4.4-2.5,5.9c-1.7,1.5-3.9,2.2-6.6,2.2
		c-2.6,0-4.7-0.7-6.2-2.1c-1.6-1.4-2.4-3.3-2.4-5.6v-22.3c-1.7,2.9-4.2,5.2-7.3,6.8c-3.2,1.6-6.7,2.5-10.6,2.5
		c-5,0-9.4-1.2-13.3-3.6c-3.8-2.4-6.8-5.9-9-10.4c-2.2-4.5-3.2-9.7-3.2-15.7c0-6,1.1-11.2,3.2-15.8s5.2-8.1,9.1-10.7
		c3.9-2.5,8.3-3.8,13.2-3.8c4,0,7.6,0.8,10.8,2.5c3.2,1.7,5.6,4,7.3,7v-0.9c0-2.5,0.8-4.5,2.4-6.1c1.6-1.5,3.7-2.3,6.4-2.3
		C1653.4,1141.2,1655.5,1142,1657.1,1143.5z M1638.5,1183.3c2.2-2.8,3.3-6.9,3.3-12.2s-1.1-9.4-3.3-12.3c-2.2-2.9-5.4-4.3-9.6-4.3
		c-4.2,0-7.4,1.5-9.6,4.4c-2.3,2.9-3.4,7.1-3.4,12.4c0,5.3,1.1,9.3,3.4,12.1c2.3,2.8,5.5,4.2,9.6,4.2
		C1633.1,1187.5,1636.3,1186.1,1638.5,1183.3z"/>
	<path class="st7" d="M1726.4,1143.4c1.6,1.5,2.4,3.5,2.4,6.1v43.2c0,2.4-0.8,4.4-2.5,5.9c-1.7,1.5-3.9,2.2-6.5,2.2
		c-2.5,0-4.5-0.7-6-2.1c-1.5-1.4-2.2-3.3-2.2-5.6v-1.2c-1.8,3-4.2,5.2-7.1,6.8c-2.9,1.6-6.3,2.4-9.9,2.4c-7.3,0-12.7-2-16.3-6.1
		c-3.6-4-5.4-10.1-5.4-18.3v-27.2c0-2.6,0.8-4.6,2.4-6.1c1.6-1.5,3.8-2.2,6.5-2.2c2.7,0,4.9,0.7,6.5,2.2c1.6,1.5,2.4,3.5,2.4,6.1
		v27.5c0,3.4,0.7,6,2.2,7.6c1.4,1.6,3.7,2.5,6.6,2.5c3.5,0,6.2-1.2,8.4-3.5c2.2-2.4,3.2-5.4,3.2-9.3v-24.8c0-2.6,0.8-4.6,2.4-6.1
		c1.6-1.5,3.7-2.2,6.5-2.2C1722.6,1141.2,1724.7,1141.9,1726.4,1143.4z"/>
	<path class="st7" d="M1792.5,1184.8c1,1.3,1.5,2.9,1.5,4.8c0,1.3-0.4,2.6-1.2,3.7c-0.8,1.1-1.9,2.1-3.3,2.9
		c-2.7,1.4-5.8,2.6-9.3,3.5c-3.5,0.9-6.8,1.4-9.8,1.4c-6.3,0-11.7-1.2-16.4-3.6c-4.7-2.4-8.3-5.9-10.8-10.4
		c-2.5-4.5-3.8-9.8-3.8-15.9c0-5.9,1.2-11.1,3.6-15.6c2.4-4.5,5.8-8.1,10.1-10.6c4.3-2.5,9.2-3.8,14.7-3.8c5.2,0,9.9,1.2,13.8,3.5
		c4,2.3,7,5.6,9.2,9.9s3.3,9.3,3.3,15c0,1.7-0.4,3-1.2,3.9c-0.8,0.9-2,1.4-3.5,1.4h-32.9c0.5,4.6,2,8,4.2,10.1
		c2.3,2.1,5.5,3.1,9.8,3.1c2.3,0,4.3-0.3,6.1-0.8c1.8-0.6,3.8-1.3,6-2.2c1.1-0.5,2.2-0.9,3.2-1.2c1-0.4,1.9-0.5,2.7-0.5
		C1790.3,1182.9,1791.6,1183.6,1792.5,1184.8z M1760.4,1156.4c-2,2.2-3.3,5.3-3.6,9.3h22.7c-0.2-4.2-1.3-7.3-3.1-9.4
		c-1.8-2.1-4.4-3.2-7.8-3.2C1765.1,1153.2,1762.4,1154.3,1760.4,1156.4z"/>
	<path class="st7" d="M1814.5,1199.9c-3.5-0.8-6.6-2-9.3-3.8c-1.2-0.7-2.1-1.6-2.7-2.8c-0.6-1.2-0.9-2.5-0.9-4
		c0-1.8,0.5-3.3,1.5-4.5c1-1.2,2.3-1.8,3.8-1.8c1,0,2,0.2,3.1,0.5c1,0.4,2.1,0.8,3.2,1.2c2.2,1,4.4,1.8,6.5,2.4
		c2.1,0.6,4.7,0.9,7.9,0.9c2.7,0,4.9-0.4,6.4-1.3c1.5-0.9,2.3-2,2.3-3.5c0-1.1-0.3-2-1-2.6c-0.7-0.7-1.9-1.3-3.7-1.8
		c-1.8-0.6-4.7-1.2-8.6-2c-7-1.3-12-3.3-15.1-6c-3.1-2.7-4.6-6.4-4.6-11.2c0-3.5,1.1-6.7,3.2-9.5c2.2-2.8,5.1-5,8.9-6.6
		c3.8-1.6,8-2.4,12.7-2.4c3.4,0,6.7,0.4,9.9,1.3c3.2,0.9,6.1,2.1,8.6,3.6c2.4,1.5,3.6,3.7,3.6,6.6c0,1.9-0.5,3.5-1.5,4.7
		c-1,1.3-2.3,1.9-3.8,1.9c-1.8,0-4-0.7-6.5-2.1c-2-1-3.7-1.8-5.3-2.3c-1.6-0.5-3.5-0.8-5.7-0.8c-2.4,0-4.4,0.5-5.8,1.4
		c-1.4,0.9-2.1,2.1-2.1,3.7c0,1.6,0.8,2.9,2.5,3.8s4.8,1.7,9.5,2.6c5.2,1,9.4,2.3,12.3,3.7c3,1.4,5.1,3.3,6.5,5.5c1.3,2.2,2,5,2,8.3
		c0,5.6-2.3,10-6.9,13.3c-4.6,3.3-10.7,4.9-18.4,4.9C1822.2,1201,1818,1200.6,1814.5,1199.9z"/>
</g>
<g>
	<path class="st1" d="M1539.5,1395.3c-0.5-19.4-14.9-35.4-34.2-37.9c-2.1-0.3-4.1-0.4-6.2-0.3c-3.9,0.1-7.7,0.8-11.3,2
		c-16.5,5.5-27.4,20.9-26.9,38.4c0.3,10.5,4.6,20.3,12.3,27.5c7.4,7,16.9,10.8,27,10.8c0.4,0,0.7,0,1.1,0
		c13.6-0.4,25.9-7.6,32.8-19.4c3-5.2,4.8-10.8,5.3-16.8C1539.5,1398,1539.6,1396.6,1539.5,1395.3 M1524.7,1395.7
		c0.2,5.9-1.9,11.8-5.7,16.4c-4.5,5.4-11.1,8.6-18,8.8c-13.4,0.4-24.8-10.3-25.1-23.8c-0.3-9.3,4.7-17.8,13-22.2
		c3.4-1.8,7-2.8,10.8-2.9c0.2,0,0.4,0,0.6,0c2.4,0,4.8,0.4,7.1,1.1c9.5,2.9,16.5,11.4,17.3,21.3l0,0.4
		C1524.7,1395,1524.7,1395.3,1524.7,1395.7"/>
	<path class="st1" d="M1603.3,1395.3c-0.5-19.4-14.9-35.4-34.2-37.9c-2.1-0.3-4.1-0.4-6.2-0.3c-3.9,0.1-7.7,0.8-11.3,2
		c-16.6,5.5-27.4,20.9-26.9,38.4c0.3,10.5,4.6,20.3,12.3,27.5c7.4,7,16.9,10.8,27,10.8c0.4,0,0.7,0,1.1,0
		c13.6-0.4,25.9-7.6,32.8-19.4c3-5.2,4.8-10.8,5.3-16.8C1603.3,1398,1603.4,1396.6,1603.3,1395.3 M1588.5,1395.7
		c0.2,5.9-1.9,11.8-5.7,16.4c-4.5,5.4-11.1,8.6-18,8.8c-13.4,0.4-24.7-10.3-25.1-23.8c-0.3-9.3,4.7-17.8,13-22.2
		c3.4-1.8,7-2.8,10.8-2.9c0.2,0,0.4,0,0.6,0c2.4,0,4.8,0.4,7.1,1.1c9.5,2.9,16.5,11.4,17.3,21.3l0,0.4
		C1588.4,1395,1588.5,1395.3,1588.5,1395.7"/>
	<path class="st1" d="M1249.5,1422.6c0.6-3.1,0.1-6-1.5-8c-1.5-1.9-4-2.9-7-3h0c0,0-0.1,0-0.1,0c-3.3,0-6.4,1.9-8.3,5.1
		c-0.5,0.9-3,2.7-5.4,3c-6.4,0.6-12-0.6-16.6-3.4l-0.2-0.1l0,0c-5.5-3.6-9.1-9.6-9.9-16.7c-0.1-0.7-0.1-1.4-0.2-2.1l0-0.3
		c0-0.2,0-0.4,0-0.6c0-0.2,0-0.4,0-0.6l0-0.3c0-0.7,0.1-1.4,0.2-2.1c0.9-7,4.5-13.1,9.9-16.7l0,0l0.2-0.2c4.6-2.9,10.1-4,16.6-3.4
		c2.4,0.2,4.9,2.1,5.4,3c1.9,3.2,5,5.1,8.3,5.1h0.1c3.1,0,5.5-1.1,7-3c1.6-2,2.2-4.9,1.5-8c-0.4-1.7-1.4-3.4-3-4.7
		c-6.1-5.2-14.2-8-22.8-8c-2.3,0-4.5,0.2-6.9,0.6c-11.8,1.9-22.2,8.7-27.7,18.1c-3.9,6-5.9,13-5.8,20.2c-0.1,7.3,1.9,14.3,5.8,20.2
		c5.6,9.4,15.9,16.1,27.7,18.1c11.2,1.9,22-0.9,29.7-7.4C1248.1,1426,1249.2,1424.4,1249.5,1422.6"/>
	<path class="st1" d="M1330.9,1435.3c3.1,0.1,5.5-0.7,7.1-2.3c1.5-1.4,2.2-3.4,2.2-5.9c0-2.8-1.3-5.1-4.1-7.3
		c-4.1-2.5-4.8-4.1-4.8-11.5v-43.5c0-3.5-2.7-7.3-7.6-7.3c-4.9,0-6.7,3.8-6.7,7.3v1.5l-0.4-0.3c-5.6-4.5-12.4-7.4-19.5-8.4
		c-1.7-0.2-3.4-0.3-5.1-0.3c-0.4,0-0.7,0-1.1,0c-3.8,0.1-7.6,0.8-11.3,2c-16.4,5.5-27.2,20.8-26.7,38.1c0.3,10.4,4.6,20.1,12.2,27.3
		c7.3,6.9,16.8,10.7,26.8,10.7c0.4,0,0.7,0,1.1,0c9.2-0.3,18-3.7,24.8-9.8l0.3-0.2l0.1,0.3C1320.5,1431.6,1324.9,1435,1330.9,1435.3
		 M1310.5,1411.9c-4.4,5.3-10.9,8.4-17.8,8.6c-0.2,0-0.4,0-0.6,0c-13,0-23.8-10.4-24.1-23.4c-0.2-9.2,4.6-17.6,12.8-21.9
		c3.3-1.8,6.9-2.7,10.6-2.8c0.2,0,0.4,0,0.6,0c2.3,0,4.7,0.4,7,1c9.4,2.8,16.2,11.3,17,21l0,0.4c0,0.3,0.1,0.7,0.1,1
		C1316.4,1401.7,1314.4,1407.4,1310.5,1411.9"/>
	<path class="st1" d="M1363.6,1392.2l0,25.1v10.8v0.1c0,3.9-3,7.5-7.6,7.4c-1.9,0-3.5-0.7-4.8-2.1c-1.6-1.6-2.4-3.6-2.4-5.9l0-0.5
		l0.1-0.1l-0.1,0v-5.1v-11v-26.7l0,0c0-7.3-0.7-8.9-4.8-11.5c-2.8-2.2-4.1-4.5-4.1-7.3c0-2.4,0.8-4.4,2.2-5.9c1.6-1.6,4-2.4,7.1-2.3
		c1.3,0.1,2.6,0.3,3.7,0.7c4.1,1.3,7.1,4.3,8.7,8.8l0.1,0.3l0.3-0.2c0,0,0.9-0.7,1.9-1.4c0.6-0.5,1.3-0.9,1.9-1.3c0,0,0,0,0,0
		c0.3-0.2,0.6-0.4,0.8-0.5l-0.1,0.1c12.5-7.6,20.9-6.6,20.9-6.6c5.5,0,10.3,1.4,14.4,4c4,2.7,7.2,6.4,9.3,11
		c2.1,4.6,3.2,9.6,3.2,15.1v28.2h0l0,1.4h0v4.7v6.1v0.1c0,0.5-0.1,1-0.2,1.6c-0.6,3.3-3.4,6.2-7.4,6.1c0,0-0.1,0-0.1,0
		c0,0-0.1,0-0.1,0c-2,0-3.6-0.7-5-2.2c-1.6-1.6-2.4-3.7-2.4-6.1l0-1.4l0,0v0l0,0v-4v-11.3l0,0v-12v-9.7c0-10.7-6.6-15.6-15.8-15.6
		C1383.6,1373.1,1363.6,1373.5,1363.6,1392.2"/>
	<path class="st1" d="M1533.5,1313.5c-0.2-0.9-0.6-1.6-1.3-2.2c-1.9-1.6-4.4-1.7-6.2-0.2c-16,13.3-50.2,20.9-69.1,24.3l-7.4,1.3
		l1.3-7.8c0.5-3,1-6.4-1.3-8.4c-1.1-1-2.7-1.6-4.4-1.9l-0.4-0.1c-2.7-0.4-5.4,0.4-7.4,2.4c-1.2,1.2-2.2,3.6-2.5,5.2l-2.1,13
		l-0.5,0.1c-3,0.4-4.7,0.6-4.7,0.6c-7.2,0.7-12.7,0.1-16.7-0.2c-2.8-0.3-4.8-0.5-5.7,0c-1.9,0.9-2.4,1.5-3,3.2
		c-0.6,1.9-0.3,4.2,1,6.7c2.6,4.7,7.9,6.1,10.9,6.5c0.1,0,6.7,0.6,14.1-1.2c0.1,0,0.1,0,0.2,0c0.2,0,0.4,0.1,0.5,0.2
		c0.2,0.2,0.3,0.4,0.2,0.7l-0.9,5.4l-1.4,9.9l-0.5,6c-0.3,4.8-0.5,11.4-0.5,15.8c0,6,0.5,11.5,1.4,16.3c1.1,5.7,2.8,10.5,5.1,14.4
		c5.2,8.9,13.8,13.4,25.6,13.4c6.3,0,17.4-3.5,22.9-6.6c-0.4-0.3-0.9-0.5-1.4-0.7c-0.7-0.3-1.2-1-1.7-1.4c-2.5-2.1-6.8-5.8-8.2-9.9
		c-2.3,2.7-7.6,2.8-8.2,2.8c-6.3,0-11.6-2.6-14.1-6.9c-2.7-4.5-4-12.3-4-23.2c0-3.1,0.1-9.1,0.3-14.1c0.2-8.4,1.9-19,2.7-23.1l0-0.2
		l0.2,0c15.2-2.4,34.2-6.9,51.9-12.5c15.2-4.8,26.8-9.4,29.6-11.9C1532.6,1324.7,1534.6,1319.2,1533.5,1313.5"/>
	<g>
		<path class="st1" d="M1403.8,1502.7c-1.5-1.1-2.2-2.4-2.2-4.1c0-2,1.3-3.3,3.5-3.2c3.6,0.6,6.8,3.8,13.2,3.8
			c4.8,0,7.9-1.5,7.9-4.5c0-3.5-4.4-4.6-9.8-5.8c-6.8-1.5-13.9-4.1-13.9-12.2c0-6.9,5.8-11.4,15.8-11.4c4.7,0,9.1,1.2,11.7,2.8
			c1.6,0.9,2.5,2.2,2.5,3.6c0,3.1-2.5,3.9-5.2,3.2c-2.1-0.5-5-2.5-9.4-2.5c-4.1,0-6.8,0.8-6.8,4c0,3.4,4.2,4.2,10.1,5.5
			c6.4,1.4,13.5,3.5,13.5,11.9c0,6.2-4,12.3-16.7,12.3C1412.2,1506.3,1406.7,1504.9,1403.8,1502.7"/>
		<path class="st1" d="M1438.7,1485.9c0-11.9,7.7-20.4,20.7-20.4c4.5,0,8.5,1.1,10.8,2.8c1.3,1,2.2,2.3,2.2,4.1
			c0,1.8-1.3,3.5-3.6,3.5c-2.8,0-4.2-2.3-9.4-2.3c-7.3,0-11.6,5.4-11.6,12.5s4.2,12.5,11.8,12.5c5.2,0,6.7-2.3,9.4-2.3
			c2.3,0,3.6,1.6,3.6,3.5c0,1.7-0.9,3-2.3,3.9c-2.5,1.8-6.6,2.8-11.2,2.8C1446.4,1506.3,1438.7,1497.7,1438.7,1485.9"/>
		<path class="st1" d="M1478.2,1501v-31.1c0-2,1.2-3.9,3.6-3.9c2.5,0,3.5,1.3,3.5,3.1v3.4h0.2c2.1-3.8,6.2-6.9,10.8-7.1
			c2.8,0,4.1,1.9,4.1,4c0,2-1.2,4-4.1,4c-5.5,0.2-9.3,3.8-9.3,10.2l-0.1,17.3c0,2.5-1.3,4.7-4.3,4.7
			C1479.6,1505.7,1478.2,1503.5,1478.2,1501"/>
		<path class="st1" d="M1504.6,1501v-30.2c0-2.5,1.3-4.7,4.3-4.7c3.1,0,4.4,2.2,4.4,4.7v30.2c0,2.5-1.3,4.7-4.4,4.7
			C1505.9,1505.7,1504.6,1503.5,1504.6,1501"/>
		<path class="st1" d="M1529.7,1499h-0.2v3.2c0,1.8-1,3.6-3.5,3.6c-2.4,0-3.5-1.8-3.5-3.8v-50.6c0-2.5,1.4-4.6,4.4-4.6
			s4.3,2.2,4.3,4.6v19.5h0.2c2.2-2.9,7.2-5.4,12.3-5.4c11.1,0,18.2,8.2,18.2,20.2c0,11.8-6.9,20.6-18.2,20.6
			C1537.8,1506.3,1532.3,1503.6,1529.7,1499 M1552.9,1485.9c0-7.8-4.6-12.5-11-12.5c-6.9,0-11.2,4.6-11.2,12.3s4.2,12.6,11.1,12.6
			C1548.4,1498.4,1552.9,1493.6,1552.9,1485.9"/>
		<path class="st1" d="M1566.2,1485.7c0-12.2,8-20.2,19.2-20.2c11.6,0,18,7.3,18,17.9c0,3.6-1.2,5.5-4.9,5.5h-23.3
			c0,5.1,4,9.7,12.7,9.7c5.8,0,7.5-2.2,10.2-2.2c2.4,0,3.7,1.6,3.7,3.5c0,1.7-0.9,3-2.4,4c-2.5,1.6-6.8,2.6-11.4,2.6
			C1573.6,1506.3,1566.2,1498.2,1566.2,1485.7 M1594.4,1482.8c0.1-0.4,0.1-1.1,0.1-1.4c0-4.8-2.8-8.5-9.3-8.5
			c-5.8,0-10.1,4.4-10.1,9.9H1594.4z"/>
		<path class="st1" d="M1504.4,1458.8c0-2.8,1.9-4.4,4.7-4.4c2.7,0,4.6,1.7,4.6,4.4c0,2.7-1.8,4.6-4.6,4.6
			C1506.3,1463.3,1504.4,1461.5,1504.4,1458.8"/>
	</g>
</g>
<g>
	
		<ellipse id="Ellipse_21_3_" transform="matrix(0.9712 -0.2384 0.2384 0.9712 -105.232 299.0991)" class="st8" cx="1184.1" cy="584.6" rx="102.1" ry="104.5"/>
	<path class="st7" d="M1173.7,653.4l-12.2-16.6c-9.8-13.3-18.6-27.4-26.3-42l-9.1,6.9c-4.1,3.1-10,2.3-13.1-1.8
		c-3.1-4.1-2.3-10,1.8-13.1l15.9-12c2.7-2.1,6.3-2.8,9.6-2c3.4,0.8,6.2,3,7.7,6.1c4.9,10,10.4,19.8,16.4,29.2l11.1-51
		c1.8-8.3,4.5-20.8,14.7-28.3c14.6-10.7,33.5-3.7,42.6-0.4c4.8,1.8,7.3,7.2,5.5,12s-7.2,7.3-12,5.5c-9.2-3.4-19.4-6.3-25.1-2.1
		c-4.2,3.1-5.9,9.9-7.5,17.3L1173.7,653.4z"/>
</g>
</svg>
