<?xml version="1.0" encoding="utf-8"?>
<!-- Generator: Adobe Illustrator 24.2.0, SVG Export Plug-In . SVG Version: 6.00 Build 0)  -->
<svg version="1.1" id="Layer_1" xmlns="http://www.w3.org/2000/svg" xmlns:xlink="http://www.w3.org/1999/xlink" x="0px" y="0px"
	 viewBox="0 0 2880 1800" style="enable-background:new 0 0 2880 1800;" xml:space="preserve">
<style type="text/css">
	.st0{opacity:0.2;fill:#FF8121;enable-background:new    ;}
	.st1{fill:#FFA321;}
	.st2{fill:#FFFFFF;}
	.st3{opacity:0.974;enable-background:new    ;}
	.st4{fill:#FF8121;}
	.st5{opacity:0.974;fill:#FF8121;enable-background:new    ;}
	.st6{opacity:0.974;fill:#FFFFFF;enable-background:new    ;}
</style>
<g>
	<path id="Tracé_191_12_" class="st0" d="M1743.4,858.7c6.2-10.5,11-19.4,14.1-34.1c13.1-61.6-8.8-86.8-88.5-97.7
		c-88.3-12.2-243,98.8-328.4-50.5S892.3,893.2,1161.9,980C1416.6,1062,1696.3,938.5,1743.4,858.7z"/>
	<path class="st1" d="M1903.6,1252.2h-929c-49.9,0-90.3-40.4-90.3-90.3v0c0-49.9,40.4-90.3,90.3-90.3h929
		c49.9,0,90.3,40.4,90.3,90.3v0C1993.9,1211.8,1953.5,1252.2,1903.6,1252.2z"/>
	<g>
		<g>
			<path class="st2" d="M950.9,1197.6c-1.6-1.6-2.5-3.9-2.5-6.7v-66c0-2.7,0.7-4.9,2.2-6.4c1.5-1.5,3.6-2.2,6.4-2.2h29.6
				c9,0,16.1,2.3,21.1,6.8s7.5,10.9,7.5,19.1c0,8.2-2.5,14.5-7.5,19.1s-12.1,6.8-21.1,6.8h-19.8v22.7c0,2.8-0.8,5.1-2.5,6.7
				s-3.9,2.5-6.7,2.5S952.5,1199.3,950.9,1197.6z M998,1142.4c0-8-4.6-12-13.8-12h-17.4v23.9h17.4
				C993.4,1154.3,998,1150.3,998,1142.4z"/>
			<path class="st2" d="M1082.5,1164.5v27.2c0,2.6-0.8,4.6-2.4,6.1c-1.6,1.5-3.8,2.2-6.5,2.2c-2.7,0-4.9-0.7-6.5-2.2
				c-1.6-1.5-2.4-3.5-2.4-6.1v-27.4c0-3.5-0.7-6-2.2-7.7c-1.5-1.7-3.7-2.5-6.8-2.5c-3.7,0-6.7,1.2-8.9,3.5c-2.2,2.4-3.4,5.5-3.4,9.4
				v24.7c0,2.6-0.8,4.6-2.4,6.1c-1.6,1.5-3.7,2.2-6.5,2.2c-2.8,0-4.9-0.7-6.5-2.2c-1.6-1.5-2.4-3.5-2.4-6.1v-67.9
				c0-2.4,0.8-4.4,2.5-5.9c1.7-1.5,3.9-2.2,6.7-2.2c2.6,0,4.7,0.7,6.2,2.1c1.6,1.4,2.4,3.3,2.4,5.7v25.7c2-3,4.7-5.2,7.9-6.8
				c3.2-1.5,6.9-2.3,11-2.3C1075.8,1140.2,1082.5,1148.3,1082.5,1164.5z"/>
			<path class="st2" d="M1138.3,1141.8c1.3-0.8,2.7-1.2,4.2-1.2c2.3,0,4.3,0.7,6,2.2c1.7,1.5,2.6,3.2,2.6,5.2c0,1.1-0.3,2.2-0.8,3.3
				l-31.7,65c-0.8,1.6-1.8,2.9-3.2,3.7c-1.3,0.8-2.7,1.2-4.2,1.2c-2.2,0-4.1-0.7-5.8-2.1c-1.6-1.4-2.5-3.1-2.5-5.2
				c0-1.3,0.3-2.4,0.8-3.5l7.8-16.1l-21-43c-0.5-1.1-0.7-2.2-0.7-3.2c0-2.1,0.9-3.9,2.8-5.4c1.8-1.5,3.9-2.2,6.3-2.2
				c1.6,0,3,0.4,4.4,1.2c1.3,0.8,2.4,2.1,3.2,3.7l14.6,31.8l14.3-31.8C1136,1143.8,1137,1142.6,1138.3,1141.8z"/>
			<path class="st2" d="M1167.5,1199.2c-3.5-0.8-6.6-2-9.3-3.8c-1.2-0.7-2.1-1.6-2.7-2.8c-0.6-1.2-0.9-2.5-0.9-4
				c0-1.8,0.5-3.3,1.5-4.5c1-1.2,2.3-1.8,3.8-1.8c1,0,2,0.2,3.1,0.5c1,0.4,2.1,0.8,3.2,1.2c2.2,1,4.4,1.8,6.5,2.4
				c2.1,0.6,4.8,0.9,7.9,0.9c2.7,0,4.9-0.4,6.4-1.3c1.5-0.9,2.3-2,2.3-3.5c0-1.1-0.3-2-1-2.7c-0.7-0.7-1.9-1.3-3.7-1.8
				c-1.8-0.6-4.7-1.2-8.6-2c-7-1.3-12-3.3-15.1-6c-3.1-2.7-4.6-6.4-4.6-11.2c0-3.5,1.1-6.7,3.2-9.5s5.1-5,8.9-6.7
				c3.8-1.6,8-2.4,12.7-2.4c3.4,0,6.7,0.4,9.9,1.3c3.2,0.9,6.1,2.1,8.6,3.7c2.4,1.5,3.7,3.7,3.7,6.6c0,1.9-0.5,3.5-1.5,4.7
				s-2.3,1.9-3.8,1.9c-1.8,0-4-0.7-6.5-2.1c-2-1-3.8-1.8-5.4-2.3c-1.6-0.5-3.5-0.8-5.7-0.8c-2.4,0-4.4,0.5-5.8,1.4
				c-1.4,0.9-2.1,2.1-2.1,3.7c0,1.6,0.8,2.9,2.5,3.8c1.6,0.9,4.8,1.7,9.5,2.6c5.3,1,9.4,2.3,12.4,3.7c3,1.5,5.1,3.3,6.5,5.5
				c1.3,2.2,2,5,2,8.4c0,5.6-2.3,10-6.9,13.3s-10.7,4.9-18.4,4.9C1175.2,1200.4,1171.1,1200,1167.5,1199.2z"/>
			<path class="st2" d="M1217,1128.5c-1.8-1.6-2.7-3.8-2.7-6.5c0-2.7,0.9-4.9,2.7-6.5c1.8-1.6,4.3-2.4,7.4-2.4
				c3.1,0,5.5,0.8,7.4,2.4c1.9,1.6,2.8,3.8,2.8,6.4c0,2.8-0.9,4.9-2.7,6.5c-1.8,1.6-4.3,2.4-7.4,2.4
				C1221.3,1131,1218.8,1130.2,1217,1128.5z M1218,1198c-1.7-1.4-2.5-3.5-2.5-6.2v-43c0-2.7,0.9-4.8,2.6-6.2
				c1.7-1.4,3.8-2.1,6.4-2.1c2.5,0,4.6,0.7,6.3,2.1c1.7,1.4,2.5,3.5,2.5,6.2v43c0,2.8-0.8,4.8-2.5,6.2c-1.7,1.4-3.8,2.1-6.3,2.1
				C1221.8,1200.1,1219.7,1199.4,1218,1198z"/>
			<path class="st2" d="M1303.1,1142.7c1.6,1.5,2.4,3.6,2.4,6.1v64.3c0,2.4-0.9,4.4-2.5,5.9c-1.7,1.5-3.9,2.2-6.7,2.2
				c-2.6,0-4.7-0.7-6.2-2.1c-1.6-1.4-2.4-3.3-2.4-5.7V1191c-1.7,2.9-4.2,5.2-7.4,6.8c-3.2,1.6-6.7,2.5-10.7,2.5
				c-5,0-9.5-1.2-13.3-3.7c-3.8-2.4-6.8-5.9-9-10.4s-3.2-9.8-3.2-15.7c0-6,1.1-11.2,3.2-15.8c2.2-4.6,5.2-8.2,9.1-10.7
				c3.9-2.6,8.3-3.8,13.3-3.8c4,0,7.6,0.8,10.8,2.5c3.2,1.7,5.6,4,7.4,7v-0.9c0-2.5,0.8-4.5,2.4-6.1c1.6-1.5,3.8-2.3,6.4-2.3
				S1301.5,1141.2,1303.1,1142.7z M1284.5,1182.6c2.2-2.8,3.4-6.9,3.4-12.3c0-5.3-1.1-9.4-3.4-12.3c-2.2-2.9-5.4-4.3-9.6-4.3
				s-7.4,1.5-9.7,4.4c-2.3,2.9-3.4,7.1-3.4,12.4c0,5.3,1.1,9.3,3.4,12.1c2.3,2.8,5.5,4.2,9.7,4.2S1282.2,1185.4,1284.5,1182.6z"/>
			<path class="st2" d="M1372.5,1142.6c1.6,1.5,2.4,3.5,2.4,6.1v43.2c0,2.4-0.8,4.4-2.5,5.9c-1.7,1.5-3.9,2.2-6.5,2.2
				c-2.5,0-4.5-0.7-6-2.1c-1.5-1.4-2.2-3.3-2.2-5.7v-1.2c-1.8,3-4.2,5.3-7.1,6.8c-2.9,1.6-6.3,2.4-10,2.4c-7.3,0-12.8-2-16.3-6.1
				s-5.4-10.2-5.4-18.3v-27.2c0-2.6,0.8-4.6,2.4-6.1c1.6-1.5,3.8-2.2,6.5-2.2c2.8,0,4.9,0.8,6.5,2.2c1.6,1.5,2.4,3.5,2.4,6.1v27.6
				c0,3.5,0.7,6,2.2,7.7c1.5,1.6,3.7,2.5,6.7,2.5c3.4,0,6.3-1.2,8.4-3.5c2.2-2.4,3.2-5.5,3.2-9.3v-24.9c0-2.6,0.8-4.6,2.4-6.1
				c1.6-1.5,3.7-2.2,6.5-2.2C1368.7,1140.4,1370.9,1141.1,1372.5,1142.6z"/>
			<path class="st2" d="M1438.8,1184.1c1,1.3,1.5,2.9,1.5,4.8c0,1.3-0.4,2.6-1.2,3.7c-0.8,1.1-1.9,2.1-3.3,2.9
				c-2.7,1.4-5.8,2.6-9.3,3.5c-3.5,0.9-6.8,1.4-9.8,1.4c-6.3,0-11.8-1.2-16.4-3.7c-4.7-2.4-8.3-5.9-10.8-10.4
				c-2.5-4.5-3.8-9.8-3.8-16c0-5.9,1.2-11.1,3.7-15.7c2.4-4.6,5.8-8.1,10.1-10.7c4.3-2.6,9.2-3.8,14.7-3.8c5.3,0,9.9,1.2,13.8,3.5
				c4,2.3,7.1,5.6,9.2,9.9c2.2,4.3,3.3,9.3,3.3,15c0,1.7-0.4,3-1.2,3.9c-0.8,0.9-2,1.4-3.5,1.4h-33c0.6,4.6,2,8,4.2,10.1
				c2.3,2.1,5.5,3.1,9.8,3.1c2.3,0,4.3-0.3,6.1-0.8c1.8-0.6,3.8-1.3,6-2.2c1.1-0.5,2.2-0.9,3.2-1.2c1-0.4,1.9-0.5,2.7-0.5
				C1436.6,1182.2,1437.8,1182.8,1438.8,1184.1z M1406.6,1155.6c-2,2.2-3.3,5.3-3.7,9.4h22.7c-0.2-4.2-1.3-7.3-3.1-9.4
				c-1.8-2.1-4.5-3.2-7.8-3.2S1408.6,1153.5,1406.6,1155.6z"/>
			<path class="st2" d="M1483.4,1167.8c0-4.6,2.8-6.9,8.4-6.9h23.1c5.6,0,8.4,2.3,8.4,6.9s-2.8,6.9-8.4,6.9h-23.1
				C1486.2,1174.8,1483.4,1172.5,1483.4,1167.8z"/>
			<path class="st2" d="M1587.1,1195.3c-6.1-3.5-10.8-8.4-14.1-14.8c-3.3-6.4-4.9-14-4.9-22.6c0-8.6,1.6-16.2,4.9-22.6
				s8-11.3,14.1-14.8c6.1-3.5,13.3-5.2,21.4-5.2c10.3,0,19.2,2.8,26.6,8.5c1.2,0.9,2,1.9,2.5,2.8c0.5,0.9,0.7,2.1,0.7,3.5
				c0,2-0.6,3.8-1.7,5.2c-1.1,1.5-2.5,2.2-4.2,2.2c-1.1,0-2.1-0.1-2.9-0.4c-0.8-0.3-1.8-0.8-2.8-1.5c-3.2-2-6.1-3.5-8.7-4.4
				s-5.5-1.4-8.6-1.4c-7.5,0-13.2,2.3-17,7c-3.8,4.7-5.7,11.6-5.7,20.9c0,18.7,7.6,28,22.7,28c2.9,0,5.7-0.5,8.2-1.4
				c2.6-0.9,5.6-2.4,9.1-4.4c1.2-0.7,2.1-1.2,2.9-1.5c0.8-0.3,1.7-0.4,2.7-0.4c1.6,0,3,0.7,4.2,2.2c1.1,1.5,1.7,3.2,1.7,5.2
				c0,1.4-0.3,2.6-0.8,3.6c-0.5,1-1.3,1.9-2.4,2.8c-7.5,5.7-16.3,8.5-26.6,8.5C1600.4,1200.5,1593.2,1198.7,1587.1,1195.3z"/>
			<path class="st2" d="M1705.6,1164.5v27.2c0,2.6-0.8,4.6-2.4,6.1c-1.6,1.5-3.8,2.2-6.5,2.2c-2.8,0-4.9-0.7-6.5-2.2
				c-1.6-1.5-2.4-3.5-2.4-6.1v-27.4c0-3.5-0.7-6-2.2-7.7c-1.5-1.7-3.7-2.5-6.8-2.5c-3.7,0-6.7,1.2-8.9,3.5c-2.2,2.4-3.4,5.5-3.4,9.4
				v24.7c0,2.6-0.8,4.6-2.4,6.1c-1.6,1.5-3.7,2.2-6.5,2.2c-2.8,0-4.9-0.7-6.5-2.2c-1.6-1.5-2.4-3.5-2.4-6.1v-67.9
				c0-2.4,0.8-4.4,2.5-5.9c1.7-1.5,3.9-2.2,6.7-2.2c2.6,0,4.7,0.7,6.2,2.1c1.6,1.4,2.4,3.3,2.4,5.7v25.7c2-3,4.7-5.2,7.9-6.8
				c3.2-1.5,6.9-2.3,11-2.3C1698.9,1140.2,1705.6,1148.3,1705.6,1164.5z"/>
			<path class="st2" d="M1720.4,1128.5c-1.8-1.6-2.7-3.8-2.7-6.5c0-2.7,0.9-4.9,2.7-6.5c1.8-1.6,4.3-2.4,7.4-2.4
				c3.1,0,5.5,0.8,7.4,2.4c1.9,1.6,2.8,3.8,2.8,6.4c0,2.8-0.9,4.9-2.7,6.5c-1.8,1.6-4.3,2.4-7.4,2.4
				C1724.7,1131,1722.3,1130.2,1720.4,1128.5z M1721.4,1198c-1.7-1.4-2.5-3.5-2.5-6.2v-43c0-2.7,0.9-4.8,2.6-6.2
				c1.7-1.4,3.8-2.1,6.4-2.1c2.5,0,4.6,0.7,6.3,2.1c1.7,1.4,2.5,3.5,2.5,6.2v43c0,2.8-0.8,4.8-2.5,6.2c-1.7,1.4-3.8,2.1-6.3,2.1
				C1725.3,1200.1,1723.1,1199.4,1721.4,1198z"/>
			<path class="st2" d="M1836.2,1145.9c3.4,3.8,5.1,10,5.1,18.7v27.2c0,2.8-0.8,4.8-2.5,6.2c-1.6,1.4-3.8,2.1-6.4,2.1
				c-2.5,0-4.6-0.7-6.4-2.1c-1.7-1.4-2.6-3.5-2.6-6.2v-27.4c0-3.8-0.6-6.4-1.9-8c-1.3-1.5-3.3-2.3-5.9-2.3c-3.3,0-5.9,1.1-7.9,3.4
				c-2,2.3-2.9,5.5-2.9,9.5v24.7c0,2.8-0.8,4.8-2.5,6.2c-1.6,1.4-3.8,2.1-6.4,2.1c-2.5,0-4.6-0.7-6.4-2.1c-1.7-1.4-2.6-3.5-2.6-6.2
				v-27.4c0-3.8-0.6-6.4-1.9-8c-1.3-1.5-3.3-2.3-5.9-2.3c-3.3,0-5.9,1.1-7.9,3.4c-2,2.3-2.9,5.5-2.9,9.5v24.7c0,2.8-0.8,4.8-2.5,6.2
				c-1.7,1.4-3.8,2.1-6.3,2.1c-2.5,0-4.6-0.7-6.4-2.1c-1.7-1.4-2.6-3.5-2.6-6.2v-43.2c0-2.6,0.9-4.6,2.7-6c1.8-1.4,3.9-2.1,6.4-2.1
				c2.4,0,4.3,0.7,5.9,2.1c1.6,1.4,2.4,3.3,2.4,5.7v1.2c1.9-3,4.3-5.3,7.4-6.8c3-1.6,6.5-2.4,10.3-2.4c4.2,0,7.7,0.8,10.5,2.5
				s5.1,4.4,6.7,8.2c1.8-3.3,4.4-5.9,7.7-7.8c3.3-1.9,7.1-2.9,11.4-2.9C1827.9,1140.2,1832.8,1142.1,1836.2,1145.9z"/>
			<path class="st2" d="M1856.2,1128.5c-1.8-1.6-2.7-3.8-2.7-6.5c0-2.7,0.9-4.9,2.7-6.5c1.8-1.6,4.3-2.4,7.4-2.4
				c3.1,0,5.5,0.8,7.4,2.4c1.9,1.6,2.8,3.8,2.8,6.4c0,2.8-0.9,4.9-2.7,6.5c-1.8,1.6-4.3,2.4-7.4,2.4
				C1860.5,1131,1858,1130.2,1856.2,1128.5z M1857.2,1198c-1.7-1.4-2.5-3.5-2.5-6.2v-43c0-2.7,0.9-4.8,2.6-6.2
				c1.7-1.4,3.8-2.1,6.4-2.1c2.5,0,4.6,0.7,6.3,2.1c1.7,1.4,2.5,3.5,2.5,6.2v43c0,2.8-0.8,4.8-2.5,6.2c-1.7,1.4-3.8,2.1-6.3,2.1
				C1861,1200.1,1858.9,1199.4,1857.2,1198z"/>
			<path class="st2" d="M1936.4,1184.1c1,1.3,1.5,2.9,1.5,4.8c0,1.3-0.4,2.6-1.2,3.7c-0.8,1.1-1.9,2.1-3.3,2.9
				c-2.7,1.4-5.8,2.6-9.3,3.5c-3.5,0.9-6.8,1.4-9.8,1.4c-6.3,0-11.8-1.2-16.4-3.7c-4.7-2.4-8.3-5.9-10.8-10.4
				c-2.5-4.5-3.8-9.8-3.8-16c0-5.9,1.2-11.1,3.7-15.7c2.4-4.6,5.8-8.1,10.1-10.7c4.3-2.6,9.2-3.8,14.7-3.8c5.3,0,9.9,1.2,13.8,3.5
				c4,2.3,7.1,5.6,9.2,9.9c2.2,4.3,3.3,9.3,3.3,15c0,1.7-0.4,3-1.2,3.9c-0.8,0.9-2,1.4-3.5,1.4h-33c0.6,4.6,2,8,4.2,10.1
				c2.3,2.1,5.5,3.1,9.8,3.1c2.3,0,4.3-0.3,6.1-0.8c1.8-0.6,3.8-1.3,6-2.2c1.1-0.5,2.2-0.9,3.2-1.2c1-0.4,1.9-0.5,2.7-0.5
				C1934.1,1182.2,1935.4,1182.8,1936.4,1184.1z M1904.1,1155.6c-2,2.2-3.3,5.3-3.7,9.4h22.7c-0.2-4.2-1.3-7.3-3.1-9.4
				c-1.8-2.1-4.5-3.2-7.8-3.2C1908.9,1152.4,1906.2,1153.5,1904.1,1155.6z"/>
		</g>
	</g>
	<g class="st3">
		<path class="st1" d="M1549.2,1395c-0.5-19.5-14.9-35.5-34.2-38c-2.1-0.3-4.2-0.4-6.2-0.3c-3.9,0.1-7.7,0.8-11.4,2
			c-16.6,5.5-27.4,21-26.9,38.5c0.3,10.5,4.7,20.3,12.3,27.5c7.4,7,16.9,10.8,27.1,10.8c0.4,0,0.7,0,1.1,0
			c13.7-0.4,26-7.6,32.9-19.5c3.1-5.2,4.8-10.9,5.3-16.8C1549.2,1397.8,1549.3,1396.4,1549.2,1395 M1534.3,1395.4
			c0.2,6-1.9,11.8-5.7,16.4c-4.5,5.4-11.1,8.6-18.1,8.8c-13.4,0.4-24.8-10.3-25.2-23.8c-0.3-9.3,4.7-17.9,13-22.3
			c3.4-1.8,7-2.8,10.8-2.9c0.2,0,0.4,0,0.6,0c2.4,0,4.8,0.4,7.1,1.1c9.5,2.9,16.5,11.5,17.3,21.4l0,0.4
			C1534.3,1394.7,1534.3,1395.1,1534.3,1395.4"/>
		<path class="st1" d="M1613.1,1395c-0.5-19.5-14.9-35.5-34.2-38c-2.1-0.3-4.2-0.4-6.2-0.3c-3.9,0.1-7.7,0.8-11.4,2
			c-16.6,5.5-27.4,21-26.9,38.5c0.3,10.5,4.7,20.3,12.3,27.5c7.4,7,16.9,10.8,27.1,10.8c0.4,0,0.7,0,1.1,0
			c13.7-0.4,26-7.6,32.9-19.5c3.1-5.2,4.8-10.9,5.3-16.8C1613.1,1397.8,1613.2,1396.4,1613.1,1395 M1598.2,1395.4
			c0.2,6-1.9,11.8-5.7,16.4c-4.5,5.4-11.1,8.6-18.1,8.8c-13.4,0.4-24.8-10.3-25.2-23.8c-0.3-9.3,4.7-17.9,13-22.3
			c3.4-1.8,7-2.8,10.8-2.9c0.2,0,0.4,0,0.6,0c2.4,0,4.8,0.4,7.1,1.1c9.5,2.9,16.5,11.5,17.3,21.4l0,0.4
			C1598.2,1394.7,1598.2,1395.1,1598.2,1395.4"/>
		<path class="st1" d="M1258.6,1422.4c0.6-3.1,0.1-6-1.5-8c-1.5-1.9-4-2.9-7-3h0c0,0-0.1,0-0.1,0c-3.3,0-6.4,1.9-8.3,5.1
			c-0.5,0.9-3,2.7-5.5,3c-6.4,0.6-12-0.6-16.6-3.4l-0.2-0.1l0,0c-5.5-3.6-9.1-9.7-10-16.7c-0.1-0.7-0.1-1.4-0.2-2.1l0-0.3
			c0-0.2,0-0.4,0-0.6c0-0.2,0-0.4,0-0.6l0-0.3c0-0.7,0.1-1.4,0.2-2.1c0.9-7,4.5-13.1,10-16.7l0,0l0.2-0.2c4.6-2.9,10.2-4,16.6-3.4
			c2.4,0.2,4.9,2.1,5.5,3c1.9,3.2,5,5.1,8.3,5.1h0.1c3.1,0,5.5-1.1,7-3c1.6-2,2.2-4.9,1.5-8c-0.4-1.7-1.4-3.4-3-4.7
			c-6.1-5.2-14.2-8-22.9-8c-2.3,0-4.6,0.2-6.9,0.6c-11.8,2-22.2,8.7-27.8,18.1c-3.9,6-5.9,13-5.8,20.3c-0.1,7.3,1.9,14.3,5.8,20.3
			c5.6,9.4,15.9,16.1,27.8,18.1c11.2,1.9,22.1-0.9,29.8-7.4C1257.2,1425.8,1258.2,1424.2,1258.6,1422.4"/>
		<path class="st1" d="M1340.1,1435.1c3.1,0.1,5.5-0.7,7.1-2.3c1.5-1.4,2.2-3.5,2.2-5.9c0-2.8-1.3-5.1-4.1-7.3
			c-4.1-2.5-4.8-4.1-4.8-11.5v-43.6c0-3.5-2.7-7.3-7.6-7.3c-4.9,0-6.7,3.8-6.7,7.3v1.5l-0.4-0.3c-5.6-4.5-12.4-7.4-19.6-8.4
			c-1.7-0.2-3.4-0.3-5.1-0.3c-0.4,0-0.7,0-1.1,0c-3.9,0.1-7.7,0.8-11.3,2c-16.5,5.5-27.2,20.8-26.8,38.2
			c0.3,10.5,4.6,20.2,12.2,27.4c7.3,6.9,16.9,10.7,26.9,10.7c0.4,0,0.7,0,1.1,0c9.2-0.3,18-3.7,24.9-9.8l0.3-0.2l0.1,0.3
			C1329.7,1431.4,1334.2,1434.8,1340.1,1435.1 M1319.7,1411.7c-4.5,5.3-11,8.5-17.8,8.6c-0.2,0-0.4,0-0.6,0
			c-13,0-23.8-10.4-24.2-23.5c-0.3-9.2,4.7-17.6,12.8-22c3.3-1.8,6.9-2.7,10.7-2.8c0.2,0,0.4,0,0.6,0c2.3,0,4.7,0.4,7,1
			c9.4,2.8,16.2,11.3,17.1,21.1l0,0.4c0,0.3,0.1,0.7,0.1,1C1325.6,1401.4,1323.6,1407.1,1319.7,1411.7"/>
		<path class="st1" d="M1372.9,1392l0,25.1v10.8v0.1c0,3.9-3,7.5-7.6,7.5c-1.9,0-3.5-0.7-4.8-2.1c-1.6-1.6-2.4-3.6-2.4-5.9l0-0.5
			l0.1-0.1l-0.1,0v-5.1v-11V1384l0,0c0-7.3-0.7-9-4.8-11.5c-2.8-2.2-4.1-4.5-4.1-7.3c0-2.4,0.8-4.4,2.2-5.9c1.6-1.6,4-2.4,7.1-2.3
			c1.3,0.1,2.6,0.3,3.8,0.7c4.1,1.3,7.1,4.3,8.8,8.8l0.1,0.3l0.3-0.2c0,0,0.9-0.7,1.9-1.4c0.6-0.5,1.3-0.9,1.9-1.3c0,0,0,0,0,0
			c0.3-0.2,0.6-0.4,0.8-0.5l-0.1,0.1c12.5-7.6,21-6.6,21-6.6c5.5,0,10.4,1.4,14.4,4c4,2.7,7.2,6.4,9.3,11c2.1,4.6,3.2,9.6,3.2,15.1
			v28.2h0l0,1.4h0v4.7v6.2v0.1c0,0.5-0.1,1.1-0.2,1.6c-0.6,3.3-3.4,6.2-7.4,6.1c0,0-0.1,0-0.1,0c0,0-0.1,0-0.1,0c-2,0-3.6-0.7-5-2.2
			c-1.6-1.7-2.4-3.7-2.4-6.1l0-1.4l0,0v0l0,0v-4v-11.3l0,0v-12v-9.7c0-10.7-6.6-15.6-15.8-15.6
			C1393,1372.8,1372.9,1373.1,1372.9,1392"/>
		<path class="st1" d="M1543.1,1313c-0.2-0.9-0.6-1.6-1.3-2.2c-1.9-1.6-4.4-1.7-6.2-0.2c-16.1,13.4-50.3,21-69.2,24.3l-7.4,1.3
			l1.3-7.8c0.5-3,1-6.4-1.3-8.4c-1.1-1-2.7-1.7-4.4-1.9l-0.4-0.1c-2.7-0.4-5.4,0.4-7.4,2.4c-1.2,1.2-2.2,3.6-2.5,5.2l-2.1,13
			l-0.5,0.1c-3,0.4-4.7,0.6-4.7,0.6c-7.2,0.7-12.7,0.1-16.8-0.3c-2.8-0.3-4.8-0.5-5.7,0c-1.9,0.9-2.4,1.5-3,3.2
			c-0.6,1.9-0.3,4.2,1,6.7c2.6,4.7,8,6.1,10.9,6.5c0.1,0,6.7,0.6,14.2-1.2c0.1,0,0.1,0,0.2,0c0.2,0,0.4,0.1,0.5,0.2
			c0.2,0.2,0.3,0.4,0.2,0.7l-0.9,5.4l-1.5,9.9l-0.5,6.1c-0.3,4.8-0.5,11.4-0.5,15.8c0,6,0.5,11.5,1.4,16.4
			c1.1,5.7,2.8,10.6,5.1,14.5c5.2,8.9,13.9,13.4,25.6,13.4c6.3,0,17.5-3.5,23-6.6c-0.4-0.3-0.9-0.5-1.4-0.7c-0.7-0.3-1.2-1-1.7-1.4
			c-2.5-2.1-6.8-5.9-8.2-9.9c-2.3,2.7-7.6,2.8-8.2,2.8c-6.3,0-11.6-2.6-14.2-6.9c-2.7-4.5-4-12.3-4-23.3c0-3.1,0.1-9.1,0.3-14.2
			c0.3-8.4,1.9-19,2.7-23.2l0-0.2l0.2,0c15.3-2.4,34.2-6.9,52-12.5c15.2-4.8,26.9-9.4,29.6-11.9
			C1542.2,1324.3,1544.3,1318.7,1543.1,1313"/>
		<g>
			<path class="st1" d="M1413.2,1502.7c-1.5-1.1-2.2-2.4-2.2-4.1c0-2,1.3-3.3,3.5-3.2c3.6,0.6,6.9,3.8,13.3,3.8
				c4.9,0,7.9-1.5,7.9-4.5c0-3.5-4.4-4.6-9.8-5.8c-6.8-1.5-13.9-4.1-13.9-12.2c0-6.9,5.9-11.4,15.8-11.4c4.7,0,9.1,1.2,11.7,2.9
				c1.6,0.9,2.5,2.2,2.5,3.6c0,3.1-2.5,3.9-5.2,3.2c-2.1-0.5-5-2.5-9.4-2.5c-4.1,0-6.8,0.8-6.8,4c0,3.4,4.2,4.2,10.1,5.5
				c6.4,1.4,13.6,3.5,13.6,12c0,6.2-4,12.3-16.7,12.3C1421.7,1506.3,1416.1,1504.8,1413.2,1502.7"/>
			<path class="st1" d="M1448.1,1485.8c0-11.9,7.7-20.4,20.7-20.4c4.5,0,8.5,1.1,10.8,2.8c1.3,1,2.2,2.3,2.2,4.1
				c0,1.9-1.3,3.5-3.6,3.5c-2.8,0-4.2-2.3-9.4-2.3c-7.3,0-11.6,5.4-11.6,12.5s4.2,12.5,11.8,12.5c5.2,0,6.7-2.3,9.4-2.3
				c2.3,0,3.6,1.6,3.6,3.5c0,1.7-0.9,3-2.3,3.9c-2.5,1.8-6.6,2.9-11.2,2.9C1455.8,1506.3,1448.1,1497.6,1448.1,1485.8"/>
			<path class="st1" d="M1487.8,1501v-31.2c0-2,1.2-3.9,3.6-3.9s3.5,1.3,3.5,3.1v3.4h0.2c2.1-3.8,6.2-6.9,10.8-7.1
				c2.8,0,4.1,1.9,4.1,4c0,2-1.2,4-4.1,4c-5.6,0.2-9.3,3.8-9.3,10.3l-0.1,17.4c0,2.5-1.3,4.7-4.3,4.7
				C1489.2,1505.7,1487.8,1503.4,1487.8,1501"/>
			<path class="st1" d="M1514.2,1501v-30.3c0-2.5,1.3-4.7,4.3-4.7c3.1,0,4.4,2.2,4.4,4.7v30.3c0,2.5-1.3,4.7-4.4,4.7
				C1515.6,1505.7,1514.2,1503.4,1514.2,1501"/>
			<path class="st1" d="M1539.4,1498.9h-0.2v3.2c0,1.8-1,3.6-3.5,3.6c-2.4,0-3.5-1.9-3.5-3.9v-50.7c0-2.5,1.4-4.6,4.4-4.6
				s4.3,2.2,4.3,4.6v19.6h0.2c2.2-2.9,7.2-5.4,12.3-5.4c11.1,0,18.2,8.3,18.2,20.3c0,11.8-6.9,20.7-18.3,20.7
				C1547.5,1506.3,1541.9,1503.6,1539.4,1498.9 M1562.6,1485.9c0-7.8-4.6-12.5-11-12.5c-6.9,0-11.3,4.6-11.3,12.3
				c0,7.7,4.2,12.6,11.1,12.6C1558.1,1498.3,1562.6,1493.5,1562.6,1485.9"/>
			<path class="st1" d="M1575.9,1485.6c0-12.3,8-20.3,19.2-20.3c11.6,0,18,7.3,18,17.9c0,3.6-1.2,5.5-4.9,5.5h-23.4
				c0,5.1,4,9.7,12.7,9.7c5.9,0,7.5-2.2,10.2-2.2c2.4,0,3.7,1.6,3.7,3.5c0,1.7-0.9,3-2.4,4c-2.5,1.6-6.9,2.6-11.4,2.6
				C1583.4,1506.3,1575.9,1498.1,1575.9,1485.6 M1604.2,1482.7c0.1-0.4,0.1-1.1,0.1-1.4c0-4.8-2.9-8.6-9.3-8.6
				c-5.8,0-10.1,4.4-10.1,9.9H1604.2z"/>
			<path class="st1" d="M1514,1458.6c0-2.8,1.9-4.5,4.7-4.5c2.7,0,4.6,1.7,4.6,4.5c0,2.7-1.8,4.6-4.6,4.6
				C1515.9,1463.2,1514,1461.3,1514,1458.6"/>
		</g>
	</g>
	<g id="Groupe_172" transform="translate(-712.981 -1579.706)">
		<g id="Groupe_114" transform="translate(750.068 1577.298) rotate(13)">
			<path id="Tracé_98" class="st1" d="M1587.3,402.6c-9.6,0.5-19.2-1.4-27.9-5.4c-11.2-4.4-22.1-9.4-32.6-15
				c-13.2-7-17.3-19.3-8-24.6c24.1-13.5,48.2-27.2,72.6-40l1.3-82.1c0.7-42.7-45.8-75.5-92.1-65.3c-33.6,7.5-66.2,19-97.2,34.3
				c-55.7,27.3-102.8,63.5-148.6,100c-19.5,15.5-46.9,37.7-39,63.5c5.4,17.6,27,27,42.9,39.7c55.3,44.4,106.4,92.7,159.2,138.8
				c18.5,16.2,37.6,32.7,61.5,43.4c23.9,10.7,54,14.8,75.7,4.8c29.2-13.5,32.4-45.2,32.9-72.8l1.9-119.8
				C1589.1,402.3,1588.2,402.5,1587.3,402.6z"/>
			<g id="Groupe_28" transform="translate(54.445 17.562)">
				<path id="Tracé_100" class="st2" d="M1442.6,273.3c0.1,0.5,0.2,1,0.1,1.5c-0.1,3.2-2.8,5.7-6,5.6c0,0,0,0,0,0
					c-17.2-0.6-29.5,3.1-36.6,10.9c-4.9,5.7-7.3,13-6.8,20.4c0.4,3.2-1.8,6.1-5,6.5c-3.2,0.4-6.1-1.8-6.5-5
					c-0.9-10.8,2.6-21.6,9.7-29.7c9.5-10.4,24.9-15.4,45.6-14.6C1439.8,268.8,1442,270.7,1442.6,273.3z"/>
			</g>
		</g>
	</g>
	<g class="st3">
		<path class="st4" d="M1507.6,452.7l80.6-57.5c0,0,0,0,0,0c1.3-0.9,2.9-2.8,3-6.3c0.2-5.4-3.3-13.8-9.1-22
			c-7.4-10.4-17.5-18.9-24-15.4c-0.2,0.1-0.5,0.2-0.7,0.4c0,0,0,0,0,0c0,0,0,0,0,0l-80.6,57.5c-7,5-10.8,12.7-11.1,20.7
			c-0.2,5.6,1.4,11.4,4.9,16.3C1479,458.5,1495.7,461.2,1507.6,452.7z M1575.7,371.5c5.3,7.4,7.6,13.8,7.7,16.9
			c-2.3-0.8-7.7-4.7-13.4-12.8c-5.3-7.4-7.6-13.8-7.7-16.9C1564.6,359.6,1569.9,363.5,1575.7,371.5z M1547,414.9l-44,31.4
			c-4.1,2.9-9,4-13.9,3.2c-4.9-0.8-9.2-3.5-12.1-7.6c-6-8.4-4-20.1,4.4-26.1l45-32.1l7.1-4.8l-0.4,0.1l22.1-15.8
			c1.2,5,4.2,11,8.5,16.9c4,5.6,8.7,10.6,13.2,13.5l-22.1,15.8L1547,414.9z"/>
		<path class="st4" d="M1611.2,357.8c-3.2-0.5-6.4,0.2-9,2.1c-3.1,2.2-4.9,5.6-5,9.4c-0.1,2.7,0.7,5.2,2.2,7.4
			c3.9,5.4,11.4,6.7,16.8,2.8c3.1-2.2,4.9-5.6,5-9.4c0.1-2.7-0.7-5.2-2.2-7.4C1617.2,360.1,1614.4,358.3,1611.2,357.8z
			 M1609.9,365.6c1.1,0.2,2.1,0.8,2.7,1.7c0.5,0.8,0.8,1.6,0.8,2.6c0,1.3-0.7,2.5-1.8,3.3c-1.9,1.3-4.5,0.9-5.8-1
			c-1.3-1.8-0.8-4.5,1-5.8C1607.7,365.7,1608.8,365.4,1609.9,365.6z"/>
		<path class="st4" d="M1611,349.1c4.4-3.2,7.1-8.1,7.3-13.5c0.1-3.8-1-7.5-3.2-10.7c-2.7-3.8-6.7-6.3-11.3-7
			c-4.6-0.8-9.2,0.3-12.9,3c-4.4,3.2-7.1,8.1-7.3,13.5c-0.1,3.8,1,7.5,3.2,10.7C1592.4,352.8,1603.2,354.7,1611,349.1z
			 M1593.2,340.5c-1.2-1.7-1.8-3.7-1.8-5.8c0.1-3,1.6-5.7,4-7.4c2.1-1.5,4.6-2,7.1-1.6c2.5,0.4,4.7,1.8,6.1,3.8
			c1.2,1.7,1.8,3.7,1.8,5.8c-0.1,3-1.6,5.7-4,7.4C1602.2,345.7,1596.2,344.7,1593.2,340.5z"/>
		<path class="st4" d="M1630.7,351.1c-0.1,2.7,0.7,5.2,2.2,7.4c1.9,2.6,4.7,4.4,7.8,4.9c3.2,0.5,6.4-0.2,9-2.1
			c3.1-2.2,4.9-5.6,5.1-9.4c0.1-2.7-0.7-5.2-2.2-7.4c-3.9-5.4-11.4-6.7-16.8-2.8C1632.7,343.9,1630.9,347.3,1630.7,351.1z
			 M1646.2,349.1c0.5,0.8,0.8,1.7,0.8,2.6c0,1.3-0.7,2.5-1.8,3.3c-0.9,0.7-2,0.9-3.1,0.7c-1.1-0.2-2.1-0.8-2.7-1.7
			c-1.3-1.8-0.8-4.6,1-5.9C1642.2,346.7,1644.9,347.2,1646.2,349.1z"/>
	</g>
	<path id="Tracé_309_2_" class="st1" d="M1590.7,700.9c3.3,3.6,5.2,8.4,5.2,13.3c0,9.3-3.2,17.5-7.9,25.3c-0.6,1.1,0.5,2.2,1.6,1.6
		c15.9-9.3,31.9-15.7,50.1-19.4c11.3-2.3,24.8-2.7,32.4,5.9c5.5,7.2,4.6,9.2,0.7,17.4c-4,7.9-11.7,13.6-18.9,18.6
		c-18.4,14.4-41.7,24.6-64.7,20.8c-23.9-3.6-37.8-15.8-37.1-40C1553.1,727.6,1566.3,674.4,1590.7,700.9z"/>
	<g class="st3">
		<g>
			<path class="st4" d="M1798,340.5c-3-9.3-6.5-17.8-10.4-24.9c-8.5-15.4-17.8-22.7-26.9-21.4c-3,0.4-7.5,2.1-11.5,7.6
				c-6.7,9.2-9.9,26.4-9.5,47.3c-20,6-35.4,14.4-42.1,23.6c-4,5.5-4.2,10.2-3.7,13.3c1.6,9.1,11.5,15.7,28.7,19
				c8,1.5,17.1,2.3,26.9,2.2c3,9.3,6.5,17.8,10.4,24.9c8.5,15.4,17.8,22.7,26.9,21.4c3-0.4,7.5-2.1,11.5-7.6
				c6.7-9.2,9.9-26.4,9.5-47.3c20-6,35.4-14.4,42.1-23.6l0,0c4-5.5,4.2-10.2,3.7-13.3c-1.6-9.1-11.5-15.7-28.7-19
				C1816.9,341.2,1807.7,340.4,1798,340.5z M1756.8,307.3c2.2-3,3.9-3.2,4.5-3.3c6.7-1,17.9,12.3,26.3,36.8
				c-6.1,0.4-12.3,1-18.7,1.9c-6.8,1-13.3,2.2-19.6,3.7C1749.1,327.1,1752.4,313.3,1756.8,307.3z M1797.6,391.2
				c-6.1,1.5-12.7,2.8-19.8,3.8c-7.5,1.1-14.5,1.7-21.1,2c-1.8-6.3-3.3-13.2-4.6-20.6c-1.2-7.1-2-13.8-2.4-20
				c6.1-1.5,12.7-2.8,19.8-3.8c7.5-1.1,14.5-1.7,21.1-2c1.8,6.3,3.3,13.2,4.6,20.6C1796.4,378.3,1797.2,385,1797.6,391.2z
				 M1703.5,383.4c-0.1-0.6-0.4-2.3,1.7-5.3c4.4-6,16.5-13.4,34.9-19.1c0.5,6.4,1.3,13,2.5,19.8c1.1,6.3,2.4,12.4,4,18.3
				C1720.7,396.7,1704.6,390.2,1703.5,383.4z M1790.7,440.3c-2.2,3-3.9,3.2-4.5,3.3c-6.7,1-17.9-12.3-26.3-36.8
				c6.1-0.4,12.3-1,18.7-1.9c6.8-1,13.3-2.2,19.6-3.7C1798.4,420.5,1795,434.3,1790.7,440.3z M1843.9,364.2c0.1,0.6,0.4,2.3-1.7,5.3
				c-4.4,6-16.5,13.4-34.9,19.1c-0.5-6.4-1.3-13-2.5-19.8c-1.1-6.3-2.4-12.4-4-18.3C1826.7,350.9,1842.8,357.4,1843.9,364.2z"/>
			<path class="st4" d="M1766.4,368.5c-3,4.1-2.2,9.9,1.8,12.8c4,2.9,9.7,1.9,12.7-2.2c3-4.1,2.2-9.9-1.8-12.8
				C1775.2,363.4,1769.5,364.4,1766.4,368.5z"/>
		</g>
	</g>
	<g class="st3">
		<g>
			<g>
				<g>
					<path class="st4" d="M1941.8,604.7c-0.6-0.7-1-1.6-0.9-2.6c0.1-2,1.8-3.5,3.8-3.4l18.6,1c2,0.1,3.5,1.8,3.4,3.8
						c-0.1,2-1.8,3.5-3.8,3.4l-18.6-1C1943.3,605.9,1942.5,605.4,1941.8,604.7z"/>
				</g>
				<g>
					<path class="st4" d="M1836.9,529.8c-0.6-0.7-1-1.6-0.9-2.6c0.1-2,1.8-3.5,3.8-3.4l29.3,1.6c2,0.1,3.5,1.8,3.4,3.8
						c-0.1,2-1.8,3.5-3.8,3.4l-29.3-1.6C1838.4,531,1837.5,530.5,1836.9,529.8z"/>
				</g>
				<g>
					<path class="st4" d="M1850.4,599.7c-0.6-0.7-1-1.6-0.9-2.6c0.1-2,1.8-3.5,3.8-3.4l11.9,0.7c2,0.1,3.5,1.8,3.4,3.8
						c-0.1,2-1.8,3.5-3.8,3.4l-11.9-0.7C1851.9,600.8,1851,600.4,1850.4,599.7z"/>
				</g>
				<g>
					<path class="st4" d="M1945.6,535.8c-0.6-0.7-1-1.6-0.9-2.6c0.1-2,1.8-3.5,3.8-3.4l15.3,0.8c2,0.1,3.5,1.8,3.4,3.8
						c-0.1,2-1.8,3.5-3.8,3.4l-15.3-0.8C1947.1,537,1946.3,536.5,1945.6,535.8z"/>
				</g>
				<g>
					<path class="st4" d="M1924.7,647.3c-0.2-0.2-0.4-0.5-0.5-0.8l-4.6-9.2c-0.9-1.8-0.2-3.9,1.6-4.8c1.8-0.9,3.9-0.2,4.8,1.6
						l4.6,9.2c0.9,1.8,0.2,3.9-1.6,4.8C1927.5,648.8,1925.8,648.5,1924.7,647.3z"/>
				</g>
				<g>
					<path class="st4" d="M1887.9,498.1l-12.2-13.6c-1.3-1.5-1.2-3.8,0.3-5.1s3.8-1.2,5.1,0.3l12.2,13.6c1.3,1.5,1.2,3.8-0.3,5.1
						S1889.3,499.6,1887.9,498.1z"/>
				</g>
				<g>
					<path class="st4" d="M1962.1,610.6c-1.8-2-2.8-4.7-2.6-7.4c0.3-5.7,5.2-10,10.8-9.7c2.7,0.2,5.3,1.4,7.1,3.4
						c1.8,2,2.8,4.7,2.6,7.4c-0.2,2.7-1.4,5.3-3.4,7.1c-2,1.8-4.7,2.8-7.4,2.6S1964,612.7,1962.1,610.6z M1972.1,601.7
						c-0.5-0.6-1.3-1-2.1-1c-1.7-0.1-3.2,1.2-3.2,2.9c0,0.8,0.2,1.6,0.8,2.2c0.5,0.6,1.3,1,2.1,1c0.8,0,1.6-0.2,2.2-0.8
						c0.6-0.5,1-1.3,1-2.1C1972.9,603.1,1972.6,602.3,1972.1,601.7z"/>
				</g>
				<g>
					<path class="st4" d="M1875.8,626.9c-0.2-0.2-0.4-0.5-0.5-0.8l-13.5-26.6c-0.6-1.1-0.5-2.5,0.2-3.6l21.8-33.3
						c0.7-1.1,1.9-1.7,3.2-1.6l39.7,2.2c1.3,0.1,2.4,0.8,3,2l18,35.5c0.6,1.1,0.5,2.5-0.2,3.6l-21.8,33.3c-0.7,1.1-1.9,1.7-3.2,1.6
						l-28.3-1.6c-1-0.1-2-0.5-2.6-1.3c-0.6-0.8-0.9-1.8-0.7-2.8c0-0.2,0.1-0.5,0.1-0.7c0.1-1.7-0.5-3.4-1.6-4.6s-2.7-2-4.4-2.1
						c-1.5-0.1-3,0.4-4.3,1.3c-0.8,0.7-1.9,0.9-3,0.7C1877,627.9,1876.3,627.5,1875.8,626.9z M1869.2,598.2l10.9,21.5
						c1.7-0.6,3.5-0.9,5.3-0.8c3.6,0.2,7,1.8,9.4,4.5c1.9,2.1,3,4.6,3.4,7.3l22.8,1.3l19.5-29.8l-16.1-31.8l-35.6-2L1869.2,598.2z"
						/>
				</g>
				<g>
					<path class="st4" d="M1874.5,641.6c-2.4-2.7-3.7-6.2-3.4-9.8c0.2-4,2.1-7.6,5.3-10c2.6-2,5.8-3,9-2.8c3.6,0.2,7,1.8,9.4,4.5
						c2.4,2.7,3.7,6.2,3.5,9.8c0,0.5-0.1,1-0.2,1.4c-1.1,6.9-7.2,11.8-14.2,11.4C1880.2,645.9,1876.9,644.3,1874.5,641.6z
						 M1889.4,628.2c-1.1-1.3-2.7-2-4.4-2.1c-1.5-0.1-3,0.4-4.3,1.3c-1.5,1.1-2.4,2.9-2.5,4.7c-0.1,1.7,0.5,3.4,1.6,4.6
						c1.1,1.3,2.7,2,4.4,2.1c3.3,0.2,6.2-2.1,6.7-5.4c0-0.2,0.1-0.5,0.1-0.7C1891.1,631.1,1890.5,629.5,1889.4,628.2z"/>
				</g>
				<g>
					<path class="st4" d="M1884.1,567c-0.2-0.2-0.4-0.5-0.5-0.8l-18-35.5c-0.6-1.1-0.5-2.5,0.2-3.6l21.8-33.3
						c0.7-1.1,1.9-1.7,3.2-1.6l31.5,1.7c2,0.1,3.5,1.8,3.4,3.8c0,0.8,0.2,1.6,0.8,2.2c0.5,0.6,1.3,1,2.1,1c1,0.1,1.7-0.3,2.1-0.7
						c0.8-0.7,2-0.9,3-0.7c1.1,0.2,1.9,0.9,2.4,1.9l15.4,30.4c0.6,1.1,0.5,2.5-0.2,3.6l-21.8,33.3c-0.7,1.1-1.9,1.7-3.2,1.6
						l-39.7-2.2C1885.7,568.1,1884.8,567.7,1884.1,567z M1873,529.3l16.1,31.8l35.6,2l19.5-29.8l-12.9-25.4c-1,0.3-2,0.4-3.1,0.3
						c-2.7-0.2-5.3-1.4-7.1-3.4c-1-1.1-1.7-2.4-2.2-3.8l-26.5-1.5L1873,529.3z"/>
				</g>
				<g>
					<path class="st4" d="M1921.2,504.7c-1.8-2-2.8-4.7-2.6-7.4c0.2-3,1.6-5.7,4-7.6c1.9-1.5,4.4-2.3,6.8-2.1
						c2.7,0.2,5.3,1.4,7.1,3.4c1.8,2,2.8,4.7,2.6,7.4c0,0.4-0.1,0.7-0.1,1.1c-0.4,2.5-1.7,4.8-3.8,6.4c-2,1.6-4.4,2.3-6.9,2.2
						C1925.5,508,1923,506.7,1921.2,504.7z M1931.1,495.8c-0.5-0.6-1.3-1-2.1-1c-0.9-0.1-1.6,0.3-2,0.6c-0.7,0.5-1.2,1.4-1.2,2.3
						c0,0.8,0.2,1.6,0.8,2.2s1.3,1,2.1,1c1,0.1,1.7-0.3,2.1-0.7c0.6-0.5,1-1.2,1.1-1.9c0-0.1,0-0.2,0-0.3
						C1931.9,497.2,1931.7,496.4,1931.1,495.8z"/>
				</g>
				<g>
					<path class="st4" d="M1893.3,553c-0.2-0.2-0.4-0.5-0.5-0.8l-10.4-20.6c-0.6-1.1-0.5-2.5,0.2-3.6l12.6-19.3c1.1-1.7,3.3-2.1,5-1
						c1.7,1.1,2.1,3.3,1,5l-11.5,17.6l8.6,16.9l18.9,1l10.4-15.9l-8.6-16.9l-7.8-0.4c-2-0.1-3.5-1.8-3.4-3.8c0.1-2,1.8-3.5,3.8-3.4
						l9.9,0.5c1.3,0.1,2.4,0.8,3,2l10.4,20.6c0.6,1.1,0.5,2.5-0.2,3.6l-12.6,19.3c-0.7,1.1-1.9,1.7-3.2,1.6l-23.1-1.3
						C1894.8,554.1,1893.9,553.7,1893.3,553z"/>
				</g>
				<g>
					<path class="st4" d="M1879,601.3c-1.1-1.2-1.2-3-0.3-4.4l12.6-19.3c0.7-1.1,1.9-1.7,3.2-1.6l23.1,1.3c1.3,0.1,2.4,0.8,3,2
						l10.4,20.6c0.6,1.1,0.5,2.5-0.2,3.6l-12.6,19.3c-0.7,1.1-1.9,1.7-3.2,1.6l-13.2-0.7c-2-0.1-3.5-1.8-3.4-3.8
						c0.1-2,1.8-3.5,3.8-3.4l11.1,0.6l10.4-15.9l-8.6-16.9l-18.9-1l-11.5,17.6c-1.1,1.7-3.3,2.1-5,1
						C1879.5,601.7,1879.2,601.5,1879,601.3z"/>
				</g>
				<g>
					<path class="st4" d="M1825.3,533.5c-1.8-2-2.8-4.7-2.6-7.4c0.3-5.7,5.2-10,10.8-9.7c2.7,0.2,5.3,1.4,7.1,3.4
						c1.8,2,2.8,4.7,2.6,7.4c-0.3,5.7-5.2,10-10.8,9.7C1829.6,536.8,1827.1,535.5,1825.3,533.5z M1835.2,524.6c-0.5-0.6-1.3-1-2.1-1
						c-1.7-0.1-3.2,1.2-3.2,2.9c0,0.8,0.2,1.6,0.8,2.2s1.3,1,2.1,1c1.7,0.1,3.2-1.2,3.2-2.9C1836.1,526,1835.8,525.2,1835.2,524.6z"
						/>
				</g>
				<g>
					<path class="st4" d="M1976.4,569.5c-4-4.4-3.6-11.3,0.8-15.2s11.3-3.6,15.2,0.8c4,4.4,3.6,11.3-0.8,15.2
						S1980.4,574,1976.4,569.5z M1987.2,559.9c-1.3-1.5-3.6-1.6-5.1-0.3c-1.5,1.3-1.6,3.6-0.3,5.1c1.3,1.5,3.6,1.6,5.1,0.3
						C1988.4,563.7,1988.5,561.4,1987.2,559.9z"/>
				</g>
				<g>
					<path class="st4" d="M1837.5,573.9c-5.3-5.9-4.8-15,1.1-20.3c5.9-5.3,15-4.8,20.3,1.1c5.3,5.9,4.8,15-1.1,20.3
						C1851.9,580.4,1842.8,579.8,1837.5,573.9z M1853.6,559.5c-2.6-3-7.2-3.2-10.2-0.6c-3,2.6-3.2,7.2-0.6,10.2
						c2.6,3,7.2,3.2,10.2,0.6C1856,567.1,1856.3,562.5,1853.6,559.5z"/>
				</g>
			</g>
		</g>
	</g>
	<g>
		
			<ellipse id="Ellipse_21_4_" transform="matrix(0.9399 -0.3414 0.3414 0.9399 -97.0292 611.1858)" class="st5" cx="1688.1" cy="581.3" rx="103" ry="105.5"/>
		<path class="st6" d="M1716.8,562l-18.6,3.2l-5.1-43.7c-0.7-6.1-9.2-7.6-12-1.7l-28.5,72.9c-1.7,4.5,2,9.2,6.9,8.4l18.6-3.2
			l5.1,43.7c0.7,6.1,9.2,7.6,12,1.7l28.5-72.9C1725.4,566,1721.3,561.3,1716.8,562z"/>
	</g>
</g>
</svg>
