<?xml version="1.0" encoding="utf-8"?>
<!-- Generator: Adobe Illustrator 24.2.0, SVG Export Plug-In . SVG Version: 6.00 Build 0)  -->
<svg version="1.1" id="Layer_1" xmlns="http://www.w3.org/2000/svg" xmlns:xlink="http://www.w3.org/1999/xlink" x="0px" y="0px"
	 viewBox="0 0 2880 1800" style="enable-background:new 0 0 2880 1800;" xml:space="preserve">
<style type="text/css">
	.st0{opacity:0.15;fill:#0ACF80;}
	.st1{fill:#0ACF80;}
	.st2{fill:#FFFFFF;}
	.st3{fill:#007D6E;}
</style>
<path id="Tracé_191_8_" class="st0" d="M1780.1,878c5.5-9.8,9.6-18.1,12-31.6c10.1-56.7-11.3-79.2-86.7-87.1
	c-83.4-8.8-224.9,96.8-310.5-37.5s-413.6,210.4-157,282.7C1480.1,1072.8,1738.6,952.3,1780.1,878z"/>
<g>
	<path class="st1" d="M1551.3,1359c-0.5-18.4-14.1-33.5-32.3-35.8c-1.9-0.3-3.9-0.4-5.9-0.3c-3.7,0.1-7.3,0.7-10.7,1.9
		c-15.6,5.2-25.9,19.8-25.4,36.3c0.3,9.9,4.4,19.2,11.6,26c7,6.6,16,10.2,25.5,10.2c0.3,0,0.7,0,1,0c12.9-0.4,24.5-7.2,31-18.4
		c2.9-4.9,4.6-10.2,5-15.9C1551.3,1361.6,1551.4,1360.3,1551.3,1359 M1537.3,1359.4c0.2,5.6-1.8,11.1-5.4,15.5
		c-4.3,5.1-10.5,8.1-17.1,8.3c-12.7,0.3-23.4-9.7-23.8-22.5c-0.2-8.8,4.5-16.9,12.3-21c3.2-1.7,6.6-2.6,10.2-2.7c0.2,0,0.4,0,0.6,0
		c2.2,0,4.5,0.3,6.7,1c9,2.7,15.6,10.8,16.3,20.2l0,0.4C1537.3,1358.7,1537.3,1359,1537.3,1359.4"/>
	<path class="st1" d="M1611.6,1359c-0.5-18.4-14.1-33.5-32.3-35.8c-1.9-0.3-3.9-0.4-5.9-0.3c-3.7,0.1-7.3,0.7-10.7,1.9
		c-15.7,5.2-25.9,19.8-25.4,36.3c0.3,9.9,4.4,19.2,11.6,26c7,6.6,16,10.2,25.5,10.2c0.3,0,0.7,0,1,0c12.9-0.4,24.5-7.2,31-18.4
		c2.9-4.9,4.6-10.2,5-15.9C1611.6,1361.6,1611.7,1360.3,1611.6,1359 M1597.6,1359.4c0.2,5.6-1.8,11.1-5.4,15.5
		c-4.3,5.1-10.5,8.1-17.1,8.3c-12.7,0.3-23.4-9.7-23.8-22.5c-0.2-8.8,4.5-16.9,12.3-21c3.2-1.7,6.6-2.6,10.2-2.7c0.2,0,0.4,0,0.6,0
		c2.2,0,4.5,0.3,6.7,1c9,2.7,15.6,10.8,16.4,20.2l0,0.4C1597.6,1358.7,1597.6,1359,1597.6,1359.4"/>
	<path class="st1" d="M1277.1,1384.8c0.6-2.9,0.1-5.7-1.4-7.6c-1.4-1.8-3.7-2.8-6.6-2.8h0c0,0-0.1,0-0.1,0c-3.1,0-6.1,1.8-7.8,4.9
		c-0.5,0.8-2.9,2.6-5.1,2.8c-6.1,0.5-11.3-0.5-15.7-3.2l-0.2-0.1l0,0c-5.2-3.4-8.6-9.1-9.4-15.7c-0.1-0.7-0.1-1.3-0.1-1.9l0-0.3
		c0-0.2,0-0.4,0-0.6c0-0.2,0-0.4,0-0.6l0-0.3c0-0.6,0.1-1.3,0.1-2c0.8-6.6,4.2-12.3,9.4-15.7l0,0l0.2-0.2c4.3-2.7,9.6-3.8,15.7-3.2
		c2.3,0.2,4.7,1.9,5.1,2.8c1.8,3,4.7,4.8,7.8,4.8h0.1c2.9,0,5.2-1,6.6-2.8c1.5-1.9,2-4.7,1.4-7.6c-0.3-1.7-1.3-3.2-2.8-4.5
		c-5.8-4.9-13.4-7.6-21.6-7.6c-2.1,0-4.3,0.2-6.5,0.5c-11.2,1.8-21,8.2-26.2,17.1c-3.7,5.7-5.6,12.3-5.5,19.1
		c-0.1,6.9,1.8,13.5,5.5,19.1c5.3,8.9,15,15.2,26.2,17.1c10.6,1.8,20.8-0.8,28.1-7C1275.8,1388,1276.8,1386.5,1277.1,1384.8"/>
	<path class="st1" d="M1354,1396.8c2.9,0.1,5.2-0.7,6.7-2.2c1.4-1.3,2.1-3.3,2.1-5.5c0-2.6-1.2-4.8-3.9-6.9
		c-3.9-2.4-4.5-3.9-4.5-10.8v-41.1c0-3.3-2.5-6.9-7.2-6.9c-4.6,0-6.3,3.5-6.3,6.9v1.4l-0.4-0.3c-5.3-4.3-11.7-7-18.5-7.9
		c-1.6-0.2-3.2-0.3-4.8-0.3c-0.3,0-0.7,0-1,0c-3.6,0.1-7.2,0.7-10.7,1.9c-15.6,5.2-25.7,19.7-25.3,36.1c0.3,9.9,4.4,19,11.5,25.8
		c6.9,6.5,15.9,10.1,25.4,10.1c0.3,0,0.7,0,1,0c8.7-0.2,17-3.5,23.5-9.2l0.3-0.2l0.1,0.3C1344.2,1393.4,1348.4,1396.5,1354,1396.8
		 M1334.8,1374.7c-4.2,5-10.3,8-16.8,8.2c-0.2,0-0.4,0-0.6,0c-12.3,0-22.5-9.8-22.8-22.2c-0.2-8.7,4.4-16.6,12.1-20.7
		c3.1-1.7,6.5-2.6,10.1-2.7c0.2,0,0.4,0,0.6,0c2.2,0,4.4,0.3,6.6,1c8.9,2.7,15.3,10.7,16.1,19.9l0,0.4c0,0.3,0.1,0.6,0.1,0.9
		C1340.3,1365,1338.4,1370.4,1334.8,1374.7"/>
	<path class="st1" d="M1384.9,1356.1l0,23.7v10.2v0.1c0,3.7-2.8,7.1-7.1,7c-1.8,0-3.3-0.7-4.6-2c-1.5-1.5-2.2-3.4-2.2-5.6l0-0.5
		l0.1-0.1l-0.1,0v-4.8v-10.4v-25.3l0,0c0-6.9-0.6-8.4-4.5-10.8c-2.6-2.1-3.9-4.3-3.9-6.9c0-2.3,0.7-4.2,2.1-5.5
		c1.5-1.5,3.8-2.2,6.7-2.2c1.3,0.1,2.4,0.3,3.5,0.7c3.8,1.2,6.7,4.1,8.3,8.3l0.1,0.3l0.3-0.2c0,0,0.8-0.6,1.8-1.3
		c0.6-0.4,1.2-0.9,1.8-1.3c0,0,0,0,0,0c0.3-0.2,0.5-0.3,0.7-0.5l0,0.1c11.8-7.2,19.8-6.3,19.8-6.3c5.2,0,9.8,1.3,13.6,3.8
		c3.8,2.5,6.8,6,8.8,10.4c2,4.3,3,9.1,3,14.2v26.6h0l0,1.3h0v4.4v5.8v0.1c0,0.5-0.1,1-0.2,1.5c-0.6,3.2-3.2,5.8-7,5.8
		c0,0-0.1,0-0.1,0c0,0-0.1,0-0.1,0c-1.9,0-3.4-0.7-4.7-2.1c-1.5-1.6-2.3-3.5-2.3-5.8l0-1.4l0,0v0l0,0v-3.8v-10.7l0,0v-11.3v-9.1
		c0-10.1-6.2-14.7-15-14.7C1403.9,1338,1384.9,1338.3,1384.9,1356.1"/>
	<path class="st1" d="M1545.6,1281.6c-0.2-0.8-0.6-1.5-1.2-2.1c-1.8-1.5-4.1-1.6-5.9-0.2c-15.1,12.6-47.4,19.8-65.3,23l-7,1.3
		l1.2-7.4c0.5-2.8,1-6-1.2-7.9c-1.1-0.9-2.5-1.6-4.2-1.8l-0.4-0.1c-2.6-0.4-5.1,0.4-7,2.3c-1.1,1.1-2.1,3.4-2.3,4.9l-2,12.3
		l-0.5,0.1c-2.8,0.4-4.4,0.6-4.4,0.6c-6.8,0.6-12,0.1-15.8-0.2c-2.6-0.3-4.5-0.4-5.4,0c-1.8,0.9-2.3,1.4-2.8,3
		c-0.6,1.8-0.3,3.9,1,6.3c2.5,4.4,7.5,5.7,10.3,6.1c0.1,0,6.4,0.5,13.4-1.1c0.1,0,0.1,0,0.2,0c0.2,0,0.3,0.1,0.5,0.2
		c0.2,0.2,0.2,0.4,0.2,0.6l-0.8,5.1l-1.4,9.3l-0.4,5.7c-0.3,4.6-0.4,10.8-0.4,14.9c0,5.6,0.4,10.8,1.3,15.5c1,5.4,2.6,10,4.8,13.6
		c5,8.4,13.1,12.7,24.2,12.7c5.9,0,16.5-3.3,21.7-6.2c-0.4-0.3-0.9-0.5-1.4-0.7c-0.6-0.3-1.1-0.9-1.6-1.3c-2.3-2-6.4-5.5-7.8-9.3
		c-2.2,2.6-7.2,2.7-7.8,2.7c-5.9,0-10.9-2.4-13.4-6.5c-2.5-4.2-3.8-11.6-3.8-21.9c0-2.9,0.1-8.6,0.3-13.4c0.2-7.9,1.8-18,2.5-21.9
		l0-0.2l0.2,0c14.4-2.2,32.3-6.5,49.1-11.8c14.4-4.5,25.4-8.9,28-11.2C1544.7,1292.2,1546.7,1287,1545.6,1281.6"/>
	<g>
		<path class="st1" d="M1423,1460.6c-1.4-1-2.1-2.3-2.1-3.9c0-1.9,1.2-3.1,3.3-3c3.4,0.6,6.5,3.6,12.5,3.6c4.6,0,7.5-1.4,7.5-4.2
			c0-3.3-4.1-4.4-9.2-5.5c-6.4-1.4-13.1-3.9-13.1-11.5c0-6.6,5.5-10.8,14.9-10.8c4.4,0,8.6,1.2,11.1,2.7c1.5,0.9,2.4,2.1,2.4,3.4
			c0,2.9-2.3,3.7-4.9,3c-2-0.5-4.7-2.3-8.9-2.3c-3.9,0-6.4,0.8-6.4,3.8c0,3.2,3.9,4,9.5,5.2c6,1.3,12.8,3.3,12.8,11.3
			c0,5.9-3.8,11.6-15.8,11.6C1431,1464,1425.7,1462.6,1423,1460.6"/>
		<path class="st1" d="M1455.9,1444.6c0-11.2,7.3-19.3,19.6-19.3c4.2,0,8,1,10.2,2.6c1.2,0.9,2,2.2,2,3.9c0,1.7-1.2,3.3-3.4,3.3
			c-2.6,0-4-2.2-8.9-2.2c-6.9,0-11,5.1-11,11.8s3.9,11.8,11.1,11.8c4.9,0,6.3-2.2,8.9-2.2c2.2,0,3.4,1.5,3.4,3.3
			c0,1.6-0.8,2.8-2.2,3.7c-2.3,1.7-6.3,2.7-10.6,2.7C1463.2,1464,1455.9,1455.9,1455.9,1444.6"/>
		<path class="st1" d="M1493.4,1459v-29.4c0-1.9,1.1-3.6,3.4-3.6s3.3,1.2,3.3,2.9v3.2h0.1c2-3.6,5.8-6.5,10.2-6.7
			c2.6,0,3.9,1.8,3.9,3.8c0,1.9-1.2,3.8-3.9,3.8c-5.2,0.2-8.8,3.6-8.8,9.7l-0.1,16.4c0,2.3-1.2,4.4-4.1,4.4
			C1494.7,1463.4,1493.4,1461.3,1493.4,1459"/>
		<path class="st1" d="M1518.3,1459v-28.6c0-2.3,1.2-4.4,4.1-4.4c2.9,0,4.1,2.1,4.1,4.4v28.6c0,2.3-1.2,4.4-4.1,4.4
			C1519.6,1463.4,1518.3,1461.3,1518.3,1459"/>
		<path class="st1" d="M1542.1,1457h-0.1v3c0,1.7-0.9,3.4-3.3,3.4c-2.3,0-3.3-1.7-3.3-3.6V1412c0-2.3,1.3-4.4,4.1-4.4
			c2.8,0,4.1,2,4.1,4.4v18.5h0.1c2.1-2.8,6.8-5.1,11.6-5.1c10.5,0,17.2,7.8,17.2,19.1c0,11.1-6.6,19.5-17.2,19.5
			C1549.7,1464,1544.5,1461.5,1542.1,1457 M1564,1444.7c0-7.4-4.4-11.8-10.4-11.8c-6.5,0-10.6,4.4-10.6,11.6
			c0,7.3,3.9,11.9,10.5,11.9C1559.8,1456.5,1564,1451.9,1564,1444.7"/>
		<path class="st1" d="M1576.5,1444.5c0-11.6,7.6-19.1,18.1-19.1c11,0,17,6.9,17,16.9c0,3.4-1.2,5.2-4.7,5.2h-22.1
			c0,4.8,3.8,9.2,12,9.2c5.5,0,7.1-2.1,9.6-2.1c2.3,0,3.5,1.5,3.5,3.3c0,1.6-0.9,2.8-2.3,3.8c-2.3,1.5-6.5,2.5-10.8,2.5
			C1583.6,1464,1576.5,1456.3,1576.5,1444.5 M1603.2,1441.7c0.1-0.4,0.1-1,0.1-1.3c0-4.5-2.7-8.1-8.8-8.1c-5.5,0-9.5,4.1-9.5,9.4
			H1603.2z"/>
		<path class="st1" d="M1518.1,1419c0-2.6,1.8-4.2,4.4-4.2c2.6,0,4.3,1.6,4.3,4.2c0,2.6-1.7,4.3-4.3,4.3
			C1519.9,1423.3,1518.1,1421.6,1518.1,1419"/>
	</g>
</g>
<path class="st1" d="M1714.3,1245.6h-602.4c-47.1,0-85.2-38.2-85.2-85.2v0c0-47.1,38.2-85.2,85.2-85.2h602.4
	c47.1,0,85.2,38.2,85.2,85.2v0C1799.5,1207.4,1761.4,1245.6,1714.3,1245.6z"/>
<g>
	<g>
		<path class="st2" d="M1323.9,1194.6c-5-1.4-9.2-3.3-12.3-5.8c-1.1-0.8-1.9-1.7-2.4-2.6c-0.5-0.9-0.7-2.1-0.7-3.5
			c0-1.8,0.6-3.5,1.7-4.9c1.1-1.4,2.5-2.1,3.9-2.1c0.8,0,1.6,0.1,2.4,0.4c0.8,0.3,1.7,0.7,2.8,1.4c3.2,2,6.4,3.5,9.7,4.4
			c3.3,0.9,6.9,1.4,10.8,1.4c4.9,0,8.6-0.8,11.2-2.4c2.6-1.6,3.9-4,3.9-7c0-2.3-1.2-4.1-3.6-5.5c-2.4-1.4-6.7-2.7-12.8-4
			c-6.9-1.4-12.4-3.1-16.5-5.1c-4.1-2-7.1-4.5-9-7.4c-1.9-3-2.8-6.6-2.8-10.8c0-4.7,1.4-8.9,4.1-12.6c2.7-3.7,6.5-6.7,11.2-8.8
			c4.8-2.1,10.2-3.2,16.2-3.2c10.5,0,19.2,2.6,26,7.9c1.1,0.9,1.9,1.8,2.4,2.7c0.5,0.9,0.7,2.1,0.7,3.4c0,1.9-0.6,3.5-1.7,4.9
			c-1.2,1.4-2.5,2.1-3.9,2.1c-0.8,0-1.6-0.1-2.3-0.3c-0.7-0.2-1.7-0.7-3-1.4c-3-1.9-5.8-3.4-8.4-4.3c-2.6-1-5.8-1.4-9.7-1.4
			c-4.5,0-8.1,0.9-10.7,2.6c-2.6,1.7-3.9,4.1-3.9,7.2c0,1.8,0.5,3.2,1.5,4.4c1,1.1,2.7,2.2,5,3.1c2.3,0.9,5.6,1.8,9.9,2.8
			c10.1,2.2,17.3,5.1,21.7,8.6c4.4,3.5,6.6,8.3,6.6,14.3c0,4.7-1.3,8.9-3.9,12.6c-2.6,3.6-6.3,6.5-11.1,8.5c-4.8,2-10.3,3-16.6,3
			C1334.4,1196.7,1328.9,1196,1323.9,1194.6z"/>
		<path class="st2" d="M1442.3,1117.8c1.3-0.8,2.7-1.2,4.2-1.2c2.2,0,4.2,0.7,6,2.2c1.8,1.5,2.7,3.3,2.7,5.4c0,1.1-0.3,2.2-0.8,3.3
			l-30,63.4c-0.8,1.7-2,3-3.7,3.9c-1.6,0.9-3.4,1.4-5.3,1.4c-1.9,0-3.7-0.5-5.3-1.4c-1.6-0.9-2.9-2.2-3.7-3.9l-30-63.4
			c-0.5-1-0.8-2.1-0.8-3.2c0-2.2,0.9-4.1,2.8-5.5c1.9-1.5,3.9-2.2,6.2-2.2c1.6,0,3,0.4,4.3,1.2c1.3,0.8,2.3,1.9,2.9,3.5l23.8,52
			l23.8-52C1440.1,1119.8,1441.1,1118.6,1442.3,1117.8z"/>
		<path class="st2" d="M1486.4,1193.9c-1.6-1.6-2.4-3.6-2.4-6.2v-56.3h-18c-5.5,0-8.2-2.4-8.2-7.1c0-4.7,2.7-7,8.2-7h53.4
			c5.5,0,8.2,2.3,8.2,7c0,4.7-2.7,7.1-8.2,7.1h-18v56.3c0,2.6-0.8,4.7-2.3,6.2c-1.6,1.6-3.7,2.3-6.3,2.3
			C1490.1,1196.3,1488,1195.5,1486.4,1193.9z"/>
	</g>
</g>
<g id="Groupe_166" transform="matrix(0.998, -0.07, 0.07, 0.998, -457.392, -83.181)">
	<path id="Tracé_298" class="st1" d="M2028.3,1022.6c-8.7,3.6-18.1,4.7-27.4,3.2c-18.8-1.6-37.4-5-55.5-10.1
		c-18.2-5.1-37.8-13.7-44.8-31.3c-2.9-6.9-3-14.6-0.2-21.6c3-6.9,9.4-11.7,16.9-12.5c5.8,0.2,11.5,1.5,16.7,4
		c20.7,6.9,43.1,6.9,63.8,0c-28.1-59.9-55.3-117.4-90.9-173.9c-14-22.2-30.5-45.7-54.7-51.8c-22.2-5.6-45.8,5.5-62.3,22.7
		s-27.4,39.5-37.9,61.6L1676,993.7c-13.7,34.7-26.5,78.2-4.2,106.9c16.9,21.8,46.4,24.4,72.6,25.3l199.1,7.2
		c25.9,0.9,54.8,0.8,73.9-18.3c15.6-15.5,20.6-40.6,17.9-63.2C2034,1041.7,2031.7,1032,2028.3,1022.6z"/>
	<g id="Groupe_165" transform="translate(487.258 155.158)">
		<path id="Tracé_299" class="st2" d="M1420.2,736.4c-0.1,0.5-0.3,1-0.6,1.4c-1.2,2.7-4.4,3.9-7.1,2.7c-0.1-0.1-0.2-0.1-0.4-0.2
			c-13.8-8.4-25.5-10.6-35-6.5c-6.8,3.3-12.1,9-15,16c-0.9,3-4,4.7-7,3.8c0,0-0.1,0-0.1,0c-2.9-1.3-4.2-4.7-3-7.6
			c4-10.2,11.7-18.6,21.6-23.3c12.6-5.4,27.4-3,44.1,7.1C1420,731.2,1421,733.9,1420.2,736.4z"/>
	</g>
</g>
<g>
	<g>
		<path class="st3" d="M1629,429.7c1.5,20.7-3.3,39.6-12.5,46.9c-11.7,9.2-25.6,4-26.3,3.7c-2.6-1-4.4,0.3-4.1,3.1
			c0.3,2.7,2.6,5.8,5.2,6.8c0.7,0.3,18.4,7.2,32.7-4c10.7-8.5,16.1-29.4,14.3-53c-1.5-0.5-3.1-1.1-4.8-1.7
			C1632,430.7,1630.5,430.2,1629,429.7z"/>
		<path class="st3" d="M1635.2,425.4c-1.3-16.3,0.2-37.3,11.2-45.9c6.7-5.3,10.3-4.4,10.3-4.4s3.8-0.3,3.4-4
			c-0.5-3.7-4.2-5.8-4.2-5.8c-1.7-0.7-7.9-2.5-17,4.6c-13,10.3-14.5,34.3-13,52.1c1.4,0.5,2.7,1,4.1,1.5
			C1631.8,424.2,1633.6,424.8,1635.2,425.4z"/>
		<path class="st3" d="M1693.7,412.9c-2.6-1.5-5.1-0.3-5.3,2.1c0,0-1.4,5.2-5.6,9.1l-38.5-48.7c0,0-0.9,0.7-1.4,1.1
			c-1.5,1.2-3,2.7-3.8,3.9l37.8,47.8c-3.9,2-7.2,2.5-10.8,2.6l-30-38c-2.2,4.2-2,6.8-2.7,10.6l22,27.8c-8.4-1.3-16.8-4.7-25.4-7.9
			c-26.7-10.1-45.1-10.8-57.1-1.3c-14.2,11.2-11.5,29.9-11.4,30.7c0.4,2.8,2.9,5.6,5.5,6.6c2.6,0.9,4-0.3,3.6-3c0-0.2-0.2-2.4-0.4-5
			l24.8,31.3c2.2,0.5,6.1,0.8,9.8,0.8l-32.5-41.2c1.4-2.9,3-5.6,4.9-7.7l36.4,46.1c1.2-0.7,2-1.2,3-2c1-0.8,1.6-1.4,2.6-2.5
			l-36.4-46.1c3.7-2.3,6.8-3.1,11.4-4.2l32.7,41.4c0.2-2.1,1.2-5.4,2.1-9l-25.8-32.6c7.9,0.7,17.7,2.8,28.8,7.1
			c18.8,7.1,42.4,13.8,57.6,1.7c8.1-6.4,8.5-13.6,8.6-14.4C1698.3,417.5,1696.3,414.3,1693.7,412.9z"/>
	</g>
</g>
<g>
	<circle id="Ellipse_18" class="st3" cx="1721.8" cy="611.9" r="100.4"/>
	<path class="st2" d="M1661.7,570.7l-2.9,1.1l0.2,3.1c1.9,35,12.9,59.4,32.6,72.3c24.4,16,59.7,16.5,75.9,1.1l18.4,12.1
		c1.9,1.3,4.6,0.7,5.8-1.2c0.5-0.8,0.8-1.8,0.7-2.8c0-0.1,0-0.2-0.1-0.4c-0.2-1.1-0.9-2-1.8-2.7l-17.9-11.8
		c9.2-18.8-6.2-53-31.6-69.7C1721.3,558.9,1694.6,558.5,1661.7,570.7z M1704.9,607.2l-30.8,3.6c-3-8-5-17.3-6.1-27.9L1704.9,607.2z
		 M1672.6,575.9c10.1-3.2,19.5-5,28-5.5l8.9,29.8L1672.6,575.9z M1709.4,570.4c6.8,0.4,13.1,1.8,18.8,4.2c0,0.2,0.1,0.5,0.1,0.7
		l13.9,46.4l-21.7-14.3L1709.4,570.4z M1715.9,614.4l20,13.1l-48.2,5.7c-3.9-4-7.3-8.8-10.1-14.3l37.9-4.5
		C1715.7,614.4,1715.8,614.4,1715.9,614.4z M1738.7,580.5c21.4,15.4,32.3,42.9,26.8,56.4l-12.3-8.1L1738.7,580.5z M1696.8,640.6
		l50-5.9l13.3,8.8C1747.5,653.5,1719.1,654.8,1696.8,640.6z"/>
</g>
<path id="Tracé_309_6_" class="st1" d="M1718.5,756.1c4.5,1.8,8.3,5.4,10.4,9.8c4,8.4,4.6,17.3,3.7,26.4c-0.1,1.2,1.4,1.8,2.1,0.8
	c10.4-15.3,22.2-28,37.3-39.2c9.3-6.9,21.4-13.2,32-8.6c8.1,4.2,6.1,6.2,6,15.2c-0.2,8.9-2.7,17.6-7.1,25.4
	c-10.5,21-27.4,40.3-50,46.7c-23.3,7-41.1,1.9-50.9-20.4C1695.8,796.5,1684.9,742.4,1718.5,756.1z"/>
<g>
	<g>
		<path class="st3" d="M1949.2,638.9c-5.3-8.5-6.5-10.9-15.7-17c-4.7-3.1-9.3-5.4-13.2-6.8c-5.9-2.9-12-4.9-18.3-4
			c-12.2,1.1-31.3,26.3-22.4,37.8c2.9,3.9,12.6,6.3,17.6,5.4c10.7-0.8,12.9-5.8,22.9,1.9c13,10.1,36,11.5,31.5-10.9
			C1950.9,643,1950.1,640.9,1949.2,638.9z"/>
		<path class="st3" d="M1876.8,620.5c-1-4.9-8.6-21.4-13.7-20.4c-5,1-5.6,19.2-4.6,24.1c1,4.9,5.9,8,10.9,7
			C1874.5,630.2,1877.8,625.4,1876.8,620.5z"/>
		<path class="st3" d="M1887,606.7c5-1,8.3-5.8,7.3-10.7c-1-4.9-8.6-21.4-13.7-20.4c-5,1-5.6,19.2-4.6,24.1
			C1877,604.6,1881.9,607.7,1887,606.7z"/>
		<path class="st3" d="M1910.4,601.9c5-1,8.3-5.8,7.3-10.7c-1-4.9-8.6-21.4-13.7-20.4c-5,1-5.6,19.2-4.6,24.1
			C1900.5,599.8,1905.4,603,1910.4,601.9z"/>
		<path class="st3" d="M1931.7,584.9c-5,1-5.6,19.2-4.6,24.1c1,4.9,5.9,8,10.9,7c5-1,8.3-5.8,7.3-10.7
			C1944.4,600.4,1936.8,583.9,1931.7,584.9z"/>
		<path class="st3" d="M1930.7,582.6c1-0.3,2.1-1,2.2-2.1c0.1-0.9-0.5-1.9-0.9-2.7c-0.9-1.7-2.1-3.3-3.3-4.8c-1.9,5.8-1.5,7.7-0.3,9
			C1928.9,582.6,1929.9,582.8,1930.7,582.6z"/>
		<path class="st3" d="M1903,568.1c1-0.2,2.1-1,2.2-2.1c0.1-0.9-0.5-1.9-0.9-2.7c-0.9-1.7-2.1-3.3-3.3-4.8c-1.9,5.8-1.5,7.7-0.4,9
			C1901.2,568.1,1902.1,568.3,1903,568.1z"/>
		<path class="st3" d="M1879.4,573.3c1-0.3,2.1-1,2.1-2.1c0.1-0.9-0.5-1.9-0.9-2.7c-0.9-1.7-2.1-3.3-3.3-4.8c-1.9,5.8-1.5,7.7-0.3,9
			C1877.6,573.3,1878.6,573.5,1879.4,573.3z"/>
		<path class="st3" d="M1862,597.5c1-0.3,2.1-1,2.2-2.1c0.1-0.9-0.5-1.9-0.9-2.7c-0.9-1.7-2.1-3.3-3.3-4.8c-1.9,5.8-1.5,7.7-0.3,9
			C1860.2,597.6,1861.1,597.8,1862,597.5z"/>
	</g>
</g>
<g>
	<title>Artboard 9</title>
	<path class="st3" d="M1890.5,419.6c7.4,23.7-5.7,48.9-29.4,56.4l-5.7,1.8l3.4,10.7l14.4-4.5c2.1-0.7,4.4,0.5,5.1,2.6
		c0.7,2.1-0.5,4.4-2.6,5.1l-73,22.9c-2.1,0.7-4.4-0.5-5.1-2.6c-0.7-2.1,0.5-4.4,2.6-5.1l14.4-4.5l-9.2-29.3c0-0.2-0.1-0.3-0.1-0.4
		l-29.3,9.2c-2.1,0.7-4.4-0.5-5.1-2.6c-0.7-2.1,0.5-4.4,2.6-5.1l30.9-9.7c0.9-12.7,12-22.2,24.7-21.3c6.3,0.5,12.2,3.5,16.2,8.5
		l7.4-2.3c8.9-2.8,13.8-12.2,11-21.1c-2-6.2-7.3-10.7-13.7-11.6c-6.5,8.3-18.2,10.3-27.1,4.7l-4.2,8.1c-2.7,5.2-8.9,7.5-14.4,5.2
		l-4.6,8.9c-1.8,3.4-5.9,4.7-9.3,2.9l-8.5-4.4c-3.4-1.8-4.7-5.9-2.9-9.3l4.5-8.9c-4.9-3.2-6.6-9.6-3.9-14.8l29.3-56.1
		c1-2,3.5-2.8,5.5-1.7c0,0,0,0,0,0l31.8,16.6c2,1,2.8,3.5,1.7,5.5c0,0,0,0,0,0l-6.1,11.6c1.9,0.8,3.7,1.9,5.3,3.3
		C1867,387.9,1884.6,400.7,1890.5,419.6z M1823,451.7c-7.9,2.5-12.3,10.9-9.8,18.8c0,0,0,0,0,0l9.2,29.3l28.6-9l-9.2-29.3
		C1839.4,453.6,1831,449.2,1823,451.7C1823.1,451.7,1823,451.7,1823,451.7z M1837.6,415.6c6.6-2.1,10.2-9.1,8.1-15.6
		c-2.1-6.6-9.1-10.2-15.6-8.1c-6.6,2.1-10.2,9.1-8.1,15.6l0,0C1824,414,1831,417.7,1837.6,415.6z M1793,438.6l4.1-7.8l-6.4-3.3
		l-4.1,7.8L1793,438.6z M1838.8,373.1l-24.7-12.9l-27.4,52.5c-0.8,1.6-0.2,3.5,1.4,4.4c0,0,0,0,0,0l18.9,9.9
		c1.6,0.8,3.5,0.2,4.4-1.4l5.4-10.3c-6.4-9.4-3.9-22.1,5.5-28.5c3.3-2.2,7.2-3.5,11.2-3.5L1838.8,373.1z M1853,396.6
		c0.1,0.3,0.2,0.7,0.3,1c1.1,3.7,1.2,7.6,0.2,11.4c13.3,3.3,21.4,16.9,18.1,30.2c-2.1,8.4-8.4,15.1-16.6,17.7l-5.7,1.8
		c0,0.1,0.1,0.3,0.1,0.4l3.5,11l5.9-1.9c19.4-6.1,30.3-26.8,24.2-46.2c-4.2-13.5-15.8-23.4-29.8-25.5L1853,396.6z"/>
	<path class="st3" d="M1842.3,357.9l-17.8-9.2c-2-1-2.8-3.5-1.7-5.5c1-2,3.5-2.8,5.5-1.7l17.7,9.2c2,0.9,3,3.3,2,5.4
		c-0.9,2-3.3,3-5.4,2C1842.6,358,1842.4,358,1842.3,357.9z"/>
	<path class="st3" d="M1829.2,469.7l-0.5,0.1c-2.2,0.5-4.4-0.8-4.9-3c-0.5-2.2,0.8-4.4,3-4.9s4.4,0.8,4.9,3
		C1832.2,467,1831.1,469,1829.2,469.7z"/>
</g>
</svg>
